<svg width="24" height="16" viewBox="0 0 24 16" fill="none" xmlns="http://www.w3.org/2000/svg">
<path fill-rule="evenodd" clip-rule="evenodd" d="M13.5503 11.5799H14.1148C14.2083 10.2526 15.0985 9.11498 16.3645 8.70516C17.6305 8.29534 19.0185 8.6954 19.8721 9.71615H20.3204H20.5072C21.1452 8.24297 21 6.54777 20.1207 5.2046C19.2414 3.86143 17.7458 3.05018 16.1404 3.04558H15.3393C13.8141 1.24989 11.3556 0.552777 9.11484 1.2806C6.87407 2.00842 5.29446 4.01713 5.11554 6.36634H4.11516C2.39578 6.36634 1.00195 7.76017 1.00195 9.47955C1.00195 11.1989 2.39578 12.5928 4.11516 12.5928H11.9646C12.2516 11.9758 12.8699 11.5809 13.5503 11.5799Z" stroke="#B1B1B1" stroke-width="0.830189" stroke-linejoin="round"/>
<path fill-rule="evenodd" clip-rule="evenodd" d="M22.9989 12.3978C22.9966 10.9194 21.7999 9.72086 20.3216 9.71629H19.8733C19.0191 8.69517 17.6302 8.29544 16.3639 8.70628C15.0976 9.11712 14.2079 10.2561 14.1159 11.5842H13.5514C12.6159 11.6297 11.8809 12.4014 11.8809 13.338C11.8809 14.2745 12.6159 15.0462 13.5514 15.0918H20.334C21.8105 15.0758 22.9989 13.8744 22.9989 12.3978Z" stroke="#B1B1B1" stroke-width="0.830189" stroke-linejoin="round"/>
</svg>
