<svg width="24" height="18" viewBox="0 0 24 18" fill="none" xmlns="http://www.w3.org/2000/svg">
<path d="M19.661 11.5519C20.9103 11.17 21.9782 10.3473 22.6662 9.2368C20.5683 9.70948 18.3959 8.8409 17.2022 7.05207C16.0085 5.26325 16.0401 2.92389 17.2817 1.16797C14.8999 1.52722 13.0501 3.43109 12.7598 5.82229" stroke="#333333" stroke-width="0.802469" stroke-linecap="round" stroke-linejoin="round"/>
<path fill-rule="evenodd" clip-rule="evenodd" d="M6.00067 16.7872C3.45232 16.7816 1.39097 14.7113 1.3965 12.1629C1.40205 9.61458 3.47238 7.55322 6.02074 7.55876H6.79512C8.26998 5.82591 10.6446 5.15403 12.8087 5.85724C14.9728 6.56045 16.4989 8.49982 16.6735 10.7686H17.6445C19.3065 10.7686 20.6538 12.1159 20.6538 13.7779C20.6538 15.4399 19.3065 16.7872 17.6445 16.7872H6.00067Z" stroke="#B1B1B1" stroke-width="0.802469" stroke-linecap="round" stroke-linejoin="round"/>
</svg>
