<svg width="24" height="18" viewBox="0 0 24 18" fill="none" xmlns="http://www.w3.org/2000/svg">
<path d="M8.33594 1.08203V3.93388" stroke="#E21E22" stroke-width="0.814815" stroke-linecap="round" stroke-linejoin="round"/>
<path d="M3.85185 8.38672H1" stroke="#E21E22" stroke-width="0.814815" stroke-linecap="round" stroke-linejoin="round"/>
<path d="M5.15924 5.21198L3.14258 3.19531" stroke="#E21E22" stroke-width="0.814815" stroke-linecap="round" stroke-linejoin="round"/>
<path d="M10.686 6.11826C9.85258 5.25955 8.61557 4.92663 7.46371 5.25103C6.31184 5.57543 5.43038 6.50497 5.16756 7.67242C4.90474 8.83988 5.30282 10.0575 6.20455 10.8442" stroke="#E21E22" stroke-width="0.814815" stroke-linecap="round" stroke-linejoin="round"/>
<path fill-rule="evenodd" clip-rule="evenodd" d="M23.0007 12.2553C23.0007 11.0127 22.5071 9.82103 21.6284 8.94239C20.7498 8.06375 19.5581 7.57013 18.3155 7.57013H17.5211C16.0241 5.80769 13.6111 5.12349 11.4119 5.83783C9.21259 6.55217 7.66224 8.52369 7.48663 10.8294H6.50477C4.81724 10.8294 3.44922 12.1974 3.44922 13.8849C3.44922 15.5725 4.81724 16.9405 6.50477 16.9405H18.3196C20.9056 16.9383 23.0007 14.8413 23.0007 12.2553Z" stroke="#B1B1B1" stroke-width="0.814815" stroke-linecap="round" stroke-linejoin="round"/>
</svg>
