<svg width="24" height="24" viewBox="0 0 24 24" fill="none" xmlns="http://www.w3.org/2000/svg">
<rect width="24" height="24" fill="white"/>
<path d="M4.66797 8.5744C4.43292 8.5744 4.24237 8.76495 4.24237 9C4.24237 9.23505 4.43292 9.4256 4.66797 9.4256L4.66797 8.5744ZM16.0846 9.4256C16.3197 9.4256 16.5102 9.23505 16.5102 9C16.5102 8.76495 16.3197 8.57441 16.0846 8.57441L16.0846 9.4256ZM4.66797 9.4256L16.0846 9.4256L16.0846 8.57441L4.66797 8.5744L4.66797 9.4256Z" fill="#B1B1B1"/>
<path d="M8.08398 11L19.5007 11" stroke="#B1B1B1" stroke-width="0.85119" stroke-linecap="round" stroke-linejoin="round"/>
<path d="M5.24805 13L10.9564 13L16.6647 13" stroke="#B1B1B1" stroke-width="0.85119" stroke-linecap="round" stroke-linejoin="round"/>
<path d="M7.66797 7H16.0846" stroke="#B1B1B1" stroke-width="0.85119" stroke-linecap="round" stroke-linejoin="round"/>
<path d="M7.66797 15H17.418" stroke="#B1B1B1" stroke-width="0.85119" stroke-linecap="round" stroke-linejoin="round"/>
<path d="M9 17L14.9167 17" stroke="#B1B1B1" stroke-width="0.85119" stroke-linecap="round" stroke-linejoin="round"/>
</svg>
