<svg width="22" height="20" viewBox="0 0 22 20" fill="none" xmlns="http://www.w3.org/2000/svg">
<path fill-rule="evenodd" clip-rule="evenodd" d="M16.072 12.0593C18.6643 12.0593 20.7658 9.95776 20.7658 7.3654C20.7658 4.77304 18.6643 2.67152 16.072 2.67152H15.2679C13.7681 0.905812 11.3507 0.220335 9.14735 0.936003C6.94399 1.65167 5.39076 3.62684 5.21482 5.93683H4.23115C2.54048 5.93683 1.16992 7.30738 1.16992 8.99805C1.16992 10.6887 2.54048 12.0593 4.23115 12.0593H16.072Z" stroke="#B1B1B1" stroke-width="0.816326" stroke-linecap="round" stroke-linejoin="round"/>
<path d="M3.20117 17.5358L5.43791 13.7031" stroke="#0092E3" stroke-width="0.816326" stroke-linecap="round" stroke-linejoin="round"/>
<path d="M9.13672 17.5358L11.3735 13.7031" stroke="#0092E3" stroke-width="0.816326" stroke-linecap="round" stroke-linejoin="round"/>
<path d="M5.03906 19.4705L8.40233 13.7031" stroke="#0092E3" stroke-width="0.816326" stroke-linecap="round" stroke-linejoin="round"/>
<path d="M15.1895 17.5358L17.4262 13.7031" stroke="#0092E3" stroke-width="0.816326" stroke-linecap="round" stroke-linejoin="round"/>
<path d="M11.0918 19.4705L14.4591 13.7031" stroke="#0092E3" stroke-width="0.816326" stroke-linecap="round" stroke-linejoin="round"/>
</svg>
