<svg width="24" height="24" viewBox="0 0 24 24" fill="none" xmlns="http://www.w3.org/2000/svg">
<path d="M10.6328 3.79085V0.167969" stroke="#E21E22" stroke-width="0.805085" stroke-linecap="round" stroke-linejoin="round"/>
<path d="M5.79845 5.79454L3.23828 3.23438" stroke="#E21E22" stroke-width="0.805085" stroke-linecap="round" stroke-linejoin="round"/>
<path d="M3.79671 10.6289H0.173828" stroke="#E21E22" stroke-width="0.805085" stroke-linecap="round" stroke-linejoin="round"/>
<path d="M5.80248 15.4648L3.23828 18.029" stroke="#E21E22" stroke-width="0.805085" stroke-linecap="round" stroke-linejoin="round"/>
<path d="M15.4668 5.79064L18.031 3.23047" stroke="#E21E22" stroke-width="0.805085" stroke-linecap="round" stroke-linejoin="round"/>
<path d="M15.9535 8.78151C15.117 6.35772 12.7497 4.80415 10.1932 5.00117C7.63671 5.19818 5.53546 7.09612 5.08019 9.61946C4.62492 12.1428 5.93041 14.6554 8.25687 15.7334" stroke="#E21E22" stroke-width="0.805085" stroke-linecap="round" stroke-linejoin="round"/>
<path d="M11.4707 21.7231L13.2499 18.6719" stroke="#0092E3" stroke-width="0.805085" stroke-linecap="round" stroke-linejoin="round"/>
<path d="M17.3691 21.7231L19.1524 18.6719" stroke="#0092E3" stroke-width="0.805085" stroke-linecap="round" stroke-linejoin="round"/>
<path d="M13.5645 23.2609L16.2414 18.6719" stroke="#0092E3" stroke-width="0.805085" stroke-linecap="round" stroke-linejoin="round"/>
<path fill-rule="evenodd" clip-rule="evenodd" d="M23.5115 14.0269C23.5125 13.0547 23.1271 12.1219 22.44 11.4341C21.7529 10.7462 20.8205 10.3597 19.8483 10.3597H19.2284C18.0602 8.97219 16.1675 8.43122 14.4424 8.99179C12.7173 9.55237 11.5042 11.1026 11.3748 12.9119H10.6059C9.28538 12.9119 8.21484 13.9824 8.21484 15.303C8.21484 16.6235 9.28538 17.6941 10.6059 17.6941H19.8644C21.8828 17.6852 23.5137 16.0453 23.5115 14.0269Z" stroke="#BABABA" stroke-width="0.805085" stroke-linecap="round" stroke-linejoin="round"/>
</svg>
