<svg width="24" height="24" viewBox="0 0 24 24" fill="none" xmlns="http://www.w3.org/2000/svg">
<path d="M2.5918 21.6224L4.38653 18.5469" stroke="#0092E3" stroke-width="0.815789" stroke-linecap="round" stroke-linejoin="round"/>
<path d="M8.66406 21.6205L10.3283 18.7734" stroke="#0092E3" stroke-width="0.815789" stroke-linecap="round" stroke-linejoin="round"/>
<path d="M4.73828 23.1765L7.44262 18.5469" stroke="#0092E3" stroke-width="0.815789" stroke-linecap="round" stroke-linejoin="round"/>
<path d="M7.96094 16.898C10.0194 19.1272 13.0012 20.2668 16.0218 19.9787C19.0424 19.6906 21.755 18.0078 23.3549 15.4296C20.6102 16.0394 17.7363 15.3983 15.5111 13.6797" stroke="#333333" stroke-width="0.815789" stroke-linecap="round" stroke-linejoin="round"/>
<path d="M12.595 9.91499C11.3354 6.9216 11.7232 3.48852 13.6188 0.851562C9.31467 1.49604 5.97375 4.94052 5.46094 9.26235" stroke="#333333" stroke-width="0.815789" stroke-linecap="round" stroke-linejoin="round"/>
<path fill-rule="evenodd" clip-rule="evenodd" d="M12.0055 16.8999C13.9019 16.8353 15.4058 15.2793 15.4058 13.3818C15.4058 11.4843 13.9019 9.92828 12.0055 9.8637H11.4018C10.28 8.53396 8.46475 8.01583 6.81004 8.55307C5.15534 9.09031 3.99065 10.576 3.86392 12.3111H3.12563C2.28284 12.2755 1.48841 12.7049 1.05642 13.4294C0.624424 14.1539 0.624424 15.057 1.05642 15.7815C1.48841 16.5061 2.28284 16.9354 3.12563 16.8999H12.0055Z" stroke="#B1B1B1" stroke-width="0.815789" stroke-linecap="round" stroke-linejoin="round"/>
</svg>
