<svg width="22" height="22" viewBox="0 0 22 22" fill="none" xmlns="http://www.w3.org/2000/svg">
<path d="M18.3203 15.125V20.0148" stroke="#0092E3" stroke-width="0.816326" stroke-linecap="round" stroke-linejoin="round"/>
<path d="M16.1992 16.3516L20.4319 18.7924" stroke="#0092E3" stroke-width="0.816326" stroke-linecap="round" stroke-linejoin="round"/>
<path d="M16.1992 18.7924L20.4319 16.3516" stroke="#0092E3" stroke-width="0.816326" stroke-linecap="round" stroke-linejoin="round"/>
<path d="M4.02344 15.125V20.0148" stroke="#0092E3" stroke-width="0.816326" stroke-linecap="round" stroke-linejoin="round"/>
<path d="M1.9043 16.3516L6.13695 18.7924" stroke="#0092E3" stroke-width="0.816326" stroke-linecap="round" stroke-linejoin="round"/>
<path d="M1.9043 18.7924L6.13695 16.3516" stroke="#0092E3" stroke-width="0.816326" stroke-linecap="round" stroke-linejoin="round"/>
<path fill-rule="evenodd" clip-rule="evenodd" d="M16.0739 12.6413C18.6663 12.6413 20.7678 10.5398 20.7678 7.94743C20.7678 5.35507 18.6663 3.25355 16.0739 3.25355H15.2698C13.7701 1.48784 11.3527 0.802367 9.1493 1.51803C6.94594 2.2337 5.39271 4.20887 5.21677 6.51886H4.2331C2.54243 6.51886 1.17188 7.88941 1.17188 9.58008C1.17188 11.2708 2.54243 12.6413 4.2331 12.6413H16.0739Z" stroke="#B1B1B1" stroke-width="0.816326" stroke-linecap="round" stroke-linejoin="round"/>
<path d="M11.1699 14.3008V20.8314" stroke="#0092E3" stroke-width="0.816326" stroke-linecap="round" stroke-linejoin="round"/>
<path d="M8.3418 15.9336L13.9949 19.1989" stroke="#0092E3" stroke-width="0.816326" stroke-linecap="round" stroke-linejoin="round"/>
<path d="M8.3418 19.1989L13.9949 15.9336" stroke="#0092E3" stroke-width="0.816326" stroke-linecap="round" stroke-linejoin="round"/>
</svg>
