<svg width="22" height="20" viewBox="0 0 22 20" fill="none" xmlns="http://www.w3.org/2000/svg">
<path d="M9.96853 19.3353C9.85483 19.53 9.92046 19.7799 10.1151 19.8936C10.3098 20.0073 10.5597 19.9417 10.6734 19.747L9.96853 19.3353ZM13.4393 14.2024L13.7918 14.4083C13.8655 14.282 13.8661 14.126 13.7933 13.9992C13.7206 13.8724 13.5855 13.7942 13.4393 13.7942V14.2024ZM9.89648 14.2024L9.5439 13.9968C9.47028 14.123 9.46976 14.279 9.54256 14.4057C9.61535 14.5324 9.75034 14.6106 9.89648 14.6106V14.2024ZM13.3674 9.0611C13.481 8.86637 13.4152 8.61645 13.2205 8.50289C13.0258 8.38932 12.7758 8.45511 12.6623 8.64984L13.3674 9.0611ZM10.6734 19.747L13.7918 14.4083L13.0869 13.9965L9.96853 19.3353L10.6734 19.747ZM13.4393 13.7942H9.89648V14.6106H13.4393V13.7942ZM10.2491 14.408L13.3674 9.0611L12.6623 8.64984L9.5439 13.9968L10.2491 14.408Z" fill="#E21E22"/>
<path d="M12.9721 11.9733H16.07C18.6624 11.9733 20.7639 9.87182 20.7639 7.27946C20.7639 4.6871 18.6624 2.58558 16.07 2.58558H15.2659C13.7662 0.819874 11.3488 0.134398 9.14539 0.850065C6.94203 1.56573 5.3888 3.54091 5.21287 5.85089H4.22919C2.53853 5.85089 1.16797 7.22145 1.16797 8.91211C1.16797 10.6028 2.53853 11.9733 4.22919 11.9733H9.37205" stroke="#B1B1B1" stroke-width="0.816326" stroke-linejoin="round"/>
</svg>
