<svg width="36" height="36" viewBox="0 0 36 36" fill="none" xmlns="http://www.w3.org/2000/svg">
<path fill-rule="evenodd" clip-rule="evenodd" d="M23.4536 1.89362C21.7417 1.31418 19.9076 1 18 1C16.0922 1 14.2579 1.31425 12.5459 1.8938L13.6973 4.67362C15.0529 4.23626 16.4989 4 18 4C19.5009 4 20.9467 4.2362 22.3022 4.67345L23.4536 1.89362ZM24.3806 5.53522L25.532 2.75542C28.8724 4.40898 31.5914 7.1281 33.2449 10.4685L30.465 11.6199C29.1261 9.00927 26.9912 6.87423 24.3806 5.53522ZM21.5337 6.52874C20.4165 6.18502 19.2299 6 18 6C16.7699 6 15.5831 6.18508 14.4658 6.52891L15.621 9.31779C16.3788 9.11061 17.1765 9 18.0001 9C18.8234 9 19.6209 9.11055 20.3785 9.31761L21.5337 6.52874ZM22.457 10.1793L23.6121 7.39049C25.7372 8.51694 27.4834 10.2632 28.6098 12.3884L25.821 13.5434C25.0215 12.1434 23.8569 10.9788 22.457 10.1793ZM26.6823 20.3792C26.8895 19.6214 27.0001 18.8236 27.0001 18.0001C27.0001 17.1769 26.8896 16.3795 26.6826 15.6219L29.4714 14.4668C29.815 15.5838 30 16.7703 30 18C30 19.2301 29.8149 20.417 29.4711 21.5343L26.6823 20.3792ZM22.4568 25.821C23.8565 25.0216 25.021 23.8573 25.8205 22.4576L28.6092 23.6127C27.4828 25.7375 25.7368 27.4834 23.6119 28.6096L22.4568 25.821ZM15.6211 26.6824C16.3789 26.8895 17.1766 27.0001 18.0001 27.0001C18.8233 27.0001 19.6207 26.8896 20.3783 26.6826L21.5335 29.4713C20.4164 29.815 19.2298 30 18 30C16.77 30 15.5832 29.8149 14.466 29.4712L15.6211 26.6824ZM10.1795 22.4574C10.9789 23.8569 12.1432 25.0212 13.5427 25.8206L12.3876 28.6094C10.2629 27.483 8.51701 25.7372 7.39069 23.6125L10.1795 22.4574ZM9.31746 15.6222C9.11049 16.3797 9 17.177 9 18.0001C9 18.8235 9.11059 19.6212 9.31774 20.379L6.52887 21.5341C6.18507 20.4168 6 19.23 6 18C6 16.7704 6.18494 15.584 6.52852 14.4671L9.31746 15.6222ZM13.5426 10.1796C12.1428 10.9792 10.9783 12.1437 10.179 13.5437L7.39013 12.3886C8.5164 10.2635 10.2624 8.51725 12.3874 7.39075L13.5426 10.1796ZM11.6189 5.53547L10.4675 2.75567C7.12728 4.40929 4.40839 7.12839 2.75504 10.4687L5.53485 11.6201C6.87367 9.00955 9.00848 6.87454 11.6189 5.53547ZM4.6732 13.6986L1.89335 12.5472C1.31408 14.2588 1 16.0927 1 18C1 19.9077 1.31422 21.742 1.89373 23.4539L4.67357 22.3025C4.23624 20.947 4 19.5011 4 18C4 16.4993 4.23611 15.0538 4.6732 13.6986ZM5.53539 24.3809L2.75557 25.5323C4.409 28.8723 7.12774 31.591 10.4677 33.2444L11.6191 30.4646C9.00895 29.1258 6.87428 26.9911 5.53539 24.3809ZM13.6975 31.3265L12.5461 34.1063C14.258 34.6858 16.0923 35 18 35C19.9075 35 21.7416 34.6858 23.4534 34.1064L22.302 31.3266C20.9466 31.7638 19.5009 32 18 32C16.4989 32 15.0531 31.7638 13.6975 31.3265ZM24.3804 30.4649L25.5318 33.2447C28.8719 31.5913 31.5908 28.8725 33.2443 25.5325L30.4645 24.3811C29.1255 26.9914 26.9907 29.1261 24.3804 30.4649ZM31.3264 22.3028L34.1062 23.4541C34.6858 21.7421 35 19.9078 35 18C35 16.0927 34.6859 14.2587 34.1066 12.547L31.3267 13.6984C31.7639 15.0537 32 16.4993 32 18C32 19.5012 31.7637 20.9471 31.3264 22.3028Z" fill="#E21E22"/>
<path fill-rule="evenodd" clip-rule="evenodd" d="M18 17.0093V17.0081C19.6458 16.9904 20.9745 15.6507 20.9745 14.0007C20.9745 12.3507 19.6458 11.0111 18 10.9933V10.9932H17.9998L17.98 10.9932L17.9669 10.9932C17.9461 10.9932 17.9253 10.9934 17.9046 10.9938C14.0788 11.0447 10.9932 14.1619 10.9932 17.9998C10.9932 20.0711 11.892 21.9325 13.3208 23.2152C13.1829 22.7681 13.1086 22.293 13.1086 21.8006C13.1086 19.1539 15.2542 17.0083 17.9008 17.0083C17.934 17.0083 17.967 17.0086 18 17.0093ZM17.9669 15.0253C18.5328 15.0253 18.9915 14.5666 18.9915 14.0007C18.9915 13.4349 18.5328 12.9762 17.9669 12.9762C17.4011 12.9762 16.9424 13.4349 16.9424 14.0007C16.9424 14.5666 17.4011 15.0253 17.9669 15.0253Z" fill="#E21E22"/>
<path fill-rule="evenodd" clip-rule="evenodd" d="M15.0255 21.9924C15.0255 20.3424 16.3542 19.0028 18 18.9851V18.9836C18.033 18.9843 18.066 18.9846 18.0992 18.9846C20.7458 18.9846 22.8914 16.839 22.8914 14.1923C22.8914 13.6994 22.817 13.2239 22.6788 12.7763C24.1079 14.0591 25.0068 15.9206 25.0068 17.9921C25.0068 21.8022 21.9658 24.902 18.1785 24.9965C18.1303 24.9988 18.0818 25 18.0331 25C16.372 25 15.0255 23.6535 15.0255 21.9924ZM18.0331 20.9679C17.4672 20.9679 17.0085 21.4266 17.0085 21.9924C17.0085 22.5583 17.4672 23.017 18.0331 23.017C18.5989 23.017 19.0576 22.5583 19.0576 21.9924C19.0576 21.4266 18.5989 20.9679 18.0331 20.9679Z" fill="#E21E22"/>
</svg>
