<svg width="36" height="36" viewBox="0 0 36 36" fill="none" xmlns="http://www.w3.org/2000/svg">
<rect x="0.5" y="0.5" width="35" height="35" rx="17.5" fill="white" stroke="#F2F2F2"/>
<path d="M27 14H20.69L21.64 9.43L21.67 9.11C21.67 8.7 21.5 8.32 21.23 8.05L20.17 7L13.59 13.59C13.22 13.95 13 14.45 13 15V25C13 26.1 13.9 27 15 27H24C24.83 27 25.54 26.5 25.84 25.78L28.86 18.73C28.95 18.5 29 18.26 29 18V16C29 14.9 28.1 14 27 14Z" fill="#888888"/>
<rect x="7" y="15" width="4" height="12" fill="#888888"/>
</svg>
