<svg width="170" height="48" viewBox="0 0 170 48" fill="none" xmlns="http://www.w3.org/2000/svg">
<path fill-rule="evenodd" clip-rule="evenodd" d="M23.9952 45.9988C28.3122 45.9988 32.3387 44.7549 35.736 42.6059V45.9988H46.0004V2H35.736V5.39295C32.3387 3.24392 28.3122 2 23.9952 2C11.8476 2 2 11.8495 2 23.9994C2 36.1493 11.8476 45.9988 23.9952 45.9988ZM23.9856 37.1897C31.2742 37.1897 37.1828 31.28 37.1828 23.9901C37.1828 16.7001 31.2742 10.7904 23.9856 10.7904C16.6971 10.7904 10.7885 16.7001 10.7885 23.9901C10.7885 31.28 16.6971 37.1897 23.9856 37.1897Z" fill="#E21E22"/>
<ellipse cx="23.997" cy="24.0022" rx="6.59857" ry="6.59983" fill="#2B2B2B"/>
<path fill-rule="evenodd" clip-rule="evenodd" d="M70.4715 24.2522C70.4715 23.755 70.4715 23.3001 70.4715 22.7787C68.2305 24.2662 65.8333 24.7965 63.2413 24.2331C60.6411 23.6681 58.6332 22.226 57.2873 19.9374C55.2379 16.4536 55.6711 12.1319 58.3325 9.1824C59.8795 7.46804 61.8098 6.45054 64.1113 6.18578C66.3959 5.92309 68.4947 6.46082 70.4687 7.79244C70.4687 7.39512 70.4816 7.06381 70.4642 6.7338C70.4524 6.5113 70.5343 6.4554 70.7467 6.45727C71.8071 6.46736 72.8676 6.46007 73.9283 6.46418C74.3347 6.46568 74.3334 6.37351 74.334 6.88319C74.3347 7.82479 74.3342 8.76638 74.3342 9.70816C74.3342 14.4436 74.3314 19.1791 74.3415 23.9145C74.342 24.2006 74.2639 24.2642 73.9907 24.2599C72.9214 24.2436 71.8516 24.2528 70.7819 24.252C70.6918 24.2522 70.6018 24.2522 70.4715 24.2522ZM59.8763 15.2856C59.915 18.2964 62.2845 20.6105 65.2905 20.5743C68.1742 20.5391 70.5151 18.1044 70.4726 15.1846C70.4302 12.2803 68.0085 9.9501 65.0678 9.9845C62.2197 10.018 59.8397 12.4482 59.8763 15.2856Z" fill="#E01F28"/>
<path fill-rule="evenodd" clip-rule="evenodd" d="M104.125 10.4237C103.041 11.0487 101.972 11.6622 100.908 12.2822C100.777 12.3585 100.716 12.3136 100.642 12.2089C99.894 11.1578 98.8919 10.4811 97.6468 10.1402C95.4789 9.5468 93.0189 10.5063 91.8344 12.4211C91.1239 13.5695 90.8255 14.8213 91.0826 16.1409C91.4969 18.2696 92.7483 19.7114 94.8471 20.3476C97.2459 21.0751 99.7549 19.9499 100.923 17.8757C100.971 17.7904 101.01 17.7005 101.071 17.5771C99.2213 17.5771 97.408 17.5771 95.5772 17.5771C95.5772 16.2842 95.5772 15.0172 95.5772 13.7324C98.8715 13.7324 102.165 13.7324 105.485 13.7324C105.485 17.0416 105.485 20.3284 105.485 23.6367C104.38 23.6367 103.279 23.6367 102.149 23.6367C102.149 23.2463 102.149 22.8587 102.149 22.4221C99.1641 24.6185 95.9753 25.1143 92.5873 23.6789C90.3474 22.7297 88.7469 21.0615 87.8139 18.815C85.9666 14.3681 87.7834 9.23661 92.2164 7.01931C96.3361 4.95868 101.544 6.26711 104.125 10.4237Z" fill="#2B2A29"/>
<path fill-rule="evenodd" clip-rule="evenodd" d="M126.332 18.6715C126.879 18.2796 127.491 18.341 128.054 18.225C128.741 18.0835 129.44 17.9999 130.162 17.887C130.221 18.1906 130.271 18.4922 130.339 18.7895C130.674 20.2475 131.709 21.1928 133.195 21.3985C134.258 21.5457 135.313 21.5432 136.329 21.1495C136.921 20.9204 137.377 20.5154 137.645 19.9328C137.997 19.1685 137.753 18.4449 136.981 18.1127C136.38 17.8541 135.747 17.666 135.119 17.4788C133.563 17.0151 131.992 16.6021 130.447 16.1074C129.154 15.6934 128.106 14.9287 127.464 13.6853C126.4 11.6232 126.961 9.00728 128.776 7.53693C129.812 6.69761 131.029 6.30104 132.317 6.1165C134.015 5.87343 135.692 6.00357 137.317 6.57439C138.526 6.99882 139.581 7.64145 140.235 8.79974C140.741 9.69572 140.981 10.671 141.117 11.7203C139.864 11.8954 138.629 12.068 137.367 12.2443C137.31 11.9467 137.273 11.6608 137.2 11.3835C136.903 10.2564 136.149 9.6112 135.022 9.41301C133.955 9.22511 132.891 9.2711 131.856 9.61943C131.457 9.75386 131.137 10.0136 130.904 10.3683C130.539 10.9215 130.594 11.5439 131.106 11.9663C131.38 12.1929 131.713 12.3889 132.052 12.4915C133.552 12.9451 135.068 13.3495 136.572 13.7925C137.532 14.0754 138.504 14.3463 139.373 14.8638C141.202 15.9537 141.943 17.668 141.676 19.6982C141.384 21.9288 140.067 23.4057 138.041 24.2691C136.26 25.028 134.396 25.1292 132.498 24.8751C131.614 24.7569 130.758 24.5473 129.952 24.1622C128.298 23.3722 127.299 22.0282 126.749 20.3219C126.576 19.787 126.471 19.2294 126.332 18.6715Z" fill="#2B2A28"/>
<path fill-rule="evenodd" clip-rule="evenodd" d="M107.292 6.46704C107.404 6.46704 107.501 6.46704 107.599 6.46704C108.678 6.46704 109.757 6.47433 110.836 6.46105C111.082 6.45806 111.159 6.51322 111.158 6.77535C111.148 9.89293 111.15 13.0109 111.152 16.1285C111.154 18.162 112.393 19.7909 114.346 20.3374C116.628 20.9759 119.133 19.4396 119.588 17.1131C119.649 16.8016 119.681 16.479 119.681 16.1615C119.688 13.0163 119.685 9.87105 119.686 6.7258C119.686 6.654 119.692 6.58221 119.697 6.48816C119.784 6.48049 119.862 6.4676 119.94 6.4676C121.056 6.4661 122.171 6.47227 123.287 6.46142C123.507 6.45899 123.562 6.52369 123.561 6.7402C123.556 12.4911 123.557 18.2422 123.557 23.9931C123.557 24.0731 123.55 24.1529 123.545 24.2475C122.259 24.2475 120.993 24.2475 119.689 24.2475C119.689 23.8908 119.689 23.5421 119.689 23.1721C119.225 23.3892 118.808 23.6111 118.372 23.7839C114.111 25.4718 109.197 23.1925 107.729 18.8622C107.423 17.9613 107.277 17.0383 107.276 16.0914C107.272 12.9643 107.274 9.83758 107.274 6.71066C107.275 6.64017 107.284 6.5695 107.292 6.46704Z" fill="#2C2B29"/>
<path fill-rule="evenodd" clip-rule="evenodd" d="M76.7344 24.271C76.7344 18.3302 76.7344 12.4018 76.7344 6.45535C76.7981 6.44974 76.8585 6.43946 76.9189 6.43946C78.0525 6.43871 79.1861 6.44488 80.3196 6.43366C80.537 6.43141 80.6064 6.48676 80.5987 6.70738C80.5828 7.17051 80.594 7.63421 80.594 8.12576C83.5293 6.33344 86.5282 5.85142 89.6854 7.43097C89.0733 8.0117 88.4839 8.54065 87.9323 9.10568C87.5896 9.45719 87.2929 9.856 86.9982 10.2501C86.8883 10.3978 86.7866 10.4395 86.6119 10.4158C84.0437 10.0675 81.6562 11.5373 80.8599 13.9931C80.6967 14.4965 80.6094 15.0465 80.6047 15.576C80.5804 18.3823 80.5912 21.1891 80.5984 23.9954C80.5989 24.2198 80.5432 24.2905 80.3093 24.2877C79.185 24.2751 78.0606 24.2822 76.9359 24.2817C76.8744 24.2817 76.8125 24.2753 76.7344 24.271Z" fill="#2B2A28"/>
<path fill-rule="evenodd" clip-rule="evenodd" d="M62.422 15.3037C62.4089 13.7703 63.6094 12.5498 65.1488 12.5314C66.6427 12.5137 67.893 13.7357 67.9027 15.2229C67.913 16.7791 66.7102 18.0153 65.1748 18.0262C63.6655 18.037 62.4351 16.8202 62.422 15.3037Z" fill="#2C2B29"/>
<path fill-rule="evenodd" clip-rule="evenodd" d="M110.523 34.3835C111.128 35.0958 111.705 35.7758 112.282 36.4554C112.768 37.0265 113.257 37.5938 113.736 38.1712C113.816 38.2681 113.892 38.4058 113.893 38.525C113.904 39.8193 113.9 41.1139 113.9 42.4347C113.44 42.4347 112.994 42.4347 112.519 42.4347C112.508 42.2344 112.497 42.0344 112.484 41.7881C111.623 42.1671 110.778 42.2391 109.966 41.7284C109.174 41.2298 108.79 40.4973 108.798 39.5556C108.77 39.5387 108.742 39.5217 108.714 39.5052C108.468 39.791 108.222 40.0772 107.95 40.3932C108.305 40.5723 108.503 40.7826 108.431 41.125C108.363 41.4491 108.128 41.6194 107.821 41.6964C107.485 41.7805 107.191 41.7149 106.961 41.4373C106.649 41.0593 106.607 40.6378 106.766 40.189C106.954 39.6604 107.271 39.2989 108.073 38.6742C106.539 37.2144 106.708 35.1595 108.465 33.9162C110.169 32.7104 112.749 32.7341 114.378 33.9706C115.648 34.9339 116.136 36.4268 115.664 37.9446C115.592 38.1763 115.46 38.3891 115.35 38.6245C114.917 38.4463 114.532 38.288 114.114 38.1159C114.517 37.1587 114.558 36.2356 113.857 35.3957C112.989 34.3563 111.817 34.2738 110.523 34.3835ZM111.474 38.2871C111.377 38.3354 111.292 38.3659 111.221 38.4147C110.979 38.5789 110.713 38.7216 110.508 38.9246C110.134 39.2938 110.079 39.8588 110.328 40.2715C110.584 40.6955 111.116 40.8709 111.678 40.7166C112.248 40.5593 112.5 40.2422 112.505 39.672C112.507 39.4 112.526 39.1251 112.498 38.8563C112.481 38.7016 112.42 38.525 112.32 38.4098C111.673 37.6661 111.009 36.9359 110.35 36.2019C109.997 35.8093 109.643 35.418 109.293 35.031C108.638 35.3906 108.399 35.9268 108.446 36.609C108.493 37.282 108.85 37.7381 109.432 38.0162C109.638 37.8673 109.817 37.7063 110.024 37.595C110.578 37.2962 110.632 37.3136 111.04 37.783C111.18 37.9442 111.319 38.107 111.474 38.2871Z" fill="#2C2B2A"/>
<path fill-rule="evenodd" clip-rule="evenodd" d="M105.625 41.9043C105.407 42.3014 105.222 42.6385 105.022 43.0016C104.166 42.7319 103.314 42.464 102.463 42.1954C101.046 41.7482 99.6281 41.3016 98.2113 40.853C97.8696 40.7447 97.8108 40.4759 98.077 40.2392C98.3463 39.9996 98.6198 39.7652 98.9253 39.499C98.2813 39.3168 97.7594 39.0157 97.3463 38.5436C96.3977 37.4589 96.4096 35.7891 97.3891 34.6007C98.3407 33.446 99.589 32.9611 101.064 33.0346C102.049 33.0831 102.974 33.3055 103.723 34.0947C103.723 33.7901 103.723 33.5271 103.723 33.2346C104.198 33.2346 104.644 33.2346 105.13 33.2346C105.13 33.3528 105.13 33.4748 105.13 33.5968C105.13 36.1304 105.135 38.6647 105.126 41.1982C105.125 41.5488 105.105 41.872 105.625 41.9043ZM103.742 41.2408C103.742 39.7973 103.699 38.3991 103.76 37.0053C103.79 36.3044 103.53 35.81 103.063 35.3628C102.964 35.2687 102.867 35.1729 102.764 35.0844C101.549 34.0438 99.8047 34.1142 98.7324 35.2461C98.219 35.7879 97.9932 36.4336 98.1974 37.154C98.4018 37.8752 98.994 38.2023 99.6848 38.3433C99.8351 38.374 100.045 38.3236 100.171 38.2323C100.837 37.746 101.486 37.2349 102.092 36.7695C102.427 37.0762 102.733 37.3578 103.054 37.6522C102.137 38.4718 101.234 39.2782 100.293 40.1198C101.457 40.498 102.572 40.8607 103.742 41.2408Z" fill="#2B2A29"/>
<path fill-rule="evenodd" clip-rule="evenodd" d="M91.7746 42.1013C91.3824 42.2902 91.0367 42.4568 90.6554 42.6403C90.4594 42.3653 90.2633 42.0925 90.0697 41.817C89.7891 41.4176 89.5231 41.0073 89.2259 40.6202C89.0756 40.4246 89.1142 40.2866 89.2045 40.077C89.468 39.4653 89.76 38.851 89.9071 38.2074C90.2043 36.908 89.6011 35.6081 88.4541 34.8635C87.348 34.1456 85.9705 34.1823 84.8699 34.9557C84.1402 35.4692 83.5935 36.0874 83.643 37.0548C83.6727 37.6347 83.889 38.0522 84.2998 38.3241C85.2962 37.4373 86.3817 37.2063 87.3835 37.7293C88.455 38.2883 88.8853 39.2241 88.824 40.4081C88.7761 41.3253 88.1228 42.1785 87.2199 42.5037C85.7795 43.0223 83.971 42.1338 83.6773 40.7378C83.6063 40.4009 83.6622 40.038 83.6441 39.6881C83.6392 39.5942 83.6028 39.4555 83.5354 39.4174C82.2199 38.6707 81.8919 36.6455 82.669 35.2582C83.5521 33.6818 85.4986 32.7934 87.4576 33.0694C89.2891 33.3271 90.865 34.7582 91.2439 36.5258C91.5128 37.7793 91.2776 38.9644 90.6928 40.0851C90.5802 40.3008 90.5983 40.4436 90.7354 40.629C91.0843 41.103 91.4154 41.5902 91.7746 42.1013ZM86.2072 41.3184C86.8821 41.3253 87.4249 40.8198 87.433 40.1769C87.4414 39.5055 86.93 38.9683 86.2781 38.963C85.592 38.9581 85.0149 39.5197 85.0068 40.2004C84.9996 40.8272 85.5193 41.3114 86.2072 41.3184Z" fill="#2C2B29"/>
<path fill-rule="evenodd" clip-rule="evenodd" d="M63.109 34.0792C63.109 33.7756 63.109 33.5091 63.109 33.2249C63.5713 33.2249 64.009 33.2249 64.4876 33.2249C64.4876 33.3595 64.4876 33.48 64.4876 33.6004C64.4879 36.1 64.4888 38.5997 64.4879 41.0994C64.4879 41.4665 64.3747 41.8888 64.983 41.9083C64.7692 42.2943 64.5833 42.6295 64.3796 42.9968C63.7233 42.7945 63.0664 42.5954 62.4122 42.389C60.8003 41.8807 59.1895 41.3689 57.5788 40.8577C57.2061 40.7395 57.1557 40.4921 57.4517 40.2253C57.71 39.9925 57.974 39.7655 58.203 39.5646C57.7721 39.299 57.3048 39.0974 56.9454 38.7751C55.765 37.7159 55.6887 35.9098 56.7236 34.6201C58.0307 32.9912 60.6049 32.5052 62.418 33.5551C62.6499 33.6894 62.8495 33.8801 63.109 34.0792ZM63.1025 41.2441C63.1025 39.5887 63.1046 37.9887 63.0976 36.3891C63.0971 36.2843 63.0551 36.1549 62.9861 36.0798C62.6048 35.6654 62.2565 35.1991 61.8091 34.8705C60.6532 34.0221 59.0441 34.2226 58.0634 35.2688C57.2461 36.1402 57.0583 37.8119 58.9337 38.33C59.1814 38.3985 59.3761 38.3825 59.5894 38.2099C60.2141 37.7036 60.8588 37.2227 61.4473 36.7694C61.7779 37.0668 62.0869 37.3453 62.4189 37.6446C61.4878 38.4775 60.5812 39.2883 59.6502 40.1208C60.8182 40.5009 61.9364 40.8645 63.1025 41.2441Z" fill="#2B2B29"/>
<path fill-rule="evenodd" clip-rule="evenodd" d="M67.877 38.0691C68.3085 37.4123 68.8691 37.0699 69.5491 36.8508C69.7717 37.2028 69.9933 37.5536 70.2066 37.8914C69.8823 38.1458 69.5377 38.3558 69.2745 38.6407C69.0424 38.8914 68.8472 39.2064 68.7327 39.5275C68.5568 40.0228 68.6888 40.4886 69.0659 40.8727C69.521 41.3367 70.0744 41.417 70.6699 41.2588C71.5304 41.03 71.8694 40.4398 71.635 39.6258C71.0195 39.804 70.5454 39.5674 70.399 39.0094C70.2517 38.4483 70.5567 37.9732 71.1657 37.8145C71.7138 37.6716 72.2423 37.8584 72.5938 38.3637C73.601 39.8109 73.2846 42.0945 70.8502 42.591C69.469 42.8726 68.1307 42.2553 67.5232 41.1371C67.2553 40.6441 67.2193 40.1202 67.3004 39.5818C67.328 39.3985 67.2857 39.3098 67.1129 39.2152C66.4596 38.857 66.1963 38.225 66.0604 37.5438C65.7447 35.961 66.3318 34.744 67.6328 33.8416C69.4501 32.5808 72.7102 32.5803 74.288 35.1357C75.0496 36.3692 75.0477 37.6665 74.3856 38.9947C73.9497 38.8261 73.5324 38.6646 73.0961 38.4962C73.1208 38.4181 73.1324 38.3521 73.161 38.2952C73.9867 36.638 72.969 35.1747 71.7456 34.619C70.4831 34.0451 68.8054 34.3806 67.8986 35.4134C67.3243 36.0671 67.2586 36.8194 67.5624 37.6119C67.6196 37.7613 67.7464 37.8835 67.877 38.0691Z" fill="#2C2B2A"/>
<path fill-rule="evenodd" clip-rule="evenodd" d="M126.907 37.6474C126.907 39.2449 126.907 40.8324 126.907 42.4472C126.45 42.4472 125.994 42.4472 125.506 42.4472C125.506 41.3006 125.506 40.1582 125.506 38.9775C124.481 39.116 123.681 39.5544 123.149 40.4054C122.893 40.8164 123.01 41.0313 123.462 41.1547C123.787 41.2432 123.996 41.4553 124.058 41.7871C124.116 42.1049 123.96 42.3338 123.708 42.508C123.239 42.8321 122.703 42.7936 122.27 42.407C121.47 41.6928 121.356 40.424 122.005 39.4517C122.068 39.3583 122.136 39.2691 122.2 39.181C121.878 39.0291 121.544 38.9148 121.257 38.7271C119.887 37.8323 119.61 36.0418 120.668 34.7765C121.819 33.4004 123.366 32.9655 125.095 33.044C126.183 33.0935 127.162 33.4422 127.993 34.1638C129.297 35.295 129.484 37.2332 128.409 38.639C128.012 38.4434 127.61 38.2461 127.276 38.0819C127.419 37.6221 127.633 37.2039 127.667 36.7715C127.74 35.8368 127.056 34.9396 125.984 34.5813C124.56 34.1053 123.224 34.3188 122.062 35.3108C121.87 35.4751 121.714 35.7044 121.598 35.9326C121.264 36.5887 121.397 37.1735 121.973 37.6256C122.167 37.778 122.389 37.9011 122.612 38.0096C122.956 38.1771 123.271 38.2301 123.666 38.0184C124.063 37.8059 124.545 37.7043 125 37.6618C125.619 37.6037 126.246 37.6474 126.907 37.6474Z" fill="#2C2C2A"/>
<path fill-rule="evenodd" clip-rule="evenodd" d="M77.6995 33.2387C77.6995 34.4734 77.6951 35.6654 77.7014 36.8578C77.7046 37.4597 78.1846 37.8698 78.7232 37.7488C79.0935 37.6654 79.3786 37.2523 79.3802 36.779C79.3839 35.7226 79.3818 34.6657 79.3823 33.6086C79.3823 33.4969 79.3823 33.3844 79.3823 33.2455C79.8469 33.2455 80.293 33.2455 80.7544 33.2455C80.7544 36.3102 80.7544 39.3619 80.7544 42.433C80.3051 42.433 79.8667 42.433 79.3916 42.433C79.3916 41.2626 79.3916 40.0867 79.3916 38.9265C79.0405 38.9829 78.7236 39.0766 78.4067 39.0766C77.2516 39.0772 76.3359 38.1484 76.3308 36.9953C76.3257 35.8362 76.3292 34.6771 76.3304 33.518C76.3304 33.4297 76.3397 33.3417 76.3452 33.2383C76.7994 33.2387 77.2383 33.2387 77.6995 33.2387Z" fill="#2B2B29"/>
<path fill-rule="evenodd" clip-rule="evenodd" d="M118.554 42.4559C118.145 42.4559 117.771 42.4566 117.397 42.4545C117.366 42.4543 117.336 42.4366 117.289 42.422C117.289 39.3726 117.289 36.3244 117.289 33.25C117.704 33.25 118.117 33.25 118.553 33.25C118.554 36.3087 118.554 39.3652 118.554 42.4559Z" fill="#2E2E2D"/>
<path fill-rule="evenodd" clip-rule="evenodd" d="M137.131 41.2337C137.134 41.9108 136.602 42.4521 135.936 42.4493C135.263 42.4463 134.727 41.9091 134.73 41.2419C134.734 40.5435 135.233 40.043 135.928 40.0391C136.621 40.0351 137.129 40.5398 137.131 41.2337Z" fill="#2C2C2A"/>
<path fill-rule="evenodd" clip-rule="evenodd" d="M133.282 41.2219C133.286 41.917 132.783 42.4363 132.093 42.4479C131.425 42.4595 130.882 41.9161 130.883 41.2377C130.884 40.5444 131.395 40.0384 132.094 40.0391C132.773 40.0398 133.278 40.5425 133.282 41.2219Z" fill="#2C2C2A"/>
<path fill-rule="evenodd" clip-rule="evenodd" d="M140.972 41.2604C140.966 41.9323 140.428 42.4602 139.753 42.4567C139.098 42.4534 138.556 41.8903 138.567 41.223C138.578 40.5372 139.094 40.0397 139.79 40.043C140.476 40.0462 140.978 40.5632 140.972 41.2604Z" fill="#2C2B2A"/>
</svg>
