<svg width="12" height="12" viewBox="0 0 12 12" fill="none" xmlns="http://www.w3.org/2000/svg">
<mask id="path-1-inside-1" fill="white">
<path fill-rule="evenodd" clip-rule="evenodd" d="M7.5 4L7.70755 3L8.05 1.35L8.07 1.16C8.07 1.12838 8.0708 1.09821 8.07157 1.06915C8.07689 0.868413 8.0808 0.720914 7.81 0.52L6.86 0L3.35 3.87C3.13 4.09 3 4.39 3 4.73V10.79C3 11.45 3.52 12 4.17 12H9C9.94 12 10.52 11.25 10.75 10.51L11.92 6.99C11.97 6.85 12 6.7 12 6.55V5.39L11.99 5.38L12 5.33C12 4.67 11.36 4 10.71 4H8.52131H7.5ZM6.52087 3.79678L7.04147 1.28842L4.09072 4.54181L4.07434 4.55987L4.05711 4.57711C4.03873 4.59548 4.02555 4.61552 4.01652 4.63735C4.00762 4.65886 4 4.68874 4 4.73V10.79C4 10.8549 4.02529 10.9111 4.06256 10.9499C4.09838 10.9872 4.13566 11 4.17 11H9C9.17851 11 9.31793 10.9369 9.4482 10.8116C9.59283 10.6726 9.71879 10.4586 9.79506 10.2132L9.79796 10.2039L9.80105 10.1946L10.971 6.67458L10.9745 6.66408L10.9783 6.65366C10.9958 6.60468 11 6.56868 11 6.55V5.80422L10.9045 5.70868L10.9896 5.28314C10.9867 5.27473 10.9829 5.26525 10.9782 5.25472C10.9578 5.20956 10.9244 5.15875 10.8792 5.1119C10.8338 5.06493 10.7876 5.03323 10.7509 5.01548C10.7251 5.00305 10.7106 5.00045 10.7076 5H7.5H6.27114L6.52087 3.79678ZM2 4H0V12H2V4Z"/>
</mask>
<path d="M7.70755 3L8.68668 3.20322V3.20322L7.70755 3ZM7.5 4V5H6.27114L6.52087 3.79678L7.5 4ZM8.05 1.35L9.04451 1.45468L9.03928 1.50433L9.02913 1.55322L8.05 1.35ZM8.07 1.16H9.07V1.21249L9.06451 1.26468L8.07 1.16ZM8.07157 1.06915L9.07122 1.09564V1.09564L8.07157 1.06915ZM7.81 0.52L8.29015 -0.357189L8.35055 -0.324127L8.40585 -0.283098L7.81 0.52ZM6.86 0L6.11928 -0.671815L6.64878 -1.25562L7.34015 -0.877189L6.86 0ZM3.35 3.87L4.09072 4.54181L4.07434 4.55987L4.05711 4.57711L3.35 3.87ZM10.75 10.51L9.79506 10.2132L9.79796 10.2039L9.80105 10.1946L10.75 10.51ZM11.92 6.99L10.971 6.67458L10.9745 6.66408L10.9783 6.65366L11.92 6.99ZM12 5.39L12.7071 4.68288L13 4.97578V5.39H12ZM11.99 5.38L11.2829 6.08712L10.9045 5.70868L11.0094 5.18388L11.99 5.38ZM12 5.33H13V5.42902L12.9806 5.52612L12 5.33ZM7.04147 1.28842L6.30075 0.616609L8.76645 -2.10198L8.0206 1.49164L7.04147 1.28842ZM6.52087 3.79678L7.5 4L7.5 4L6.52087 3.79678ZM4.09072 4.54181L4.83144 5.21363L4.83144 5.21363L4.09072 4.54181ZM4.07434 4.55987L4.81506 5.23169L4.79868 5.24974L4.78145 5.26698L4.07434 4.55987ZM4.01652 4.63735L3.0925 4.25501L3.0925 4.25499L4.01652 4.63735ZM4.06256 10.9499L4.78386 10.2573L4.78387 10.2573L4.06256 10.9499ZM9.4482 10.8116L8.75516 10.0907L8.75516 10.0907L9.4482 10.8116ZM9.79506 10.2132L8.84012 9.91639L8.84013 9.91637L9.79506 10.2132ZM9.79796 10.2039L8.84303 9.90703L8.84593 9.89771L8.84901 9.88844L9.79796 10.2039ZM9.80105 10.1946L8.85209 9.87917L8.8521 9.87916L9.80105 10.1946ZM10.971 6.67458L11.92 6.98999L11.92 6.99L10.971 6.67458ZM10.9745 6.66408L10.0256 6.34867L10.0291 6.33817L10.0328 6.32774L10.9745 6.66408ZM10.9783 6.65366L11.92 6.99L11.92 6.99001L10.9783 6.65366ZM11 5.80422L11.7071 5.09711L12 5.39V5.80422H11ZM10.9045 5.70868L10.1974 6.4158L9.81892 6.03737L9.92388 5.51257L10.9045 5.70868ZM10.9896 5.28314L11.9345 4.95599L12.0234 5.21278L11.9701 5.47925L10.9896 5.28314ZM10.9782 5.25472L10.0666 5.6657L10.0665 5.6657L10.9782 5.25472ZM10.8792 5.1119L11.5987 4.4175L11.5988 4.4175L10.8792 5.1119ZM10.7509 5.01548L11.1858 4.115L11.1858 4.115L10.7509 5.01548ZM10.7076 5V4H10.7827L10.8569 4.0112L10.7076 5ZM6.27114 5V6H5.04228L5.29201 4.79678L6.27114 5ZM0 4H-1V3H0V4ZM2 4V3H3V4H2ZM0 12V13H-1V12H0ZM2 12H3V13H2V12ZM8.68668 3.20322L8.47913 4.20322L6.52087 3.79678L6.72841 2.79678L8.68668 3.20322ZM9.02913 1.55322L8.68668 3.20322L6.72841 2.79678L7.07087 1.14678L9.02913 1.55322ZM9.06451 1.26468L9.04451 1.45468L7.05549 1.24532L7.07549 1.05532L9.06451 1.26468ZM9.07122 1.09564C9.07041 1.12632 9.07 1.14364 9.07 1.16H7.07C7.07 1.11313 7.07119 1.0701 7.07192 1.04266L9.07122 1.09564ZM8.40585 -0.283098C8.63566 -0.11259 8.86032 0.118128 8.98223 0.447749C9.09227 0.74525 9.073 1.02859 9.07122 1.09564L7.07192 1.04266C7.07352 0.982436 7.07264 0.984716 7.07339 0.995711C7.07489 1.01748 7.08094 1.07265 7.10642 1.14153C7.13272 1.21262 7.16798 1.26688 7.19722 1.30202C7.22292 1.33289 7.23573 1.33911 7.21415 1.3231L8.40585 -0.283098ZM7.34015 -0.877189L8.29015 -0.357189L7.32985 1.39719L6.37985 0.877189L7.34015 -0.877189ZM2.60928 3.19818L6.11928 -0.671815L7.60072 0.671815L4.09072 4.54181L2.60928 3.19818ZM2 4.73C2 4.1253 2.23499 3.5708 2.64289 3.16289L4.05711 4.57711C4.03873 4.59549 4.02555 4.61552 4.01652 4.63735C4.00762 4.65886 4 4.68874 4 4.73H2ZM2 10.79V4.73H4V10.79H2ZM4.17 13C2.92985 13 2 11.9636 2 10.79H4C4 10.8549 4.02529 10.9111 4.06256 10.9499C4.09838 10.9872 4.13566 11 4.17 11V13ZM9 13H4.17V11H9V13ZM11.7049 10.8068C11.4149 11.7401 10.575 13 9 13V11C9.17851 11 9.31793 10.9369 9.4482 10.8116C9.59283 10.6726 9.71879 10.4586 9.79506 10.2132L11.7049 10.8068ZM12.869 7.30542L11.699 10.8254L9.80105 10.1946L10.971 6.67458L12.869 7.30542ZM13 6.55C13 6.83132 12.9442 7.09532 12.8617 7.32634L10.9783 6.65366C10.9958 6.60468 11 6.56868 11 6.55H13ZM13 5.39V6.55H11V5.39H13ZM12.6971 4.67288L12.7071 4.68288L11.2929 6.09712L11.2829 6.08712L12.6971 4.67288ZM12.9806 5.52612L12.9706 5.57612L11.0094 5.18388L11.0194 5.13388L12.9806 5.52612ZM10.71 3C11.3724 3 11.94 3.33103 12.3183 3.7231C12.6979 4.11639 13 4.68665 13 5.33H11C11 5.32598 10.9986 5.29998 10.9782 5.25472C10.9578 5.20956 10.9244 5.15875 10.8792 5.1119C10.8338 5.06493 10.7876 5.03323 10.7509 5.01548C10.7144 4.99784 10.7004 5 10.71 5V3ZM8.52131 3H10.71V5H8.52131V3ZM7.5 3H8.52131V5H7.5V3ZM8.0206 1.49164L7.5 4L5.54173 3.59357L6.06234 1.08521L8.0206 1.49164ZM3.35 3.87L6.30075 0.616609L7.78219 1.96024L4.83144 5.21363L3.35 3.87ZM3.33363 3.88805L3.35 3.87L4.83144 5.21363L4.81506 5.23169L3.33363 3.88805ZM3.35 3.87L3.36724 3.85276L4.78145 5.26698L4.76421 5.28421L3.35 3.87ZM3.0925 4.25499C3.15244 4.11014 3.23989 3.98011 3.35 3.87L4.76421 5.28421C4.83757 5.21086 4.89866 5.12091 4.94053 5.01971L3.0925 4.25499ZM3 4.73C3 4.55985 3.03256 4.39987 3.0925 4.25501L4.94054 5.0197C4.98267 4.91786 5 4.81763 5 4.73H3ZM3 10.79V4.73H5V10.79H3ZM3.34125 11.6425C3.12877 11.4212 3 11.1183 3 10.79H5C5 10.5915 4.92181 10.4009 4.78386 10.2573L3.34125 11.6425ZM4.17 12C3.85293 12 3.55826 11.8685 3.34124 11.6425L4.78387 10.2573C4.71989 10.1906 4.63104 10.1221 4.51557 10.0719C4.39935 10.0213 4.28045 10 4.17 10V12ZM9 12H4.17V10H9V12ZM10.1413 11.5325C9.84769 11.8147 9.46714 12 9 12V10C8.96617 10 8.91032 10.0071 8.84866 10.0335C8.78993 10.0586 8.75874 10.0873 8.75516 10.0907L10.1413 11.5325ZM10.75 10.51C10.6348 10.8805 10.4322 11.2528 10.1412 11.5325L8.75516 10.0907C8.74979 10.0959 8.76241 10.0846 8.78299 10.0493C8.80269 10.0154 8.82344 9.97008 8.84012 9.91639L10.75 10.51ZM10.7529 10.5007L10.75 10.51L8.84013 9.91637L8.84303 9.90703L10.7529 10.5007ZM10.75 10.51L10.7469 10.5193L8.84901 9.88844L8.85209 9.87917L10.75 10.51ZM11.92 6.99L10.75 10.51L8.8521 9.87916L10.0221 6.35916L11.92 6.99ZM11.9235 6.97949L11.92 6.98999L10.0221 6.35917L10.0256 6.34867L11.9235 6.97949ZM11.92 6.99001L11.9163 7.00043L10.0328 6.32774L10.0365 6.31732L11.92 6.99001ZM12 6.55C12 6.69957 11.9702 6.84953 11.92 6.99L10.0365 6.31733C10.0279 6.34157 10.0193 6.37158 10.0126 6.40752C10.0063 6.44096 10 6.48906 10 6.55H12ZM12 5.80422V6.55H10V5.80422H12ZM11.6116 5.00157L11.7071 5.09711L10.2929 6.51134L10.1974 6.4158L11.6116 5.00157ZM11.9701 5.47925L11.885 5.9048L9.92388 5.51257L10.009 5.08702L11.9701 5.47925ZM11.8898 4.84375C11.9067 4.88108 11.9216 4.91852 11.9345 4.95599L10.0446 5.61029C10.0517 5.63094 10.0592 5.64941 10.0666 5.6657L11.8898 4.84375ZM11.5988 4.4175C11.7195 4.5426 11.8197 4.68824 11.8898 4.84375L10.0665 5.6657C10.0824 5.70082 10.0986 5.72803 10.1127 5.74867C10.1272 5.76978 10.1427 5.78885 10.1596 5.8063L11.5988 4.4175ZM11.1858 4.115C11.337 4.18803 11.478 4.29233 11.5987 4.4175L10.1596 5.80631C10.1765 5.8238 10.1963 5.84144 10.2199 5.85877C10.2427 5.87547 10.2742 5.89576 10.316 5.91595L11.1858 4.115ZM10.8569 4.0112C10.9636 4.0273 11.0741 4.06106 11.1858 4.115L10.316 5.91595C10.3762 5.94504 10.4577 5.9736 10.5584 5.9888L10.8569 4.0112ZM7.5 4H10.7076V6H7.5V4ZM6.27114 4H7.5V6H6.27114V4ZM7.5 4L7.25028 5.20322L5.29201 4.79678L5.54173 3.59357L7.5 4ZM0 3H2V5H0V3ZM-1 12V4H1V12H-1ZM2 13H0V11H2V13ZM3 4V12H1V4H3Z" fill="#888888" mask="url(#path-1-inside-1)"/>
</svg>
