<svg width="20" height="20" viewBox="0 0 20 20" fill="none" xmlns="http://www.w3.org/2000/svg">
<circle cx="10" cy="10" r="10" fill="#888888"/>
<path d="M6.24544 12.5C5.9985 12.5009 5.75736 12.5749 5.55244 12.7127C5.34752 12.8505 5.18802 13.046 5.09404 13.2743C5.00007 13.5027 4.97585 13.7538 5.02442 13.9959C5.073 14.238 5.19221 14.4603 5.36699 14.6348C5.54178 14.8092 5.76433 14.928 6.00654 14.9761C6.24875 15.0242 6.49979 14.9994 6.72797 14.905C6.95615 14.8106 7.15124 14.6507 7.28864 14.4455C7.42604 14.2403 7.49959 13.999 7.5 13.7521C7.49896 13.4199 7.36637 13.1017 7.13125 12.867C6.89613 12.6323 6.57762 12.5004 6.24544 12.5Z" fill="white"/>
<path d="M5 8.33594V10.4165C6.25002 10.4165 7.45051 10.7864 8.33345 11.6692C9.2164 12.5519 9.58347 13.7499 9.58347 15.0026H11.6667C11.6667 11.3593 8.64596 8.33594 5 8.33594Z" fill="white"/>
<path d="M5 5V7.08077C9.45312 7.08077 12.9139 10.5442 12.9139 15H15C15 9.48702 10.5209 5 5 5Z" fill="white"/>
</svg>
