<svg width="49" height="24" viewBox="0 0 49 24" fill="none" xmlns="http://www.w3.org/2000/svg">
<rect x="0.5" y="0.5" width="48" height="23" rx="3.5" fill="black" stroke="#A6A6A6"/>
<path d="M16.2383 12.679C16.2245 11.1474 17.4924 10.4023 17.5504 10.3676C16.8323 9.32072 15.7194 9.17768 15.3283 9.16628C14.3935 9.06791 13.4868 9.7256 13.0107 9.7256C12.525 9.7256 11.7918 9.17578 11.0015 9.19194C9.98453 9.20762 9.03316 9.79641 8.51137 10.7107C7.43454 12.575 8.23765 15.3146 9.26934 16.8215C9.78542 17.5595 10.3885 18.3835 11.1778 18.3545C11.95 18.3227 12.2385 17.8622 13.1704 17.8622C14.0937 17.8622 14.3646 18.3545 15.1696 18.336C15.9983 18.3227 16.5201 17.5946 17.0181 16.85C17.6145 16.0041 17.854 15.1711 17.8635 15.1283C17.8441 15.1216 16.254 14.5148 16.2383 12.679Z" fill="white"/>
<path d="M14.7184 8.30252C15.1337 7.78311 15.4179 7.07647 15.339 6.35938C14.7379 6.38599 13.9861 6.77519 13.5532 7.28319C13.1702 7.73084 12.828 8.46456 12.9164 9.15457C13.5917 9.20495 14.285 8.81385 14.7184 8.30252Z" fill="white"/>
<path d="M29.0984 6.18335C28.9358 6.37842 28.8538 6.62813 28.869 6.8816V17.914C28.8538 18.1674 28.9358 18.4171 29.0984 18.6122L29.1333 18.6471L35.3128 12.4726V12.328L29.1333 6.14844L29.0984 6.18335Z" fill="url(#paint0_linear)"/>
<path d="M37.3574 14.531L35.3125 12.4712V12.3265L37.3574 10.2617L37.4023 10.2867L39.8511 11.6782C40.5494 12.0722 40.5494 12.7206 39.8511 13.1196L37.4122 14.5061L37.3574 14.531Z" fill="url(#paint1_linear)"/>
<path d="M37.4168 14.5032L35.3121 12.3984L29.0977 18.6129C29.24 18.738 29.4215 18.8094 29.611 18.8149C29.8004 18.8204 29.9858 18.7595 30.1351 18.6428L37.4218 14.5032" fill="url(#paint2_linear)"/>
<path d="M37.4179 10.2925L30.1312 6.15292C29.9819 6.03622 29.7965 5.97534 29.6071 5.98081C29.4176 5.98627 29.2361 6.05773 29.0938 6.18285L35.3132 12.3973L37.4179 10.2925Z" fill="url(#paint3_linear)"/>
<path opacity="0.2" d="M37.357 14.457L30.1301 18.5717C29.9861 18.6794 29.8111 18.7376 29.6313 18.7376C29.4515 18.7376 29.2766 18.6794 29.1326 18.5717L29.0977 18.6066L29.1326 18.6415C29.2762 18.75 29.4513 18.8086 29.6313 18.8086C29.8113 18.8086 29.9864 18.75 30.1301 18.6415L37.4168 14.5019L37.357 14.457Z" fill="black"/>
<path opacity="0.12" d="M29.0984 18.543C28.9358 18.348 28.8538 18.0983 28.869 17.8448V17.9196C28.8538 18.1731 28.9358 18.4228 29.0984 18.6178L29.1333 18.5829L29.0984 18.543ZM39.8514 13.0468L37.3577 14.4583L37.4026 14.5032L39.8514 13.1166C39.9904 13.0514 40.1097 12.9506 40.1972 12.8245C40.2848 12.6984 40.3376 12.5514 40.3502 12.3984C40.3222 12.5374 40.2626 12.6682 40.1761 12.7806C40.0897 12.893 39.9786 12.984 39.8514 13.0468Z" fill="black"/>
<path opacity="0.25" d="M30.1301 6.22075L39.8507 11.7469C39.9779 11.8097 40.089 11.9008 40.1754 12.0131C40.2619 12.1255 40.3214 12.2563 40.3495 12.3953C40.3369 12.2423 40.2841 12.0953 40.1965 11.9692C40.109 11.8431 39.9897 11.7424 39.8507 11.6771L30.1301 6.15093C29.4319 5.75692 28.8633 6.08609 28.8633 6.88409V6.9589C28.8782 6.15592 29.4368 5.82674 30.1301 6.22075Z" fill="white"/>
<defs>
<linearGradient id="paint0_linear" x1="34.7642" y1="6.76689" x2="26.3952" y2="15.1359" gradientUnits="userSpaceOnUse">
<stop stop-color="#00A0FF"/>
<stop offset="0.01" stop-color="#00A1FF"/>
<stop offset="0.26" stop-color="#00BEFF"/>
<stop offset="0.51" stop-color="#00D2FF"/>
<stop offset="0.76" stop-color="#00DFFF"/>
<stop offset="1" stop-color="#00E3FF"/>
</linearGradient>
<linearGradient id="paint1_linear" x1="40.7638" y1="12.3964" x2="28.6991" y2="12.3964" gradientUnits="userSpaceOnUse">
<stop stop-color="#FFE000"/>
<stop offset="0.41" stop-color="#FFBD00"/>
<stop offset="0.78" stop-color="#FFA500"/>
<stop offset="1" stop-color="#FF9C00"/>
</linearGradient>
<linearGradient id="paint2_linear" x1="36.2747" y1="13.5456" x2="24.9231" y2="24.8921" gradientUnits="userSpaceOnUse">
<stop stop-color="#FF3A44"/>
<stop offset="1" stop-color="#C31162"/>
</linearGradient>
<linearGradient id="paint3_linear" x1="27.5327" y1="2.51205" x2="32.6" y2="7.57935" gradientUnits="userSpaceOnUse">
<stop stop-color="#32A071"/>
<stop offset="0.07" stop-color="#2DA771"/>
<stop offset="0.48" stop-color="#15CF74"/>
<stop offset="0.8" stop-color="#06E775"/>
<stop offset="1" stop-color="#00F076"/>
</linearGradient>
</defs>
</svg>
