<svg width="641" height="582" viewBox="0 0 641 582" fill="none" xmlns="http://www.w3.org/2000/svg">
<path d="M153.887 300.755L113.487 264.83L128.568 262.025L168.193 300.096L171.718 338.723L312.363 395.301L401.42 445.341L537.681 496.646L281.157 496.646L294.118 462.297L251.752 400.595L147.769 349.971L153.887 300.755Z" fill="#E4E4E4"/>
<path d="M152.871 302.209L112.183 265.727L127.264 262.922L166.889 300.993L170.498 340.257L317.276 399.963L396.359 445.385L536.022 498.854L277.842 498.854L288.465 458.455L252.911 404.096L148.528 351.872L152.871 302.209Z" fill="#EDEDED"/>
<path d="M212.358 405.063L214.394 406.244V399.482L214.919 395.018L213.475 393.311L211.242 390.619L211.899 386.811L209.798 385.302L208.945 391.144L212.949 397.119L212.358 405.063Z" fill="#E2D488"/>
<path d="M216.628 404.997C216.785 405.207 215.161 405.873 214.33 406.179V400.599L214.658 394.756L215.905 388.978L217.744 387.928L217.153 390.948L221.486 388.978L222.011 384.514H223.127L222.602 389.569L216.628 393.049L215.905 397.054C216.081 399.614 216.47 404.787 216.628 404.997Z" fill="#BC8C44"/>
<path d="M214.983 388.125L213.408 393.443L214.983 395.347L216.296 388.125H214.983Z" fill="#926B32"/>
<path d="M219.907 388.52L216.953 390.752V391.54L221.483 389.176L222.14 384.449L220.695 385.303L219.907 388.52Z" fill="#765523"/>
<path d="M205.449 372.806V383.094L209.858 382.675L212.681 375.257L205.449 372.806Z" fill="#92BA50"/>
<path d="M215.84 367.514L212.229 375.523L205.467 372.832L215.84 367.514Z" fill="#B5CE6C"/>
<path d="M224.435 370.202L215.769 367.445L212.171 375.52L219.051 374.994L224.435 370.202Z" fill="#459529"/>
<path d="M209.858 382.675L219.246 381.559V374.731L212.169 375.481L209.858 382.675Z" fill="#34661C"/>
<path d="M225.811 383.66L218.589 381.297L219.114 374.732L224.498 370.202L227.386 378.014L225.811 383.66Z" fill="#3A7724"/>
<path d="M218.565 381.233L215.372 389.437L225.942 383.594L218.565 381.233Z" fill="#325A13"/>
<path d="M205.395 383.134L215.439 389.174L218.586 381.233L205.395 383.134Z" fill="#73952B"/>
<path d="M118.492 297.966L118.067 295.643H118.656L119.278 297.606L121.601 299.243V302.679L120.129 301.992L120.456 299.537L118.492 297.966Z" fill="#E2D488"/>
<path d="M122.553 296.098L123.076 301.924L121.607 302.687V299.223L119.247 297.734L118.527 295.607L119.476 295.836L119.771 297.08L121.669 298.029V296.098H122.553Z" fill="#BC8C44"/>
<path d="M120.753 297.571V296.164L121.703 296.393V298.095L120.753 297.571Z" fill="#926B32"/>
<path d="M120.938 291.958L126.938 288.722L120.938 287.322L117.811 288.722L120.938 291.958Z" fill="#47862A"/>
<path d="M121.047 291.887L124.538 295.85L126.938 288.723L121.047 291.887Z" fill="#3A7724"/>
<path d="M124.517 295.808L119.009 297.524L118.397 293.323L121.07 291.866L124.517 295.808Z" fill="#325A13"/>
<path d="M114.573 293.851L118.973 297.414L118.501 293.196L116.006 290.997L114.573 293.851Z" fill="#45751F"/>
<path d="M115.257 285.478L117.845 288.759L120.97 287.516L123.905 279.722L115.257 285.478Z" fill="#B4CE6C"/>
<path d="M123.903 279.773L126.921 288.728L120.855 287.525L123.903 279.773Z" fill="#459529"/>
<path d="M117.839 288.658L116.066 291.051L118.539 293.341L121.048 291.923L117.839 288.658Z" fill="#34661C"/>
<path d="M115.23 285.413L117.885 288.759L116.03 291.086L114.576 293.886L115.23 285.413Z" fill="#73952B"/>
<path d="M185.622 330.615L185.117 327.859H185.816L186.553 330.188L189.308 332.128V336.203L187.562 335.388L187.95 332.477L185.622 330.615Z" fill="#E2D488"/>
<path d="M190.426 328.401L191.047 335.309L189.304 336.214V332.107L186.507 330.342L185.653 327.819L186.778 328.091L187.127 329.566L189.378 330.691V328.401H190.426Z" fill="#BC8C44"/>
<path d="M188.295 330.147V328.477L189.421 328.749V330.768L188.295 330.147Z" fill="#926B32"/>
<path d="M187.603 323.121L181.2 319.667L187.952 316.718L190.94 319.667L187.603 323.121Z" fill="#92BA50"/>
<path d="M187.487 323.044L183.761 327.273L181.2 319.667L187.487 323.044Z" fill="#73952B"/>
<path d="M183.779 327.228L189.658 329.059L190.31 324.576L187.458 323.021L183.779 327.228Z" fill="#45751F"/>
<path d="M194.394 325.139L189.699 328.942L190.203 324.44L192.865 322.093L194.394 325.139Z" fill="#325A13"/>
<path d="M193.664 316.204L190.902 319.706L187.836 316.68L188.074 311.741L193.664 316.204Z" fill="#459529"/>
<path d="M188.068 311.713L181.214 319.67L188.068 316.796V311.713Z" fill="#B5CE6C"/>
<path d="M190.912 319.598L192.804 322.151L190.165 324.596L187.487 323.083L190.912 319.598Z" fill="#34661C"/>
<path d="M193.695 316.136L190.862 319.707L192.841 322.19L194.393 325.178L193.695 316.136Z" fill="#3A7724"/>
<path d="M88.7634 39.844L156.573 159.459L142.494 208.053L88.7634 75.4985V39.844Z" fill="#C6C6C6"/>
<path d="M88.6646 39.9312L91.0132 79.0713L48.147 253.206L1.18143 250.209L88.6646 39.9312Z" fill="#DDDDDD"/>
<path d="M197.983 159.459L244.719 290.997L139.578 270.193H23.6631L0.605682 250.904L90.7453 75.5693L143.106 206.621L197.983 159.459Z" fill="#E3E5E4"/>
<path d="M142.201 206.902L199.708 159.746L194.533 135.88L154.853 156.871L142.201 206.902Z" fill="#DFDFDF"/>
<path d="M267.876 208.116L244.721 290.996L198.461 162.936L194.272 136.307L267.876 208.116Z" fill="#C6C6C6"/>
<path d="M194.366 135.883L233.342 173.746L213.52 163.723L230.447 185.327L220.87 182.877L233.342 211.386L226.215 213.167L237.128 245.685L230.447 253.483L197.929 161.496L194.366 135.883Z" fill="#E9E9E9"/>
<path d="M194.403 135.049L198.449 160.673L161.498 191.196L154.212 183.871L179.567 163.101L165.811 161.752L179.567 148.266L165.811 150.963L194.403 135.049Z" fill="#FAFAFA"/>
<path d="M198.178 160.405L230.277 251.036L208.967 223.793L198.178 249.687L189.546 216.24L161.224 234.313L175.25 190.885L154.481 201.944L161.224 190.885L198.178 160.405Z" fill="white"/>
<path d="M103.756 98.4643L104.767 111.951L90.438 76.5482L88.8658 39.4119L123.312 100.319L112.185 86.495L116.737 98.4643L106.116 83.6288L113.365 100.319L108.308 95.0925L113.365 110.602L103.756 98.4643Z" fill="#E9E9E9"/>
<path d="M71.7241 111.951L90.437 75.5375L88.8105 38.7075L70.3653 87.5329L76.1074 80.5949L73.5786 91.2157L78.4675 85.821L71.7241 99.1391L78.4675 92.5644L71.7241 111.951Z" fill="#FAFAFA"/>
<path d="M90.607 75.0322L112.186 129.653L101.734 122.067V142.297L93.8102 135.891L88.7619 142.297L87.404 127.125L83.358 135.891L81.1664 128.136L71.3886 137.071L76.6147 116.167L68.4191 117.515L90.607 75.0322Z" fill="white"/>
<path d="M542.914 302.687L530.47 353.384L574.945 314.9L571.95 294.16L542.914 302.687Z" fill="#DFDFDF"/>
<path d="M572.179 293.927L574.713 315.589L610.893 420.9L629.789 352.92L572.179 293.927Z" fill="#C6C6C6"/>
<path d="M488.99 246.69L414.788 422.285L488.99 218.576V246.69Z" fill="#DDDDDD"/>
<path d="M488.901 246.695L412.96 421.511L453.847 443.16L502.699 428.649H531.383L615.972 425.27L574.993 314.741L531.383 351.96L488.901 246.695Z" fill="#EFEFEF"/>
<path d="M488.76 218.576V248.073L530.93 353.845L542.683 303.148L488.76 218.576Z" fill="#C6C6C6"/>
<path d="M545.736 337.967L540.963 346.321L557.5 336.433L545.736 372.065L568.241 358.426L574.549 384.34L583.415 363.882L601.658 386.801L574.549 314.61L545.736 337.967Z" fill="white"/>
<path d="M540.112 331.66L546.079 338.309L575.573 315.805L572.334 293.982L550.511 300.29L560.229 304.212L549.488 314.441L561.082 315.805L540.112 331.66Z" fill="#FAFAFA"/>
<path d="M575.061 315.632L572.127 293.928L602.169 324.668L588.359 317.166L600.805 333.874L591.769 330.635L603.533 354.333L597.054 355.526L605.579 381.611L601.658 386.457L575.061 315.632Z" fill="#EEEEEE"/>
<path d="M480.28 259.225L476.65 274.109L489.356 248.152V218.202L474.219 255.958L478.101 250.149L476.65 257.228L480.28 252.509L474.219 265.396L480.28 259.225Z" fill="#FAFAFA"/>
<path d="M501.629 279.3L489.173 247.246V218.384L516.354 262.103L507.869 255.959L509.684 263.945L502.242 253.054L506.599 265.216L503.513 261.586L507.869 275.2L500.064 263.945L501.629 279.3Z" fill="#EEEEEE"/>
<path d="M489.354 245.792L472.654 281.914L478.462 277.921L474.217 294.802L481.73 286.997L483 296.617L486.812 286.997L489.354 301.518L491.895 292.443L498.429 299.885V284.274L505.976 291.059L489.354 245.792Z" fill="white"/>
<path d="M41.2795 262.009L51.804 274.037L50.4371 284.562L48.7286 278.138L41.2795 262.009Z" fill="#EAEAEA"/>
<path d="M41.2795 262.01L51.804 274.037L55.0844 252.853L41.2795 262.01Z" fill="white"/>
<path d="M53.8561 280.804L51.8073 274.038L50.4404 284.563L53.4475 292.217L53.8561 280.804Z" fill="#E3E3E3"/>
<path d="M53.8557 280.803L51.8069 274.038L55.2227 252.988L73.5385 247.59L53.8557 280.803Z" fill="#F6F6F6"/>
<path d="M53.8521 280.808L84.6061 286.208L77.2934 260.849L64.3769 263.176L53.8521 280.808Z" fill="#EAEAEA"/>
<path d="M53.8533 280.807L84.6074 286.207L90.4162 287.433L53.4431 292.285L53.8533 280.807Z" fill="#DBDBDB"/>
<path d="M90.417 287.365L84.6076 286.208L77.2949 260.849L95.5424 265.837L90.417 287.365Z" fill="#FAFAFA"/>
<path d="M93.0824 251.212L73.7415 247.727L77.2951 260.847L95.5425 265.836L93.0824 251.212Z" fill="#F6F6F6"/>
<path d="M64.4497 263.172L77.1614 260.78L73.5392 247.59L64.4497 263.172Z" fill="white"/>
<path d="M493.515 423.833L504.04 435.861L502.673 446.386L500.964 439.962L493.515 423.833Z" fill="#EAEAEA"/>
<path d="M493.515 423.833L504.04 435.861L507.32 414.677L493.515 423.833Z" fill="white"/>
<path d="M506.091 442.629L504.042 435.864L502.675 446.389L505.682 454.043L506.091 442.629Z" fill="#E3E3E3"/>
<path d="M506.094 442.628L504.045 435.863L507.461 414.813L525.777 409.414L506.094 442.628Z" fill="#F6F6F6"/>
<path d="M506.087 442.633L536.841 448.033L529.528 422.673L516.611 425.001L506.087 442.633Z" fill="#EAEAEA"/>
<path d="M506.084 442.633L536.838 448.033L542.647 449.259L505.674 454.111L506.084 442.633Z" fill="#DBDBDB"/>
<path d="M542.653 449.19L536.844 448.033L529.531 422.673L547.778 427.662L542.653 449.19Z" fill="#FAFAFA"/>
<path d="M545.32 413.037L525.979 409.551L529.533 422.672L547.78 427.661L545.32 413.037Z" fill="#F6F6F6"/>
<path d="M516.682 424.997L529.394 422.605L525.772 409.414L516.682 424.997Z" fill="white"/>
<path d="M242.065 263.488L250.805 260.6L272.42 262.551L278.74 279.639L242.065 263.488Z" fill="#F2F2F2"/>
<path d="M242.064 263.489L238.319 301.177L265.472 297.041L262.351 272.539L242.064 263.489Z" fill="#B8B8B8"/>
<path d="M261.728 272.224L265.318 296.882L267.036 296.882L278.74 279.637L261.728 272.224Z" fill="#DCDCDC"/>
<path d="M250.806 260.598L261.261 249.597L242.571 259.815L250.806 260.598Z" fill="#C3C3C3"/>
<path d="M242.064 263.484L250.804 260.597L242.508 259.814L230.67 264.812L242.064 263.484Z" fill="#DAD7D7"/>
<path d="M242.067 263.486L238.32 301.02L230.673 264.814L242.067 263.486Z" fill="#969696"/>
<path d="M261.259 249.753L250.802 260.6L272.417 262.551L261.259 249.753Z" fill="white"/>
<path d="M224.633 436.972L241.313 426.438L238.065 419.853L223.58 419.415L224.633 436.972Z" fill="#E6E6E6"/>
<path d="M229.11 415.729L244.21 412.215L238.065 419.855L223.58 419.416L229.11 415.729Z" fill="#F4F4F4"/>
<path d="M229.112 415.732L244.212 412.219L235.608 407.037L229.112 415.732Z" fill="white"/>
<path d="M229.107 415.734L235.609 406.861L214.978 422.489L223.577 419.421L229.107 415.734Z" fill="#C7C7C7"/>
<path d="M250.354 420.47L241.311 426.44L238.062 419.856L244.383 412.042L250.354 420.47Z" fill="#EFEFEF"/>
<path d="M224.631 436.973L241.311 426.438L240.523 437.587L222.789 442.24L224.631 436.973Z" fill="#CCCACA"/>
<path d="M250.177 420.292L241.307 426.436L240.519 437.585L250.176 432.493L250.177 420.292Z" fill="#C6C4C4"/>
<path d="M224.632 436.972L222.877 442.239L214.8 422.311L223.578 419.415L224.632 436.972Z" fill="#DADADA"/>
<path d="M614.381 418.88L627.893 404.505L623.1 398.944L608.966 402.145L614.381 418.88Z" fill="#E6E6E6"/>
<path d="M613.399 397.192L627.138 390.011L623.101 398.946L608.967 402.147L613.399 397.192Z" fill="#F4F4F4"/>
<path d="M613.398 397.193L627.138 390.012L617.512 387.149L613.398 397.193Z" fill="white"/>
<path d="M613.394 397.196L617.467 386.979L601.405 407.274L608.962 402.151L613.394 397.196Z" fill="#C7C7C7"/>
<path d="M635.156 396.463L627.894 404.507L623.101 398.946L627.265 389.798L635.156 396.463Z" fill="#EFEFEF"/>
<path d="M614.379 418.878L627.891 404.504L629.919 415.495L613.915 424.439L614.379 418.878Z" fill="#CCCACA"/>
<path d="M634.939 396.336L627.89 404.505L629.918 415.496L637.992 408.149L634.939 396.336Z" fill="#C6C4C4"/>
<path d="M614.38 418.879L614 424.418L601.192 407.146L608.965 402.144L614.38 418.879Z" fill="#DADADA"/>
<path d="M574.34 417.515L584.777 414.414L610.965 415.002L619.303 430.174L574.34 417.515Z" fill="#F2F2F2"/>
<path d="M574.344 417.516L571.373 451.947L603.999 446.704L599.22 424.624L574.344 417.516Z" fill="#B8B8B8"/>
<path d="M598.454 424.374L603.804 446.57L605.879 446.476L619.306 430.174L598.454 424.374Z" fill="#DCDCDC"/>
<path d="M584.782 414.415L596.957 403.85L574.804 414.156L584.782 414.415Z" fill="#C3C3C3"/>
<path d="M574.343 417.511L584.78 414.411L574.728 414.154L560.636 419.342L574.343 417.511Z" fill="#DAD7D7"/>
<path d="M574.343 417.512L571.364 451.804L560.637 419.342L574.343 417.512Z" fill="#969696"/>
<path d="M596.963 403.991L584.78 414.416L610.965 415.002L596.963 403.991Z" fill="white"/>
<path d="M248.628 431.847L253.54 430.388L265.867 430.664L269.791 437.806L248.628 431.847Z" fill="#F2F2F2"/>
<path d="M248.627 431.849L247.229 448.056L262.586 445.588L260.337 435.195L248.627 431.849Z" fill="#B8B8B8"/>
<path d="M259.977 435.076L262.495 445.524L263.472 445.48L269.792 437.807L259.977 435.076Z" fill="#DCDCDC"/>
<path d="M253.543 430.389L259.274 425.417L248.847 430.267L253.543 430.389Z" fill="#C3C3C3"/>
<path d="M248.628 431.848L253.541 430.388L248.809 430.268L242.176 432.709L248.628 431.848Z" fill="#DAD7D7"/>
<path d="M248.628 431.847L247.226 447.988L242.176 432.708L248.628 431.847Z" fill="#969696"/>
<path d="M259.275 425.483L253.54 430.39L265.866 430.666L259.275 425.483Z" fill="white"/>
<path d="M409.103 412.197L414.015 410.738L426.342 411.014L430.267 418.156L409.103 412.197Z" fill="#F2F2F2"/>
<path d="M409.102 412.2L407.704 428.407L423.061 425.939L420.812 415.546L409.102 412.2Z" fill="#B8B8B8"/>
<path d="M420.452 415.427L422.971 425.875L423.947 425.831L430.267 418.158L420.452 415.427Z" fill="#DCDCDC"/>
<path d="M414.019 410.74L419.75 405.767L409.322 410.618L414.019 410.74Z" fill="#C3C3C3"/>
<path d="M409.103 412.199L414.016 410.739L409.284 410.619L402.652 413.06L409.103 412.199Z" fill="#DAD7D7"/>
<path d="M409.103 412.198L407.701 428.339L402.652 413.059L409.103 412.198Z" fill="#969696"/>
<path d="M419.75 405.834L414.015 410.741L426.341 411.017L419.75 405.834Z" fill="white"/>
<path d="M258.585 287.784L261.122 295.556L258.212 299.868L258.755 296.638L258.585 287.784Z" fill="#EAEAEA"/>
<path d="M258.585 287.784L261.122 295.556L267.238 287.001L258.585 287.784Z" fill="white"/>
<path d="M260.672 299.016L261.123 295.556L258.212 299.867L258.036 303.945L260.672 299.016Z" fill="#E3E3E3"/>
<path d="M260.672 299.016L261.123 295.555L267.275 287.092L277.313 289.026L260.672 299.016Z" fill="#F6F6F6"/>
<path d="M260.674 299.019L274.44 308.633L276.308 295.749L269.545 293.734L260.674 299.019Z" fill="#EAEAEA"/>
<path d="M260.67 299.017L274.437 308.632L276.993 310.539L258.02 303.974L260.67 299.017Z" fill="#DBDBDB"/>
<path d="M277.009 310.51L274.438 308.633L276.306 295.749L284.093 302.239L277.009 310.51Z" fill="#FAFAFA"/>
<path d="M286.022 295.222L277.383 289.136L276.305 295.748L284.092 302.239L286.022 295.222Z" fill="#F6F6F6"/>
<path d="M269.579 293.747L276.257 295.685L277.316 289.026L269.579 293.747Z" fill="white"/>
<path d="M558.006 440.948L563.793 446.722L563.156 451.885L562.174 448.76L558.006 440.948Z" fill="#EAEAEA"/>
<path d="M558.006 440.949L563.794 446.723L565.362 436.326L558.006 440.949Z" fill="white"/>
<path d="M564.961 450.01L563.793 446.722L563.156 451.885L564.849 455.598L564.961 450.01Z" fill="#E3E3E3"/>
<path d="M564.962 450.011L563.794 446.722L565.436 436.389L575.259 433.557L564.962 450.011Z" fill="#F6F6F6"/>
<path d="M564.962 450.013L581.592 452.334L577.41 440.004L570.469 441.278L564.962 450.013Z" fill="#EAEAEA"/>
<path d="M564.961 450.014L581.592 452.334L584.735 452.874L564.849 455.633L564.961 450.014Z" fill="#DBDBDB"/>
<path d="M584.735 452.839L581.592 452.334L577.41 440.004L587.294 442.254L584.735 452.839Z" fill="#FAFAFA"/>
<path d="M585.829 435.126L575.37 433.623L577.41 440.004L587.294 442.254L585.829 435.126Z" fill="#F6F6F6"/>
<path d="M570.506 441.275L577.336 439.972L575.259 433.557L570.506 441.275Z" fill="white"/>
<path d="M111.889 329.257L117.676 335.031L117.039 340.194L116.057 337.07L111.889 329.257Z" fill="#D9D8D8"/>
<path d="M111.889 329.258L117.677 335.032L119.245 324.634L111.889 329.258Z" fill="#FDFAFA"/>
<path d="M118.852 338.321L117.683 335.032L117.046 340.195L118.739 343.908L118.852 338.321Z" fill="#D1D1D1"/>
<path d="M118.845 338.319L117.677 335.031L119.319 324.698L129.142 321.866L118.845 338.319Z" fill="#EAEAEA"/>
<path d="M118.848 338.324L135.478 340.644L131.296 328.315L124.355 329.588L118.848 338.324Z" fill="#D9D8D8"/>
<path d="M118.846 338.322L135.476 340.643L138.619 341.182L118.733 343.941L118.846 338.322Z" fill="#C5C5C5"/>
<path d="M138.624 341.148L135.481 340.642L131.299 328.313L141.183 330.563L138.624 341.148Z" fill="#F0F0F0"/>
<path d="M139.714 323.435L129.255 321.931L131.294 328.313L141.179 330.563L139.714 323.435Z" fill="#EAEAEA"/>
<path d="M124.39 329.585L131.22 328.282L129.143 321.867L124.39 329.585Z" fill="#FDFAFA"/>
<g filter="url(#filter0_d)">
<path fill-rule="evenodd" clip-rule="evenodd" d="M478.102 39.4131C478.146 39.3885 478.191 39.3632 478.236 39.3374C481.803 37.2775 484.695 32.2682 484.695 28.1488C484.696 24.8157 482.802 23.0864 480.19 23.6389C480.206 23.3873 480.215 23.1377 480.215 22.8907C480.215 17.8119 476.65 15.7534 472.251 18.293C471.347 18.8149 470.479 19.4904 469.669 20.2783C469.56 13.9125 465.013 11.3654 459.419 14.5951C455.022 17.1338 451.272 22.4953 449.815 27.8262C448.686 27.6834 447.359 27.9915 445.94 28.811C441.822 31.1886 438.484 36.9705 438.484 41.7254C438.484 42.4904 438.57 43.1822 438.732 43.7946C434.517 46.4585 431.16 52.416 431.16 57.3406C431.16 61.4133 433.456 63.5413 436.634 62.9089L436.634 63.3657L478.102 39.4223L478.102 39.4131Z" fill="#DDDBDB"/>
<rect width="8.40452" height="7.44523" transform="matrix(0.866044 -0.499967 0.866044 0.499967 433.427 62.4583)" fill="#DDDBDB"/>
<rect width="8.40452" height="7.44523" transform="matrix(0.866044 -0.499967 0.866044 0.499967 459.623 18.2148)" fill="#DDDBDB"/>
<rect width="8.40452" height="7.44523" transform="matrix(0.866044 -0.499967 0.866044 0.499967 470.632 21.9385)" fill="#DDDBDB"/>
<path fill-rule="evenodd" clip-rule="evenodd" d="M484.652 43.2033C484.696 43.1787 484.741 43.1534 484.786 43.1276C488.353 41.0677 491.245 36.0584 491.245 31.939C491.245 28.6063 489.353 26.877 486.741 27.4289C486.757 27.1773 486.766 26.9278 486.766 26.6809C486.766 21.6021 483.2 19.5436 478.802 22.0832C477.898 22.6051 477.029 23.2806 476.22 24.0685C476.11 17.7035 471.563 15.1568 465.97 18.3863C461.573 20.9252 457.822 26.2874 456.366 31.6187C455.236 31.4751 453.908 31.783 452.488 32.6031C448.37 34.9807 445.032 40.7627 445.032 45.5175C445.032 46.283 445.118 46.9752 445.281 47.5879C441.066 50.2527 437.711 56.2087 437.711 61.1322C437.711 66.2046 441.271 68.2604 445.664 65.7241C445.678 65.7158 445.693 65.7075 445.707 65.6992L445.707 65.7011L484.652 43.2145L484.652 43.2033Z" fill="white"/>
</g>
<g filter="url(#filter1_d)">
<path fill-rule="evenodd" clip-rule="evenodd" d="M203.246 83.5395L203.246 83.5665L164.471 105.955C164.346 106.033 164.22 106.109 164.093 106.182C163.967 106.255 163.841 106.325 163.716 106.392L162.377 107.165L162.377 106.997C157.879 108.659 154.466 106.087 154.466 100.624C154.466 94.484 158.777 87.0179 164.094 83.9478C164.142 83.9204 164.189 83.8934 164.236 83.8669C165.177 76.7625 170.114 68.9081 176.062 65.4732C181.082 62.5749 185.381 63.6553 187.166 67.6793C188.258 66.5523 189.448 65.5927 190.692 64.8741C195.852 61.895 200.063 64.1498 200.308 69.8958L201.303 69.3215C202.081 68.52 202.928 67.8374 203.815 67.3255C207.62 65.1283 210.705 66.9093 210.705 71.3034C210.705 75.6976 207.62 81.041 203.814 83.2382C203.623 83.3486 203.434 83.449 203.246 83.5395Z" fill="#DDDBDB"/>
<rect width="8.28327" height="7.33783" transform="matrix(0.866044 -0.499967 0.866044 0.499967 156.94 106.646)" fill="#DDDBDB"/>
<rect width="8.28327" height="7.33783" transform="matrix(0.866044 -0.499967 0.866044 0.499967 189.842 68.0833)" fill="#DDDBDB"/>
<rect width="8.28327" height="7.33783" transform="matrix(0.866044 -0.499967 0.866044 0.499967 176.497 68.3188)" fill="#DDDBDB"/>
<rect width="8.28327" height="7.33783" transform="matrix(0.866044 -0.499967 0.866044 0.499967 201.022 70.7222)" fill="#DDDBDB"/>
<path fill-rule="evenodd" clip-rule="evenodd" d="M209.022 86.8396L209.022 86.8666L170.224 109.269C170.106 109.342 169.988 109.412 169.869 109.481C169.75 109.55 169.632 109.615 169.514 109.679L168.153 110.465L168.153 110.296C163.655 111.958 160.242 109.386 160.242 103.923C160.242 97.7831 164.553 90.317 169.87 87.2469C169.917 87.2195 169.965 87.1925 170.012 87.1659C170.953 80.0617 175.89 72.2079 181.838 68.7732C186.857 65.8752 191.156 66.9552 192.942 70.9784C194.034 69.8511 195.223 68.8914 196.468 68.1727C201.628 65.1934 205.84 67.4487 206.084 73.1958L207.078 72.6216C207.857 71.82 208.704 71.1374 209.591 70.6256C213.396 68.4284 216.481 70.2093 216.481 74.6035C216.48 78.9976 213.395 84.341 209.59 86.5382C209.399 86.6487 209.209 86.749 209.022 86.8396Z" fill="white"/>
</g>
<path d="M374.036 33.1006V234.396C381.232 234.396 385.096 231.742 386.128 230.415C392.145 216.848 406.921 201.265 413.557 195.17C417.195 191.827 428.54 180.806 444.821 163.464C461.102 146.121 462.911 126.056 461.78 118.19L452.047 71.7376C444.615 56.1648 430.271 46.5695 424.028 43.7184L398.958 33.9854C386.335 29.7383 377.083 31.6259 374.036 33.1006Z" fill="url(#paint0_linear)"/>
<path d="M374.008 33.1006V234.396C366.812 234.396 362.948 231.742 361.916 230.415C355.899 216.848 341.123 201.265 334.486 195.17C330.849 191.827 319.504 180.806 303.223 163.464C286.942 146.121 285.133 126.056 286.264 118.19L295.997 71.7376C303.429 56.1648 317.773 46.5695 324.016 43.7184L349.086 33.9854C361.709 29.7383 370.961 31.6259 374.008 33.1006Z" fill="white"/>
<path d="M374.036 234.397V46.3736C380.082 33.3964 391.142 33.1014 401.465 34.2811C409.723 35.2249 422.209 42.1462 427.42 45.4888C422.307 42.2445 408.779 36.2277 395.566 38.1154C382.353 40.003 375.707 44.4074 374.036 46.3736C379.787 43.8175 397.129 40.8878 420.489 49.618C443.848 58.3482 454.013 73.1148 456.176 79.4068C458.437 83.8309 462.724 98.3419 461.78 120.993C461.288 112.342 457.356 91.5583 445.558 77.6372C433.761 63.7161 414.098 54.9269 405.742 52.2724C398.663 50.3062 382.412 46.3736 374.036 46.3736C388.045 50.896 420.43 67.4618 437.89 97.5456C455.35 127.629 448.016 154.321 442.167 163.907C440.004 167.643 432.257 178.211 418.571 190.599C401.465 206.083 391.879 218.176 386.128 230.563C387.75 225.303 395.183 209.947 411.935 190.599C428.688 171.251 427.174 139.673 424.323 126.302C421.865 110.13 408.367 71.5024 374.036 46.3736C383.179 61.3172 401.465 100.701 401.465 138.69C401.465 186.175 398.221 200.922 382.884 232.775C382.786 233.316 380.878 234.397 374.036 234.397Z" fill="white"/>
<path d="M374.008 234.397V46.3736C367.962 33.3964 356.902 33.1014 346.579 34.2811C338.321 35.2249 325.835 42.1462 320.624 45.4888C325.737 42.2445 339.264 36.2277 352.478 38.1154C365.691 40.003 372.337 44.4074 374.008 46.3736C368.257 43.8175 350.915 40.8878 327.555 49.618C304.196 58.3482 294.031 73.1148 291.868 79.4068C289.607 83.8309 285.32 98.3419 286.264 120.993C286.756 112.342 290.688 91.5583 302.486 77.6372C314.283 63.7161 333.946 54.9269 342.302 52.2724C349.381 50.3062 365.632 46.3736 374.008 46.3736C359.999 50.896 327.614 67.4618 310.154 97.5456C292.694 127.629 300.028 154.321 305.877 163.907C308.04 167.643 315.787 178.211 329.473 190.599C346.579 206.083 356.164 218.176 361.916 230.563C360.294 225.303 352.861 209.947 336.109 190.599C319.356 171.251 320.87 139.673 323.721 126.302C326.179 110.13 339.677 71.5024 374.008 46.3736C364.865 61.3172 346.579 100.701 346.579 138.69C346.579 186.175 349.823 200.922 365.16 232.775C365.258 233.316 367.166 234.397 374.008 234.397Z" fill="url(#paint1_linear)"/>
<path d="M374.037 207.704C359.408 207.704 344.026 201.24 337.98 198.635C352.963 213.382 360.002 225.647 361.833 230.341C362.689 231.786 364.377 232.492 365.115 232.664C365.321 233.165 365.496 233.266 365.557 233.254C366.766 234.374 371.714 234.458 374.037 234.36C378.239 234.618 381.299 233.77 382.11 233.475C382.759 233.239 382.897 232.836 382.885 232.664C384.212 232.162 385.502 231.054 385.982 230.562C391.408 218.057 404.956 203.526 411.051 197.824C404.808 200.429 388.665 207.704 374.037 207.704Z" fill="black" fill-opacity="0.24"/>
<rect width="31.3618" height="31.3618" rx="2" transform="matrix(0.866044 0.499967 -0.866044 0.499967 373.885 271.319)" fill="url(#paint2_linear)"/>
<rect width="31.3618" height="31.3618" rx="2" transform="matrix(0.866044 0.499967 -0.866044 0.499967 373.885 268.611)" fill="#F7F7F7"/>
<path d="M348.093 286.756V284.509C348.087 284.461 348.087 284.415 348.093 284.373V284.509C348.137 284.854 348.512 285.337 349.5 285.904C350.891 286.703 349.203 286.402 348.093 286.756Z" fill="#F0F0F0"/>
<path d="M399.695 284.373V287.036C398.585 286.682 396.884 286.692 398.274 285.894C399.664 285.096 399.606 284.756 399.695 284.373Z" fill="#A7A7A7"/>
<path d="M373.883 273.068C373.613 273.068 373.342 273.128 373.135 273.247L354.752 283.86C354.339 284.098 354.339 284.485 354.752 284.723L373.135 295.336C373.342 295.455 373.613 295.515 373.883 295.515V273.068Z" fill="url(#paint3_linear)"/>
<path d="M373.883 273.068C374.154 273.068 374.424 273.128 374.631 273.247L393.014 283.86C393.428 284.098 393.428 284.485 393.014 284.723L374.631 295.336C374.424 295.455 374.154 295.515 373.883 295.515V273.068Z" fill="url(#paint4_linear)"/>
<rect width="21.5537" height="27.4525" transform="matrix(3.76274e-05 1 -0.866007 -0.500033 397.659 263.041)" fill="url(#paint5_linear)"/>
<rect width="27.4525" height="21.5602" transform="matrix(0.866007 -0.500033 -3.76274e-05 1 373.885 276.749)" fill="url(#paint6_linear)"/>
<rect width="27.4525" height="21.4116" transform="matrix(0.866007 -0.500033 -3.76274e-05 1 350.112 263.238)" fill="url(#paint7_linear)"/>
<rect width="21.5537" height="27.4525" transform="matrix(3.76274e-05 1 -0.866007 -0.500033 373.888 276.751)" fill="url(#paint8_linear)"/>
<rect width="32.1291" height="32.1291" rx="2" transform="matrix(0.866044 0.499967 -0.866044 0.499967 373.884 247.712)" fill="url(#paint9_linear)"/>
<rect width="32.1291" height="32.1291" rx="2" transform="matrix(0.866044 0.499967 -0.866044 0.499967 373.884 243.405)" fill="#F7F7F7"/>
<path d="M347.376 263.577V259.519C347.366 259.446 347.367 259.383 347.376 259.332V259.519C347.438 259.955 347.917 260.738 349.526 261.446C351.403 262.272 348.875 263.21 347.376 263.577Z" fill="#F1F1F1"/>
<path d="M400.375 263.907V259.286C400.385 259.204 400.384 259.132 400.375 259.074V259.286C400.313 259.783 399.836 260.675 398.234 261.481C396.365 262.421 398.883 263.49 400.375 263.907Z" fill="#A7A7A7"/>
<path d="M373.883 247.97C373.606 247.97 373.328 248.031 373.117 248.153L354.284 259.026C353.86 259.27 353.86 259.666 354.284 259.91L373.117 270.783C373.328 270.905 373.606 270.966 373.883 270.966V247.97Z" fill="#989898"/>
<path d="M373.886 247.97C374.163 247.97 374.441 248.031 374.652 248.153L393.485 259.026C393.909 259.27 393.909 259.666 393.485 259.91L374.652 270.783C374.441 270.905 374.163 270.966 373.886 270.966V247.97Z" fill="#787878"/>
<path d="M400.22 214.417L398.467 214.169L392.08 259.25L391.851 260.863L393.809 259.762L400.22 214.417Z" fill="#D1D1D1"/>
<path d="M347.552 214.417L349.304 214.169L355.691 259.25L355.921 260.863L353.962 259.762L347.552 214.417Z" fill="#D1D1D1"/>
<path d="M373 225.402H374.769V270.725C374.054 271.035 373.666 271.044 373 270.725V225.402Z" fill="#D1D1D1"/>
<path fill-rule="evenodd" clip-rule="evenodd" d="M349.881 211.709C349.041 210.519 348.021 209.17 347.047 207.917C346.459 209.143 346.146 210.431 346.146 211.757C346.146 220.125 358.585 226.909 373.928 226.909C389.272 226.909 401.711 220.125 401.711 211.757C401.711 210.447 401.405 209.175 400.832 207.962C399.626 209.53 398.669 210.886 397.961 211.954C397.351 218.682 386.825 224.037 373.93 224.037C360.878 224.037 350.254 218.551 349.881 211.709Z" fill="#D1D1D1"/>
<mask id="mask0" mask-type="alpha" maskUnits="userSpaceOnUse" x="311" y="242" width="74" height="43">
<path d="M373.496 270.979L359.474 262.952L357.789 271.623L325.316 284.822L311.274 259.028L367.154 242.142L384.892 261.763L373.496 270.979Z" fill="#C4C4C4"/>
</mask>
<g mask="url(#mask0)">
<ellipse cx="364.168" cy="248.902" rx="4.19043" ry="4.45198" transform="rotate(-26.3165 364.168 248.902)" fill="url(#paint10_radial)"/>
<path d="M363.307 267.106C363.204 265.602 364.396 264.326 365.903 264.326C367.411 264.326 368.603 265.602 368.5 267.106L367.888 276.044C367.817 277.088 366.949 277.898 365.903 277.898C364.857 277.898 363.99 277.088 363.918 276.044L363.307 267.106Z" fill="url(#paint11_linear)"/>
<path d="M360.919 255.593C362.219 255.021 363.678 255.973 363.678 257.394L363.678 257.819C363.678 258.722 363.088 259.519 362.223 259.783C360.077 260.436 357.764 259.512 356.66 257.559L354.473 253.694C354.097 253.029 354.403 252.185 355.119 251.917C355.634 251.724 356.214 251.892 356.546 252.329L358.559 254.982C359.11 255.707 360.086 255.96 360.919 255.593Z" fill="url(#paint12_linear)"/>
<path d="M367.372 265.52C367.335 264.868 367.854 264.318 368.508 264.318C370.905 264.318 372.808 266.334 372.671 268.727L372.094 278.795C372.034 279.845 371.165 280.665 370.114 280.665C369.062 280.665 368.193 279.845 368.133 278.795L367.372 265.52Z" fill="url(#paint13_linear)"/>
<path d="M361.395 260.582C360.686 257.758 362.49 254.916 365.348 254.356C368.206 253.797 370.949 255.748 371.357 258.631L372.247 264.905C372.396 265.958 371.695 266.943 370.651 267.148L365.262 268.203C364.218 268.408 363.197 267.759 362.938 266.728L361.395 260.582Z" fill="url(#paint14_linear)"/>
<ellipse cx="361.685" cy="250.067" rx="0.592073" ry="1.1217" transform="rotate(-27.0429 361.685 250.067)" fill="#E0E0E0"/>
<ellipse cx="361.298" cy="250.268" rx="0.592073" ry="1.1217" transform="rotate(-27.0429 361.298 250.268)" fill="#F0EEEE"/>
<path fill-rule="evenodd" clip-rule="evenodd" d="M347.094 253.486L360.652 249.47L360.654 249.474C360.659 249.471 360.665 249.467 360.671 249.464C360.962 249.316 361.402 249.594 361.653 250.086C361.904 250.578 361.872 251.097 361.58 251.246C361.575 251.249 361.569 251.251 361.563 251.254L361.565 251.259L350.126 259.894L347.094 253.486Z" fill="url(#paint15_linear)"/>
<ellipse cx="349.671" cy="255.934" rx="1.64222" ry="4.24821" transform="rotate(-27.0429 349.671 255.934)" fill="#E0E0E0"/>
<ellipse cx="348.593" cy="256.481" rx="1.64222" ry="4.24821" transform="rotate(-27.0429 348.593 256.481)" fill="#F0EEEE"/>
<path fill-rule="evenodd" clip-rule="evenodd" d="M349.982 259.798C349.983 259.797 349.985 259.796 349.986 259.796C350.709 259.426 350.564 257.693 349.661 255.925C348.787 254.213 347.524 253.095 346.788 253.36L320.966 259.331L329.647 277.25L349.982 259.798Z" fill="url(#paint16_linear)"/>
<ellipse cx="326.302" cy="267.82" rx="4.62528" ry="11.965" transform="rotate(-27.0429 326.302 267.82)" fill="#E0E0E0"/>
<path d="M320.881 257.176L317.656 258.822L328.518 280.1L331.743 278.454L320.881 257.176Z" fill="#E0E0E0"/>
<ellipse cx="323.274" cy="269.37" rx="4.62528" ry="11.965" transform="rotate(-27.0429 323.274 269.37)" fill="white"/>
<ellipse cx="323.275" cy="269.365" rx="3.40018" ry="8.79583" transform="rotate(-27.0429 323.275 269.365)" fill="url(#paint17_linear)"/>
<path d="M369.008 254.794C371.123 254.794 372.25 257.288 370.854 258.876C370.707 259.042 370.502 259.142 370.281 259.149C369.197 259.186 365.776 259.255 363.267 258.786C360.871 258.338 357.087 255.357 355.626 254.145C355.244 253.828 355.064 253.338 355.133 252.846C355.273 251.846 356.357 251.281 357.258 251.739L363.037 254.677C363.188 254.754 363.355 254.794 363.525 254.794L369.008 254.794Z" fill="url(#paint18_linear)"/>
</g>
<g filter="url(#filter2_d)">
<path fill-rule="evenodd" clip-rule="evenodd" d="M289.177 211.919C289.339 211.836 289.503 211.747 289.668 211.652C294.357 208.945 298.158 202.361 298.158 196.947C298.158 191.532 294.357 189.338 289.668 192.045C289.171 192.332 288.684 192.663 288.211 193.031C287.092 188.451 283.004 186.936 278.132 189.749C273.736 192.288 269.978 197.612 268.463 202.943C267.373 202.742 266.067 203.013 264.663 203.824C261.429 205.691 258.714 209.823 257.958 213.722C256.986 213.326 255.724 213.476 254.346 214.272C251.574 215.872 249.275 219.538 248.848 222.847C248.187 222.909 247.461 223.151 246.699 223.591C243.624 225.367 241.13 229.686 241.13 233.237C241.13 236.789 243.623 238.228 246.699 236.452C247.258 236.129 247.798 235.722 248.308 235.251L248.308 235.525L289.177 211.927L289.177 211.919Z" fill="#DDDBDB"/>
<rect width="8.28327" height="7.33783" transform="matrix(0.866044 -0.499967 0.866044 0.499967 243.047 236.993)" fill="#DDDBDB"/>
<rect width="8.28327" height="7.33783" transform="matrix(0.866044 -0.499967 0.866044 0.499967 277.816 192.942)" fill="#DDDBDB"/>
<rect width="8.28327" height="7.33783" transform="matrix(0.866044 -0.499967 0.866044 0.499967 288.79 195.748)" fill="#DDDBDB"/>
<path fill-rule="evenodd" clip-rule="evenodd" d="M295.633 215.657C295.795 215.574 295.959 215.485 296.123 215.39C300.812 212.683 304.614 206.099 304.614 200.684C304.614 195.27 300.813 193.076 296.124 195.783C295.627 196.07 295.14 196.4 294.667 196.768C293.548 192.188 289.46 190.674 284.588 193.487C280.192 196.025 276.434 201.35 274.919 206.68C273.829 206.48 272.523 206.751 271.119 207.562C267.885 209.429 265.169 213.561 264.414 217.46C263.441 217.064 262.18 217.214 260.802 218.01C258.03 219.61 255.731 223.276 255.304 226.584C254.643 226.646 253.917 226.889 253.155 227.328C250.08 229.104 247.586 233.423 247.586 236.974C247.586 240.526 250.079 241.965 253.155 240.189C253.714 239.867 254.254 239.459 254.764 238.988L254.764 239.263L295.633 215.665L295.633 215.657Z" fill="white"/>
</g>
<g filter="url(#filter3_d)">
<path fill-rule="evenodd" clip-rule="evenodd" d="M456.675 140.032C458.116 135.385 461.411 130.816 465.245 128.602C470.398 125.627 474.576 128.029 474.589 133.968C475.875 132.118 477.47 130.541 479.198 129.544C483.459 127.083 486.913 129.077 486.913 133.998C486.913 134.3 486.9 134.605 486.875 134.914C490.407 133.17 493.193 134.965 493.193 139.119C493.193 143.468 490.14 148.757 486.373 150.932C485.39 151.499 484.456 151.798 483.612 151.854C482.368 155.565 479.719 159.16 476.652 160.931C475.066 161.847 473.591 162.145 472.365 161.906C470.347 165.307 467.608 168.262 464.59 170.005C460.612 172.302 457.118 171.932 455.122 169.482C453.837 171.744 452.042 173.724 450.057 174.87C446.959 176.658 444.327 175.881 443.367 173.236C442.492 174.187 441.525 174.993 440.508 175.58C436.598 177.838 433.429 176.008 433.429 171.494C433.429 166.979 436.599 161.489 440.509 159.232C441.052 158.918 441.582 158.683 442.09 158.523C442.054 158.157 442.035 157.775 442.035 157.377C442.036 151.418 446.219 144.171 451.38 141.191C453.346 140.056 455.17 139.704 456.675 140.032Z" fill="#DDDBDB"/>
<rect width="8.28327" height="7.33783" transform="matrix(0.866044 -0.499967 0.866044 0.499967 435.438 176.053)" fill="#DDDBDB"/>
<rect width="8.28327" height="7.33783" transform="matrix(0.866044 -0.499967 0.866044 0.499967 464.914 132.251)" fill="#DDDBDB"/>
<rect width="8.28327" height="7.33783" transform="matrix(0.866044 -0.499967 0.866044 0.499967 476.881 132.796)" fill="#DDDBDB"/>
<rect width="8.28327" height="7.33783" transform="matrix(0.866044 -0.499967 0.866044 0.499967 483.647 138.608)" fill="#DDDBDB"/>
<path fill-rule="evenodd" clip-rule="evenodd" d="M463.116 143.77C464.556 139.123 467.851 134.554 471.686 132.34C476.837 129.366 481.015 131.767 481.029 137.703C482.315 135.854 483.91 134.278 485.637 133.28C489.898 130.82 493.352 132.814 493.352 137.735C493.352 138.037 493.339 138.344 493.314 138.653C496.847 136.909 499.633 138.703 499.633 142.858C499.633 147.207 496.58 152.496 492.813 154.67C491.83 155.238 490.895 155.538 490.051 155.593C488.807 159.303 486.158 162.898 483.091 164.669C481.505 165.585 480.031 165.883 478.805 165.644C476.787 169.044 474.048 172 471.03 173.742C467.053 176.039 463.558 175.669 461.563 173.22C460.277 175.482 458.483 177.462 456.497 178.608C453.399 180.397 450.766 179.619 449.807 176.974C448.932 177.924 447.965 178.73 446.948 179.318C443.039 181.575 439.869 179.745 439.869 175.231C439.87 170.716 443.039 165.227 446.949 162.969C447.492 162.655 448.021 162.421 448.53 162.261C448.493 161.895 448.475 161.512 448.475 161.114C448.475 155.155 452.659 147.908 457.819 144.929C459.786 143.793 461.61 143.441 463.116 143.77Z" fill="white"/>
</g>
<defs>
<filter id="filter0_d" x="418.16" y="4.19482" width="86.0852" height="79.6156" filterUnits="userSpaceOnUse" color-interpolation-filters="sRGB">
<feFlood flood-opacity="0" result="BackgroundImageFix"/>
<feColorMatrix in="SourceAlpha" type="matrix" values="0 0 0 0 0 0 0 0 0 0 0 0 0 0 0 0 0 0 127 0"/>
<feOffset dy="4"/>
<feGaussianBlur stdDeviation="6.5"/>
<feColorMatrix type="matrix" values="0 0 0 0 0 0 0 0 0 0 0 0 0 0 0 0 0 0 0.17 0"/>
<feBlend mode="normal" in2="BackgroundImageFix" result="effect1_dropShadow"/>
<feBlend mode="normal" in="SourceGraphic" in2="effect1_dropShadow" result="shape"/>
</filter>
<filter id="filter1_d" x="141.466" y="54.5591" width="88.0144" height="73.237" filterUnits="userSpaceOnUse" color-interpolation-filters="sRGB">
<feFlood flood-opacity="0" result="BackgroundImageFix"/>
<feColorMatrix in="SourceAlpha" type="matrix" values="0 0 0 0 0 0 0 0 0 0 0 0 0 0 0 0 0 0 127 0"/>
<feOffset dy="4"/>
<feGaussianBlur stdDeviation="6.5"/>
<feColorMatrix type="matrix" values="0 0 0 0 0 0 0 0 0 0 0 0 0 0 0 0 0 0 0.17 0"/>
<feBlend mode="normal" in2="BackgroundImageFix" result="effect1_dropShadow"/>
<feBlend mode="normal" in="SourceGraphic" in2="effect1_dropShadow" result="shape"/>
</filter>
<filter id="filter2_d" x="228.13" y="179.331" width="89.4835" height="78.6191" filterUnits="userSpaceOnUse" color-interpolation-filters="sRGB">
<feFlood flood-opacity="0" result="BackgroundImageFix"/>
<feColorMatrix in="SourceAlpha" type="matrix" values="0 0 0 0 0 0 0 0 0 0 0 0 0 0 0 0 0 0 127 0"/>
<feOffset dy="4"/>
<feGaussianBlur stdDeviation="6.5"/>
<feColorMatrix type="matrix" values="0 0 0 0 0 0 0 0 0 0 0 0 0 0 0 0 0 0 0.17 0"/>
<feBlend mode="normal" in2="BackgroundImageFix" result="effect1_dropShadow"/>
<feBlend mode="normal" in="SourceGraphic" in2="effect1_dropShadow" result="shape"/>
</filter>
<filter id="filter3_d" x="420.429" y="118.325" width="92.204" height="78.9594" filterUnits="userSpaceOnUse" color-interpolation-filters="sRGB">
<feFlood flood-opacity="0" result="BackgroundImageFix"/>
<feColorMatrix in="SourceAlpha" type="matrix" values="0 0 0 0 0 0 0 0 0 0 0 0 0 0 0 0 0 0 127 0"/>
<feOffset dy="4"/>
<feGaussianBlur stdDeviation="6.5"/>
<feColorMatrix type="matrix" values="0 0 0 0 0 0 0 0 0 0 0 0 0 0 0 0 0 0 0.17 0"/>
<feBlend mode="normal" in2="BackgroundImageFix" result="effect1_dropShadow"/>
<feBlend mode="normal" in="SourceGraphic" in2="effect1_dropShadow" result="shape"/>
</filter>
<linearGradient id="paint0_linear" x1="412.267" y1="55.4172" x2="458.038" y2="183.129" gradientUnits="userSpaceOnUse">
<stop stop-color="#ECECEC"/>
<stop offset="1" stop-color="#909090"/>
</linearGradient>
<linearGradient id="paint1_linear" x1="335.837" y1="57.5813" x2="290.989" y2="184.051" gradientUnits="userSpaceOnUse">
<stop stop-color="#ECECEC"/>
<stop offset="1" stop-color="#919191"/>
</linearGradient>
<linearGradient id="paint2_linear" x1="5.12079" y1="29.3431" x2="19.8822" y2="0.278738" gradientUnits="userSpaceOnUse">
<stop stop-color="#F0F0F0"/>
<stop offset="1" stop-color="#A7A7A7"/>
</linearGradient>
<linearGradient id="paint3_linear" x1="371.44" y1="299.184" x2="371.311" y2="273.958" gradientUnits="userSpaceOnUse">
<stop stop-color="#A55220"/>
<stop offset="1" stop-color="#DD7C40"/>
</linearGradient>
<linearGradient id="paint4_linear" x1="383.604" y1="273.068" x2="383.604" y2="295.515" gradientUnits="userSpaceOnUse">
<stop stop-color="#FFE5CE"/>
<stop offset="1" stop-color="#F1BB8A"/>
</linearGradient>
<linearGradient id="paint5_linear" x1="1.21451" y1="27.5904" x2="27.0412" y2="6.8762" gradientUnits="userSpaceOnUse">
<stop stop-color="#FFE6C0"/>
<stop offset="1" stop-color="#FF9D66"/>
</linearGradient>
<linearGradient id="paint6_linear" x1="0" y1="0" x2="23.2341" y2="26.6637" gradientUnits="userSpaceOnUse">
<stop stop-color="#C2C2C2"/>
<stop offset="1" stop-color="#888888"/>
</linearGradient>
<linearGradient id="paint7_linear" x1="0" y1="0" x2="23.0516" y2="26.6379" gradientUnits="userSpaceOnUse">
<stop stop-color="#FFA166"/>
<stop offset="1" stop-color="#B34E10"/>
</linearGradient>
<linearGradient id="paint8_linear" x1="1.21451" y1="27.5904" x2="27.0412" y2="6.8762" gradientUnits="userSpaceOnUse">
<stop stop-color="#ECECEC"/>
<stop offset="1" stop-color="#DFDFDF"/>
</linearGradient>
<linearGradient id="paint9_linear" x1="5.24608" y1="30.061" x2="20.3687" y2="0.285558" gradientUnits="userSpaceOnUse">
<stop stop-color="#F0F0F0"/>
<stop offset="1" stop-color="#A7A7A7"/>
</linearGradient>
<radialGradient id="paint10_radial" cx="0" cy="0" r="1" gradientUnits="userSpaceOnUse" gradientTransform="translate(363.469 248.16) rotate(82.3417) scale(5.24072 4.94411)">
<stop offset="0.604167" stop-color="white"/>
<stop offset="1" stop-color="#CACACA"/>
</radialGradient>
<linearGradient id="paint11_linear" x1="358.094" y1="274.89" x2="369.036" y2="275.836" gradientUnits="userSpaceOnUse">
<stop offset="0.604167" stop-color="white"/>
<stop offset="1" stop-color="#CFCFCF"/>
</linearGradient>
<linearGradient id="paint12_linear" x1="348.744" y1="248.872" x2="360.572" y2="251.658" gradientUnits="userSpaceOnUse">
<stop offset="0.549253" stop-color="white"/>
<stop offset="1" stop-color="#D8D8D8"/>
</linearGradient>
<linearGradient id="paint13_linear" x1="362.24" y1="277.042" x2="373.297" y2="277.842" gradientUnits="userSpaceOnUse">
<stop offset="0.604167" stop-color="white"/>
<stop offset="1" stop-color="#CFCFCF"/>
</linearGradient>
<linearGradient id="paint14_linear" x1="358.056" y1="256.148" x2="371.393" y2="263.153" gradientUnits="userSpaceOnUse">
<stop offset="0.466667" stop-color="white"/>
<stop offset="1" stop-color="#D1D1D1"/>
</linearGradient>
<linearGradient id="paint15_linear" x1="359.602" y1="247.102" x2="362.823" y2="253.412" gradientUnits="userSpaceOnUse">
<stop stop-color="#CCCCCC"/>
<stop offset="1" stop-color="#5E5E5E"/>
</linearGradient>
<linearGradient id="paint16_linear" x1="344.326" y1="247.407" x2="353.376" y2="265.137" gradientUnits="userSpaceOnUse">
<stop stop-color="#CCCCCC"/>
<stop offset="1" stop-color="#5E5E5E"/>
</linearGradient>
<linearGradient id="paint17_linear" x1="326.675" y1="269.365" x2="315.864" y2="269.365" gradientUnits="userSpaceOnUse">
<stop stop-color="#4F4F4F"/>
<stop offset="1" stop-color="#FBFBFB"/>
</linearGradient>
<linearGradient id="paint18_linear" x1="356.943" y1="262.579" x2="362.317" y2="250.16" gradientUnits="userSpaceOnUse">
<stop offset="0.604167" stop-color="white"/>
<stop offset="1" stop-color="#B7B7B7"/>
</linearGradient>
</defs>
</svg>
