<svg width="110" height="32" viewBox="0 0 110 32" fill="none" xmlns="http://www.w3.org/2000/svg">
<path d="M4.07407 1H105.926C107.641 1 109 2.36037 109 4V28C109 29.6396 107.641 31 105.926 31H4.07407C2.35893 31 1 29.6396 1 28V4C1 2.36036 2.35893 1 4.07407 1Z" fill="white" stroke="#F2F2F2" stroke-width="2"/>
<path d="M55.5223 17.4017C54.8381 17.4048 54.1702 17.6069 53.6028 17.9824C53.0355 18.3579 52.5942 18.89 52.3346 19.5116C52.075 20.1331 52.0087 20.8162 52.1442 21.4747C52.2796 22.1332 52.6107 22.7375 53.0957 23.2114C53.5806 23.6853 54.1977 24.0076 54.869 24.1375C55.5403 24.2674 56.2357 24.1991 56.8675 23.9413C57.4994 23.6835 58.0392 23.2477 58.419 22.6889C58.7988 22.1301 59.0015 21.4734 59.0015 20.8017C59.0082 20.352 58.9226 19.9056 58.7499 19.4891C58.5772 19.0726 58.3209 18.6945 57.9963 18.3773C57.6716 18.06 57.2853 17.8102 56.8603 17.6426C56.4353 17.475 55.9802 17.393 55.5223 17.4017ZM55.5223 22.8657C55.1015 22.8946 54.6816 22.7985 54.3171 22.59C53.9527 22.3814 53.6606 22.0701 53.4787 21.6964C53.2969 21.3227 53.2338 20.904 53.2976 20.4946C53.3614 20.0852 53.5491 19.7041 53.8364 19.4009C54.1237 19.0977 54.4973 18.8863 54.9085 18.7943C55.3198 18.7023 55.7498 18.7338 56.1425 18.8849C56.5353 19.036 56.8726 19.2996 57.1108 19.6414C57.3489 19.9833 57.4768 20.3875 57.4778 20.8017C57.491 21.0641 57.4504 21.3264 57.3587 21.5732C57.2669 21.82 57.1257 22.0462 56.9434 22.2386C56.7612 22.431 56.5415 22.5856 56.2975 22.6933C56.0534 22.8009 55.7898 22.8596 55.5223 22.8657ZM47.9364 17.4017C47.2518 17.4032 46.5831 17.604 46.0147 17.9785C45.4463 18.3531 45.0037 18.8847 44.7428 19.5061C44.482 20.1275 44.4145 20.8108 44.5491 21.4699C44.6836 22.1289 45.0141 22.7339 45.4987 23.2086C45.9833 23.6833 46.6004 24.0064 47.2719 24.1369C47.9434 24.2674 48.6393 24.1996 49.2716 23.9421C49.9039 23.6845 50.4443 23.2487 50.8244 22.6898C51.2046 22.1308 51.4075 21.4738 51.4075 20.8017C51.4141 20.352 51.3285 19.9056 51.1558 19.4891C50.9831 19.0726 50.7268 18.6945 50.4022 18.3773C50.0776 18.06 49.6912 17.8102 49.2662 17.6426C48.8412 17.475 48.3862 17.393 47.9282 17.4017H47.9364ZM47.9364 22.8657C47.5154 22.8962 47.0948 22.8016 46.7293 22.5941C46.3639 22.3866 46.0705 22.076 45.8874 21.7025C45.7043 21.3291 45.6399 20.9102 45.7027 20.5003C45.7655 20.0905 45.9525 19.7087 46.2394 19.4046C46.5262 19.1006 46.8997 18.8883 47.3111 18.7956C47.7226 18.7029 48.1529 18.7339 48.5461 18.8846C48.9394 19.0353 49.2773 19.2988 49.5158 19.6408C49.7544 19.9827 49.8826 20.3872 49.8838 20.8017C49.8969 21.0641 49.8564 21.3264 49.7646 21.5732C49.6728 21.82 49.5316 22.0462 49.3494 22.2386C49.1671 22.431 48.9475 22.5856 48.7034 22.6933C48.4593 22.8009 48.1957 22.8596 47.9282 22.8657H47.9364ZM38.9001 18.4497V19.8897H42.4201C42.3649 20.5679 42.0777 21.2079 41.6053 21.7057C41.2531 22.0578 40.8297 22.3338 40.3624 22.5156C39.8951 22.6975 39.3942 22.7813 38.8919 22.7617C37.8546 22.7617 36.8598 22.3571 36.1263 21.6369C35.3929 20.9168 34.9808 19.9401 34.9808 18.9217C34.9808 17.9032 35.3929 16.9265 36.1263 16.2064C36.8598 15.4862 37.8546 15.0817 38.8919 15.0817C39.8842 15.0658 40.8424 15.4369 41.5564 16.1137L42.5912 15.0977C42.1092 14.6185 41.5342 14.2392 40.9001 13.9822C40.2661 13.7252 39.586 13.5958 38.9001 13.6017C38.1757 13.574 37.4531 13.6902 36.7755 13.9432C36.098 14.1963 35.4794 14.5811 34.957 15.0745C34.4345 15.5679 34.0189 16.1597 33.7349 16.8146C33.451 17.4695 33.3047 18.1739 33.3047 18.8857C33.3047 19.5974 33.451 20.3018 33.7349 20.9567C34.0189 21.6116 34.4345 22.2035 34.957 22.6969C35.4794 23.1902 36.098 23.575 36.7755 23.8281C37.4531 24.0812 38.1757 24.1973 38.9001 24.1697C39.5975 24.2006 40.2936 24.0845 40.9415 23.8292C41.5895 23.5739 42.1742 23.1854 42.6564 22.6897C43.51 21.7688 43.9658 20.5583 43.9275 19.3137C43.9301 19.0104 43.9028 18.7077 43.846 18.4097L38.9001 18.4497ZM75.8193 19.5697C75.6068 18.9558 75.2094 18.4199 74.6798 18.0327C74.1502 17.6456 73.5133 17.4255 72.8534 17.4017C72.4077 17.4008 71.9665 17.4897 71.5572 17.6629C71.1479 17.8361 70.7791 18.0898 70.4736 18.4085C70.1682 18.7271 69.9325 19.1039 69.7812 19.5156C69.63 19.9272 69.5663 20.3649 69.5941 20.8017C69.5842 21.2488 69.6662 21.6933 69.8352 22.1086C70.0042 22.5239 70.2567 22.9016 70.5777 23.2189C70.8986 23.5363 71.2814 23.7869 71.7032 23.9557C72.125 24.1246 72.5772 24.2082 73.0327 24.2017C73.6026 24.2047 74.1644 24.0689 74.6678 23.8064C75.1712 23.5439 75.6005 23.163 75.9171 22.6977L74.7356 21.8977C74.5593 22.1863 74.3096 22.425 74.0111 22.5905C73.7126 22.756 73.3755 22.8425 73.0327 22.8417C72.6797 22.8549 72.3309 22.7635 72.0315 22.5795C71.7322 22.3954 71.4961 22.1272 71.3541 21.8097L75.9904 19.9297L75.8193 19.5697ZM71.0934 20.7057C71.0769 20.4582 71.1108 20.21 71.1932 19.9756C71.2756 19.7412 71.4048 19.5253 71.5733 19.3405C71.7418 19.1558 71.9461 19.0059 72.1743 18.8996C72.4025 18.7933 72.65 18.7328 72.9023 18.7217C73.1651 18.7047 73.4272 18.7638 73.6561 18.8918C73.885 19.0198 74.0705 19.211 74.1897 19.4417L71.0934 20.7057ZM67.329 24.0017H68.8527V14.0017H67.329V24.0017ZM64.8356 18.1617H64.7786C64.5489 17.9096 64.2676 17.708 63.9531 17.5701C63.6385 17.4323 63.2979 17.3612 62.9534 17.3617C62.063 17.4041 61.2233 17.7812 60.6083 18.4149C59.9934 19.0487 59.6504 19.8904 59.6504 20.7657C59.6504 21.6409 59.9934 22.4827 60.6083 23.1164C61.2233 23.7501 62.063 24.1273 62.9534 24.1697C63.2987 24.1754 63.6411 24.1067 63.9564 23.9685C64.2717 23.8302 64.5524 23.6258 64.7786 23.3697H64.8275V23.8577C64.8275 25.1617 64.1186 25.8577 62.9778 25.8577C62.5979 25.8489 62.2292 25.7294 61.9187 25.5143C61.6082 25.2992 61.3699 24.9982 61.2341 24.6497L59.906 25.1937C60.156 25.7907 60.582 26.3009 61.1293 26.6587C61.6766 27.0164 62.3203 27.2055 62.9778 27.2017C64.7623 27.2017 66.2371 26.1697 66.2371 23.6577V17.6017H64.8356V18.1617ZM63.0919 22.8657C62.5663 22.8202 62.0771 22.583 61.7208 22.201C61.3645 21.8189 61.1668 21.3197 61.1668 20.8017C61.1668 20.2836 61.3645 19.7844 61.7208 19.4023C62.0771 19.0203 62.5663 18.7831 63.0919 18.7377C63.3525 18.7508 63.6078 18.815 63.8427 18.9265C64.0777 19.038 64.2875 19.1945 64.4599 19.3869C64.6322 19.5792 64.7637 19.8035 64.8464 20.0464C64.9291 20.2894 64.9615 20.5462 64.9415 20.8017C64.9638 21.0582 64.9328 21.3165 64.8504 21.561C64.7681 21.8054 64.6361 22.0309 64.4624 22.2239C64.2887 22.4168 64.077 22.5732 63.8401 22.6835C63.6031 22.7938 63.3458 22.8558 63.0838 22.8657H63.0919ZM82.9571 14.0017H79.3149V24.0017H80.8386V20.2097H82.9653C83.3995 20.2403 83.8355 20.1828 84.2462 20.0406C84.6568 19.8985 85.0332 19.6749 85.3519 19.3837C85.6705 19.0924 85.9247 18.7399 86.0985 18.3479C86.2723 17.956 86.362 17.5331 86.362 17.1057C86.362 16.6782 86.2723 16.2553 86.0985 15.8634C85.9247 15.4715 85.6705 15.1189 85.3519 14.8277C85.0332 14.5364 84.6568 14.3128 84.2462 14.1707C83.8355 14.0286 83.3995 13.971 82.9653 14.0017H82.9571ZM82.9571 18.8017H80.8304V15.3937H82.9897C83.4532 15.3937 83.8978 15.5744 84.2256 15.8963C84.5533 16.2181 84.7375 16.6545 84.7375 17.1097C84.7375 17.5648 84.5533 18.0012 84.2256 18.3231C83.8978 18.6449 83.4532 18.8257 82.9897 18.8257L82.9571 18.8017ZM92.3519 17.3617C91.7972 17.3291 91.2449 17.4564 90.7628 17.7278C90.2808 17.9993 89.89 18.4031 89.6386 18.8897L90.9912 19.4417C91.1245 19.2003 91.3265 19.0023 91.5724 18.8716C91.8183 18.7409 92.0977 18.6833 92.3764 18.7057C92.5698 18.6835 92.7658 18.6993 92.9529 18.7523C93.14 18.8053 93.3145 18.8943 93.4662 19.0142C93.6179 19.1341 93.7438 19.2825 93.8364 19.4506C93.9291 19.6188 93.9868 19.8034 94.006 19.9937V20.0977C93.5166 19.8433 92.9708 19.7114 92.4171 19.7137C90.9586 19.7137 89.4838 20.5137 89.4838 21.9617C89.4982 22.2704 89.5755 22.5732 89.7111 22.8521C89.8467 23.131 90.0379 23.3804 90.2734 23.5855C90.5089 23.7906 90.7839 23.9473 91.0821 24.0462C91.3804 24.1452 91.6958 24.1844 92.0097 24.1617C92.3934 24.1887 92.7775 24.1139 93.1215 23.9449C93.4656 23.776 93.7571 23.5193 93.9653 23.2017H94.0141V24.0017H95.4808V20.1537C95.4808 18.4017 94.1282 17.3857 92.3927 17.3857L92.3519 17.3617ZM92.1645 22.8417C91.6675 22.8417 90.9749 22.5937 90.9749 21.9937C90.9749 21.1937 91.8386 20.9297 92.6045 20.9297C93.0885 20.9179 93.5669 21.034 93.9897 21.2657C93.9387 21.6988 93.7301 22.0992 93.4022 22.3932C93.0743 22.6873 92.6492 22.855 92.2053 22.8657L92.1645 22.8417ZM100.826 17.6017L99.0823 21.9377H99.0334L97.2245 17.6017H95.5949L98.3082 23.6657L96.7601 27.0337H98.349L102.521 17.6017H100.826ZM87.129 24.0017H88.6527V14.0017H87.129V24.0017Z" fill="#333333"/>
<path d="M38.5864 8.2419C38.6003 8.53533 38.5533 8.82846 38.4482 9.10351C38.3432 9.37855 38.1823 9.62976 37.9753 9.8419C37.7443 10.0776 37.4652 10.2628 37.1563 10.3855C36.8475 10.5081 36.5157 10.5655 36.1827 10.5539C35.6776 10.55 35.1848 10.3998 34.7661 10.1222C34.3475 9.84452 34.0216 9.45173 33.8293 8.99303C33.637 8.53433 33.5869 8.03011 33.6852 7.54357C33.7836 7.05702 34.0259 6.60979 34.382 6.2579C34.616 6.02333 34.8966 5.8384 35.2063 5.71455C35.5161 5.59071 35.8484 5.53058 36.1827 5.5379C36.5272 5.53677 36.8683 5.60483 37.185 5.7379C37.4798 5.85466 37.7423 6.03834 37.9509 6.2739L37.519 6.6979C37.3564 6.50797 37.151 6.35779 36.9191 6.25921C36.6872 6.16063 36.4351 6.11636 36.1827 6.1299C35.9282 6.12867 35.6761 6.17792 35.4414 6.27469C35.2068 6.37146 34.9944 6.51376 34.8171 6.69305C34.6399 6.87234 34.5013 7.08494 34.4097 7.3181C34.3181 7.55125 34.2754 7.80016 34.2842 8.0499C34.2789 8.42281 34.3862 8.78891 34.5925 9.10203C34.7988 9.41515 35.095 9.66126 35.4437 9.80931C35.7923 9.95735 36.1778 10.0007 36.5515 9.93389C36.9252 9.86708 37.2704 9.6931 37.5435 9.4339C37.7942 9.16713 37.9388 8.8207 37.9509 8.4579H36.1827V7.8819H38.5539C38.5756 8.00071 38.5865 8.12119 38.5864 8.2419ZM42.3183 6.2419H40.1183V7.7619H42.1227V8.3379H40.1183V9.8579H42.3183V10.4499H39.4664V5.6499H42.3183V6.2419ZM44.9909 10.4499H44.3635V6.2419H42.9946V5.6499H46.3924V6.2419H44.9909V10.4499ZM48.7879 10.4499V5.6499H49.4153V10.4499H48.7879ZM52.202 10.4499H51.5746V6.2419H50.2057V5.6499H53.5627V6.2419H52.202V10.4499ZM59.9264 9.8259C59.4501 10.291 58.8056 10.552 58.1338 10.552C57.4621 10.552 56.8176 10.291 56.3413 9.8259C55.8783 9.34472 55.6203 8.70785 55.6203 8.0459C55.6203 7.38395 55.8783 6.74708 56.3413 6.2659C56.576 6.03369 56.8553 5.8494 57.163 5.72364C57.4706 5.59787 57.8006 5.53313 58.1338 5.53313C58.4671 5.53313 58.7971 5.59787 59.1047 5.72364C59.4124 5.8494 59.6916 6.03369 59.9264 6.2659C60.3913 6.74616 60.6505 7.38338 60.6505 8.0459C60.6505 8.70842 60.3913 9.34564 59.9264 9.8259ZM56.8057 9.4259C57.1585 9.7708 57.636 9.96444 58.1338 9.96444C58.6317 9.96444 59.1092 9.7708 59.462 9.4259C59.8101 9.04911 60.0029 8.55861 60.0029 8.0499C60.0029 7.54119 59.8101 7.05068 59.462 6.6739C59.1092 6.329 58.6317 6.13536 58.1338 6.13536C57.636 6.13536 57.1585 6.329 56.8057 6.6739C56.4576 7.05068 56.2647 7.54119 56.2647 8.0499C56.2647 8.55861 56.4576 9.04911 56.8057 9.4259ZM61.5316 10.4499V5.6499H62.2975L64.6768 9.3859V5.6499H65.3042V10.4499H64.6524L62.1672 6.5379V10.4499H61.5316Z" fill="#333333"/>
<path fill-rule="evenodd" clip-rule="evenodd" d="M58.1338 5.61313C57.8113 5.61313 57.492 5.67578 57.1943 5.79749C56.8969 5.91907 56.6269 6.09717 56.3998 6.32156C55.9515 6.7878 55.7018 7.40471 55.7018 8.0459C55.7018 8.68701 55.9515 9.30384 56.3996 9.77006C56.8606 10.2197 57.484 10.472 58.1338 10.472C58.7837 10.472 59.4072 10.2196 59.8682 9.76996C60.3181 9.30466 60.569 8.68753 60.569 8.0459C60.569 7.40419 60.318 6.78698 59.868 6.32166C59.6409 6.09723 59.3709 5.91909 59.0734 5.79749C58.7757 5.67578 58.4564 5.61313 58.1338 5.61313ZM57.1316 5.64978C57.4492 5.51996 57.7898 5.45312 58.1338 5.45312C58.4779 5.45312 58.8185 5.51996 59.136 5.64978C59.4536 5.7796 59.7419 5.96984 59.9843 6.20954L59.9855 6.21078C60.4647 6.70591 60.7319 7.36286 60.7319 8.0459C60.7319 8.72894 60.4647 9.38588 59.9855 9.88101L59.9839 9.88265C59.4923 10.3626 58.8272 10.632 58.1338 10.632C57.4405 10.632 56.7754 10.3626 56.2838 9.88263L56.282 9.88086C55.8047 9.38483 55.5388 8.72828 55.5388 8.0459C55.5388 7.36352 55.8047 6.70699 56.282 6.21096L56.2834 6.20952C56.5258 5.96982 56.8141 5.7796 57.1316 5.64978ZM36.1809 5.61788C35.8577 5.61081 35.5365 5.66893 35.2371 5.78864C34.9376 5.90836 34.6664 6.08713 34.4402 6.31388L34.4398 6.31428C34.095 6.655 33.8604 7.08804 33.7652 7.55914C33.67 8.03024 33.7185 8.51844 33.9047 8.96258C34.0908 9.40672 34.4064 9.78704 34.8117 10.0559C35.2171 10.3247 35.6942 10.4701 36.1834 10.4739L36.1856 10.4739C36.5072 10.4852 36.8275 10.4298 37.1258 10.3113C37.424 10.1929 37.6934 10.014 37.9166 9.7865C38.1158 9.5822 38.2708 9.34028 38.3719 9.07542C38.4731 8.81052 38.5184 8.52821 38.5051 8.2456L38.5864 8.2419L38.505 8.24187C38.505 8.14815 38.4982 8.05459 38.4845 7.9619H36.2642V8.3779H38.0351L38.0323 8.46051C38.0196 8.84251 37.8674 9.20727 37.6034 9.48815L37.6002 9.49151C37.3155 9.7617 36.9556 9.94296 36.5661 10.0126C36.1765 10.0822 35.7747 10.0371 35.4113 9.88273C35.0479 9.72842 34.7392 9.47188 34.5241 9.14549C34.3094 8.81965 34.1976 8.43875 34.2027 8.05072C34.1939 7.79086 34.2384 7.53191 34.3337 7.28931C34.4292 7.04611 34.5738 6.82435 34.7587 6.63733C34.9436 6.4503 35.1651 6.30187 35.4099 6.20093C35.6539 6.1003 35.9161 6.04893 36.1807 6.04989C36.4449 6.03609 36.7087 6.0826 36.9515 6.18579C37.1678 6.27775 37.3622 6.41249 37.5226 6.58126L37.8385 6.27113C37.6472 6.07155 37.4139 5.91482 37.1545 5.81209L37.1529 5.81146C36.8464 5.68269 36.5164 5.61681 36.183 5.6179L36.1809 5.61788ZM38.6679 8.24006C38.682 8.5437 38.6332 8.84699 38.5245 9.1316C38.4156 9.41679 38.2488 9.67727 38.0342 9.89724C37.7952 10.141 37.5064 10.3327 37.1869 10.4596C36.8677 10.5864 36.525 10.6458 36.181 10.6339C35.6601 10.6297 35.1521 10.4747 34.7205 10.1885C34.2886 9.902 33.9523 9.49674 33.754 9.02348C33.5556 8.55021 33.5039 8.02999 33.6053 7.528C33.7067 7.0261 33.9567 6.56474 34.324 6.20171C34.5658 5.95942 34.8556 5.7684 35.1756 5.64046C35.4953 5.51262 35.8384 5.45048 36.1835 5.4579C36.5385 5.45688 36.8899 5.52702 37.2162 5.66402C37.5227 5.78553 37.7955 5.97653 38.0124 6.22141L38.0622 6.27771L37.5138 6.81614L37.4567 6.74938C37.3022 6.56895 37.1071 6.42627 36.8867 6.33262C36.6664 6.23897 36.4269 6.19692 36.1872 6.20978L36.1823 6.21004C35.9388 6.20887 35.6975 6.25585 35.473 6.34845C35.2484 6.44105 35.0453 6.57721 34.8756 6.74878C34.706 6.92034 34.5734 7.12377 34.4857 7.34688C34.3981 7.56998 34.3573 7.80816 34.3657 8.04714L34.3658 8.05102C34.3607 8.40813 34.4633 8.75872 34.6609 9.05858C34.8585 9.35843 35.1421 9.59411 35.476 9.73588C35.8099 9.87765 36.179 9.91917 36.5369 9.85519C36.894 9.79134 37.2239 9.62531 37.4852 9.37797C37.7026 9.1459 37.8354 8.85045 37.8643 8.5379H36.1013V7.8019H38.622L38.6341 7.86776C38.6565 7.99064 38.6679 8.11522 38.6679 8.24006ZM39.385 5.5699H42.3998V6.3219H40.1998V7.6819H42.2042V8.4179H40.1998V9.7779H42.3998V10.5299H39.385V5.5699ZM39.5479 5.7299V10.3699H42.2368V9.9379H40.0368V8.2579H42.0413V7.8419H40.0368V6.1619H42.2368V5.7299H39.5479ZM42.9131 5.5699H46.4739V6.3219H45.0724V10.5299H44.282V6.3219H42.9131V5.5699ZM43.0761 5.7299V6.1619H44.445V10.3699H44.9094V6.1619H46.3109V5.7299H43.0761ZM48.7064 5.5699H49.4968V10.5299H48.7064V5.5699ZM48.8694 5.7299V10.3699H49.3338V5.7299H48.8694ZM50.1242 5.5699H53.6442V6.3219H52.2835V10.5299H51.4931V6.3219H50.1242V5.5699ZM50.2872 5.7299V6.1619H51.6561V10.3699H52.1205V6.1619H53.4813V5.7299H50.2872ZM61.4501 5.5699H62.3427L64.5953 9.10706V5.5699H65.3857V10.5299H64.6072L62.2487 6.81733V10.5299H61.4501V5.5699ZM61.6131 5.7299V10.3699H62.0857V6.25847L64.6976 10.3699H65.2227V5.7299H64.7583V9.66474L62.2524 5.7299H61.6131ZM56.7482 6.61721C57.1162 6.25738 57.6145 6.05536 58.1338 6.05536C58.6532 6.05536 59.1515 6.25738 59.5195 6.61721L59.5224 6.62008C59.8841 7.01158 60.0844 7.52132 60.0844 8.0499C60.0844 8.57848 59.8841 9.08815 59.5223 9.47965L59.5196 9.48266C59.1515 9.84249 58.6532 10.0444 58.1338 10.0444C57.6145 10.0444 57.1162 9.84241 56.7482 9.48259L56.8057 9.4259L56.7453 9.47965C56.3836 9.08815 56.1833 8.57848 56.1833 8.0499C56.1833 7.52132 56.3836 7.01165 56.7453 6.62015L56.7482 6.61721ZM56.8647 9.37065C57.202 9.69972 57.6583 9.88444 58.1338 9.88444C58.6094 9.88444 59.0657 9.69972 59.403 9.37065C59.7367 9.00878 59.9215 8.53807 59.9215 8.0499C59.9215 7.56173 59.7367 7.09102 59.403 6.72915C59.0657 6.40008 58.6094 6.21536 58.1338 6.21536C57.6583 6.21536 57.202 6.40008 56.8647 6.72915C56.531 7.09102 56.3462 7.56173 56.3462 8.0499C56.3462 8.53807 56.531 9.00878 56.8647 9.37065Z" fill="#333333"/>
<path d="M8.55179 26.1594L18.5337 15.9944L8.56015 5.84766C8.29376 6.00563 8.12891 6.3714 8.12891 6.85019V25.1666C8.13248 25.6454 8.29137 25.9845 8.55179 26.1594Z" fill="#4D4D4D"/>
<path d="M18.8923 15.7125L21.8656 12.6843L9.75729 5.92299C9.55341 5.80235 9.32181 5.73863 9.08594 5.73828L18.8911 15.7113L18.8923 15.7125Z" fill="#4D4D4D"/>
<path d="M18.8909 16.2734L9.05469 26.2902C9.30157 26.2944 9.54474 26.2288 9.7571 26.1006L21.8893 19.3211L18.8909 16.2734Z" fill="#4D4D4D"/>
<path d="M26.2519 15.137L22.2225 12.8828L19.168 15.9937L22.2452 19.124L26.2507 16.8759C27.1024 16.3983 27.1024 15.6121 26.2519 15.137Z" fill="#4D4D4D"/>
</svg>
