<svg width="110" height="32" viewBox="0 0 110 32" fill="none" xmlns="http://www.w3.org/2000/svg">
<path d="M4.07407 1H105.926C107.641 1 109 2.36037 109 4V28C109 29.6396 107.641 31 105.926 31H4.07407C2.35893 31 1 29.6396 1 28V4C1 2.36036 2.35893 1 4.07407 1Z" fill="white" stroke="#F2F2F2" stroke-width="2"/>
<path d="M26.1661 15.4514C26.1436 12.9947 28.2149 11.7995 28.3096 11.7438C27.1365 10.0646 25.3183 9.83516 24.6794 9.81687C23.1523 9.65908 21.671 10.714 20.8931 10.714C20.0996 10.714 18.9017 9.83211 17.6106 9.85803C15.9492 9.88318 14.3949 10.8276 13.5425 12.2942C11.7832 15.2845 13.0953 19.6788 14.7808 22.0959C15.6239 23.2796 16.6091 24.6014 17.8986 24.5549C19.1602 24.5038 19.6315 23.7652 21.1539 23.7652C22.6624 23.7652 23.1049 24.5549 24.4201 24.5252C25.774 24.5038 26.6265 23.336 27.4401 22.1416C28.4144 20.7848 28.8057 19.4486 28.8212 19.38C28.7894 19.3693 26.1917 18.3959 26.1661 15.4514Z" fill="#4D4D4D"/>
<path d="M23.6818 8.2262C24.3603 7.39306 24.8246 6.2596 24.6957 5.10938C23.7136 5.15206 22.4854 5.77634 21.7781 6.59118C21.1524 7.30921 20.5934 8.48612 20.7378 9.5929C21.841 9.6737 22.9737 9.04637 23.6818 8.2262Z" fill="#4D4D4D"/>
<path d="M44.4216 24.3822H42.6585L41.6927 21.4026H38.3357L37.4158 24.3822H35.6992L39.0251 14.2383H41.0794L44.4216 24.3822ZM41.4016 20.1525L40.5282 17.5037C40.4358 17.2331 40.2627 16.5959 40.0072 15.5928H39.9762C39.8745 16.0242 39.7107 16.6615 39.4855 17.5037L38.6277 20.1525H41.4016Z" fill="#333333"/>
<path d="M52.9751 20.6354C52.9751 21.8794 52.6328 22.8627 51.948 23.5846C51.3347 24.2271 50.5731 24.548 49.664 24.548C48.6826 24.548 47.9777 24.202 47.5484 23.5099H47.5173V27.363H45.8621V19.4761C45.8621 18.694 45.8412 17.8914 45.8008 17.0681H47.2565L47.3488 18.2275H47.3799C47.9319 17.354 48.7696 16.918 49.8938 16.918C50.7726 16.918 51.5063 17.2587 52.0932 17.9409C52.6817 18.6239 52.9751 19.5218 52.9751 20.6354ZM51.2889 20.6949C51.2889 19.983 51.1258 19.396 50.7982 18.9341C50.4403 18.4524 49.9597 18.2115 49.3573 18.2115C48.9489 18.2115 48.5778 18.3457 48.2463 18.6102C47.914 18.8769 47.6967 19.2253 47.595 19.6567C47.5437 19.8579 47.5181 20.0226 47.5181 20.1522V21.3718C47.5181 21.9038 47.6842 22.3528 48.0165 22.7194C48.3488 23.0861 48.7805 23.269 49.3115 23.269C49.9349 23.269 50.4201 23.0327 50.7672 22.5616C51.115 22.0898 51.2889 21.4678 51.2889 20.6949Z" fill="#333333"/>
<path d="M61.5447 20.6354C61.5447 21.8794 61.2023 22.8627 60.5168 23.5846C59.9042 24.2271 59.1426 24.548 58.2335 24.548C57.2522 24.548 56.5472 24.202 56.1187 23.5099H56.0876V27.363H54.4324V19.4761C54.4324 18.694 54.4115 17.8914 54.3711 17.0681H55.8268L55.9192 18.2275H55.9502C56.5014 17.354 57.3391 16.918 58.4641 16.918C59.3421 16.918 60.0758 17.2587 60.6643 17.9409C61.2504 18.6239 61.5447 19.5218 61.5447 20.6354ZM59.8584 20.6949C59.8584 19.983 59.6946 19.396 59.367 18.9341C59.0091 18.4524 58.5301 18.2115 57.9268 18.2115C57.5177 18.2115 57.1474 18.3457 56.8151 18.6102C56.4828 18.8769 56.2662 19.2253 56.1645 19.6567C56.114 19.8579 56.0876 20.0226 56.0876 20.1522V21.3718C56.0876 21.9038 56.2538 22.3528 56.5845 22.7194C56.9168 23.0853 57.3484 23.269 57.881 23.269C58.5044 23.269 58.9897 23.0327 59.3367 22.5616C59.6845 22.0898 59.8584 21.4678 59.8584 20.6949Z" fill="#333333"/>
<path d="M71.1245 21.5377C71.1245 22.4006 70.8194 23.1026 70.2068 23.6446C69.5337 24.2368 68.5967 24.5326 67.3925 24.5326C66.2808 24.5326 65.3895 24.3222 64.7148 23.9007L65.0984 22.5462C65.825 22.9776 66.6224 23.1941 67.4911 23.1941C68.1145 23.1941 68.5998 23.0554 68.9484 22.7794C69.2954 22.5035 69.4685 22.1331 69.4685 21.6711C69.4685 21.2595 69.3257 20.9127 69.0392 20.6314C68.7543 20.3502 68.2783 20.0887 67.6138 19.8471C65.8049 19.1847 64.9012 18.2144 64.9012 16.9384C64.9012 16.1045 65.2179 15.4207 65.8522 14.8887C66.4842 14.3559 67.3273 14.0898 68.3816 14.0898C69.3218 14.0898 70.1028 14.2507 70.7262 14.5716L70.3124 15.8964C69.7301 15.5854 69.0718 15.4299 68.335 15.4299C67.7528 15.4299 67.2978 15.5709 66.9717 15.8514C66.6961 16.1022 66.5579 16.4078 66.5579 16.7699C66.5579 17.1708 66.7155 17.5024 67.0323 17.7631C67.3079 18.004 67.8087 18.2647 68.5353 18.5459C69.4243 18.8973 70.0772 19.3082 70.4972 19.7792C70.9157 20.2488 71.1245 20.8365 71.1245 21.5377Z" fill="#333333"/>
<path d="M76.5956 18.2882H74.7712V21.8395C74.7712 22.7428 75.0926 23.194 75.737 23.194C76.0328 23.194 76.2781 23.1689 76.4722 23.1186L76.518 24.3526C76.1919 24.4723 75.7626 24.5325 75.2308 24.5325C74.5771 24.5325 74.0663 24.3366 73.6975 23.9456C73.3303 23.5538 73.1455 22.8967 73.1455 21.9737V18.2867H72.0586V17.0671H73.1455V15.7278L74.7712 15.2461V17.0671H76.5956V18.2882Z" fill="#333333"/>
<path d="M84.8283 20.6644C84.8283 21.7887 84.5006 22.7118 83.8469 23.4336C83.1614 24.1768 82.2515 24.5473 81.1173 24.5473C80.0241 24.5473 79.1538 24.1913 78.5048 23.4794C77.8558 22.7674 77.5312 21.8687 77.5312 20.7856C77.5312 19.6521 77.8651 18.7237 78.5351 18.0019C79.2035 17.2793 80.1057 16.918 81.2399 16.918C82.333 16.918 83.2126 17.2739 83.8764 17.9866C84.5115 18.678 84.8283 19.5706 84.8283 20.6644ZM83.1109 20.717C83.1109 20.0424 82.9642 19.4639 82.6669 18.9814C82.3198 18.3975 81.8237 18.1063 81.1809 18.1063C80.5156 18.1063 80.0102 18.3982 79.6631 18.9814C79.3658 19.4646 79.2191 20.0523 79.2191 20.7475C79.2191 21.4221 79.3658 22.0006 79.6631 22.4824C80.021 23.0662 80.521 23.3574 81.1662 23.3574C81.7981 23.3574 82.2942 23.0601 82.6521 22.4671C82.9572 21.9755 83.1109 21.3908 83.1109 20.717Z" fill="#333333"/>
<path d="M90.2085 18.4973C90.0447 18.4676 89.87 18.4524 89.6868 18.4524C89.1045 18.4524 88.6542 18.6681 88.3375 19.1003C88.0619 19.4814 87.9237 19.9631 87.9237 20.5447V24.3826H86.2692L86.2848 19.3716C86.2848 18.5286 86.2638 17.761 86.2227 17.0689H87.6644L87.7249 18.4684H87.7707C87.9454 17.9874 88.221 17.6002 88.5983 17.3098C88.9671 17.0483 89.3654 16.918 89.7947 16.918C89.9476 16.918 90.0858 16.9286 90.2085 16.9477V18.4973Z" fill="#333333"/>
<path d="M97.613 20.3774C97.613 20.6686 97.5936 20.914 97.5524 21.1145H92.5868C92.6062 21.8371 92.8461 22.3897 93.3073 22.7709C93.7258 23.1116 94.2669 23.2823 94.9315 23.2823C95.6667 23.2823 96.3374 23.1672 96.9407 22.9363L97.2 24.0644C96.495 24.3662 95.6628 24.5164 94.7024 24.5164C93.5472 24.5164 92.6404 24.1825 91.9805 23.5156C91.3221 22.8486 90.9922 21.953 90.9922 20.8294C90.9922 19.7265 91.2989 18.808 91.913 18.0754C92.5558 17.2934 93.4245 16.9023 94.5176 16.9023C95.5914 16.9023 96.4042 17.2934 96.9562 18.0754C97.3933 18.6967 97.613 19.465 97.613 20.3774ZM96.0347 19.9559C96.0455 19.4742 95.9376 19.058 95.7132 18.7066C95.4268 18.2546 94.9866 18.0289 94.3942 18.0289C93.8531 18.0289 93.4129 18.2492 93.0767 18.6913C92.8011 19.0427 92.6373 19.4642 92.5868 19.9551H96.0347V19.9559Z" fill="#333333"/>
<path d="M40.8558 8.00082C40.8558 8.89799 40.5817 9.57334 40.0344 10.0269C39.5274 10.4453 38.8069 10.655 37.8738 10.655C37.411 10.655 37.0151 10.6351 36.6836 10.5955V5.69351C37.116 5.62491 37.5818 5.58984 38.0849 5.58984C38.9739 5.58984 39.6439 5.77964 40.0957 6.15924C40.6019 6.58838 40.8558 7.20199 40.8558 8.00082ZM39.9979 8.02293C39.9979 7.44134 39.8411 6.99542 39.5274 6.68443C39.2138 6.37419 38.7557 6.2187 38.1525 6.2187C37.8963 6.2187 37.6781 6.23546 37.4972 6.27053V9.99714C37.5974 10.0124 37.7806 10.0192 38.0469 10.0192C38.6695 10.0192 39.1501 9.84927 39.4886 9.50931C39.8271 9.16935 39.9979 8.67389 39.9979 8.02293Z" fill="#333333"/>
<path d="M45.4048 8.78146C45.4048 9.33409 45.2441 9.78687 44.9226 10.1421C44.5857 10.5072 44.1393 10.6894 43.5819 10.6894C43.0446 10.6894 42.6169 10.5148 42.2978 10.1642C41.9795 9.81431 41.8203 9.37297 41.8203 8.84092C41.8203 8.28448 41.9841 7.8279 42.3133 7.47345C42.6425 7.11901 43.085 6.94141 43.6424 6.94141C44.1797 6.94141 44.6113 7.11596 44.9382 7.46583C45.2487 7.80579 45.4048 8.24484 45.4048 8.78146ZM44.5609 8.80738C44.5609 8.47581 44.4879 8.19149 44.3427 7.95443C44.1719 7.66783 43.9289 7.52452 43.6129 7.52452C43.2861 7.52452 43.0376 7.66783 42.8668 7.95443C42.7209 8.19149 42.6487 8.48038 42.6487 8.82186C42.6487 9.15344 42.7217 9.43776 42.8668 9.67482C43.0431 9.96142 43.2884 10.1047 43.6052 10.1047C43.9157 10.1047 44.1595 9.95913 44.3349 9.66719C44.4856 9.42556 44.5609 9.13896 44.5609 8.80738Z" fill="#333333"/>
<path d="M51.5057 7.01562L50.3605 10.6088H49.6152L49.1409 9.04853C49.0205 8.65903 48.9227 8.27181 48.8466 7.88763H48.8319C48.7612 8.28248 48.6634 8.66894 48.5376 9.04853L48.0338 10.6088H47.2799L46.2031 7.01562H47.0393L47.4531 8.72382C47.5532 9.12781 47.6355 9.51274 47.7015 9.87709H47.7163C47.7768 9.57677 47.877 9.19412 48.0183 8.73144L48.5376 7.01639H49.2007L49.6983 8.69485C49.8186 9.10418 49.9165 9.49826 49.9918 9.87786H50.0143C50.0694 9.50817 50.1525 9.11409 50.2627 8.69485L50.7068 7.01639H51.5057V7.01562Z" fill="#333333"/>
<path d="M55.7196 10.6101H54.906V8.55203C54.906 7.91784 54.6607 7.60075 54.1685 7.60075C53.927 7.60075 53.7322 7.68764 53.5808 7.8622C53.4309 8.03675 53.3548 8.24256 53.3548 8.47809V10.6093H52.5412V8.04361C52.5412 7.72804 52.5311 7.3858 52.5117 7.01534H53.2267L53.2648 7.57712H53.2873C53.382 7.40256 53.5233 7.2585 53.7089 7.1434C53.9294 7.00925 54.1762 6.94141 54.4464 6.94141C54.788 6.94141 55.0722 7.04965 55.2981 7.26688C55.5791 7.53291 55.7196 7.93004 55.7196 8.45751V10.6101Z" fill="#333333"/>
<path d="M57.9652 10.6091H57.1523V5.36719H57.9652V10.6091Z" fill="#333333"/>
<path d="M62.7563 8.78146C62.7563 9.33409 62.5956 9.78687 62.2742 10.1421C61.9373 10.5072 61.4901 10.6894 60.9334 10.6894C60.3954 10.6894 59.9676 10.5148 59.6493 10.1642C59.331 9.81431 59.1719 9.37297 59.1719 8.84092C59.1719 8.28448 59.3357 7.8279 59.6649 7.47345C59.994 7.11901 60.4366 6.94141 60.9932 6.94141C61.5312 6.94141 61.9621 7.11596 62.2897 7.46583C62.6003 7.80579 62.7563 8.24484 62.7563 8.78146ZM61.9116 8.80738C61.9116 8.47581 61.8387 8.19149 61.6935 7.95443C61.5235 7.66783 61.2797 7.52452 60.9645 7.52452C60.6369 7.52452 60.3884 7.66783 60.2184 7.95443C60.0724 8.19149 60.0002 8.48038 60.0002 8.82186C60.0002 9.15344 60.0732 9.43776 60.2184 9.67482C60.3946 9.96142 60.64 10.1047 60.9567 10.1047C61.2673 10.1047 61.5103 9.95913 61.6857 9.66719C61.8371 9.42556 61.9116 9.13896 61.9116 8.80738Z" fill="#333333"/>
<path d="M66.692 10.6078H65.9615L65.9009 10.1939H65.8784C65.6284 10.524 65.2721 10.6894 64.8093 10.6894C64.4639 10.6894 64.1844 10.5804 63.974 10.3639C63.783 10.1672 63.6875 9.92255 63.6875 9.63213C63.6875 9.19308 63.8738 8.85845 64.2488 8.62673C64.623 8.39501 65.1494 8.28143 65.8272 8.28677V8.21969C65.8272 7.74634 65.5741 7.51004 65.0671 7.51004C64.7061 7.51004 64.3878 7.59922 64.113 7.77606L63.9476 7.25164C64.2876 7.04507 64.7076 6.94141 65.203 6.94141C66.1595 6.94141 66.6392 7.43687 66.6392 8.42778V9.75104C66.6392 10.1101 66.6571 10.3959 66.692 10.6078ZM65.8473 9.37297V8.81882C64.9499 8.80357 64.5011 9.0452 64.5011 9.54295C64.5011 9.73046 64.5524 9.87071 64.6572 9.96447C64.762 10.0582 64.8955 10.1047 65.0547 10.1047C65.2332 10.1047 65.4002 10.0491 65.5523 9.93855C65.7053 9.82727 65.7992 9.68625 65.8342 9.51322C65.8427 9.47435 65.8473 9.42709 65.8473 9.37297Z" fill="#333333"/>
<path d="M71.3178 10.6091H70.5958L70.5578 10.0321H70.5353C70.3047 10.4712 69.9119 10.6907 69.3599 10.6907C68.9189 10.6907 68.5517 10.5207 68.2605 10.1808C67.9694 9.8408 67.8242 9.39946 67.8242 8.85751C67.8242 8.27591 67.9818 7.80485 68.2986 7.44507C68.6052 7.10968 68.981 6.94199 69.4282 6.94199C69.9196 6.94199 70.2635 7.10434 70.4592 7.42982H70.4747V5.36719H71.2891V9.6411C71.2891 9.99097 71.2984 10.3134 71.3178 10.6091ZM70.4747 9.0938V8.49468C70.4747 8.39101 70.467 8.30717 70.4522 8.24314C70.4064 8.05105 70.3078 7.88946 70.158 7.75911C70.0066 7.62877 69.8241 7.56322 69.6137 7.56322C69.3102 7.56322 69.0726 7.68136 68.8979 7.91842C68.7248 8.15548 68.6371 8.45809 68.6371 8.82778C68.6371 9.18299 68.7201 9.47111 68.8871 9.69293C69.0633 9.92922 69.3009 10.0474 69.5982 10.0474C69.8653 10.0474 70.0788 9.94904 70.241 9.75162C70.3979 9.56944 70.4747 9.34992 70.4747 9.0938Z" fill="#333333"/>
<path d="M78.2759 8.78146C78.2759 9.33409 78.1152 9.78687 77.7937 10.1421C77.4568 10.5072 77.0112 10.6894 76.453 10.6894C75.9165 10.6894 75.4887 10.5148 75.1689 10.1642C74.8506 9.81431 74.6914 9.37297 74.6914 8.84092C74.6914 8.28448 74.8552 7.8279 75.1844 7.47345C75.5136 7.11901 75.9561 6.94141 76.5143 6.94141C77.0508 6.94141 77.4832 7.11596 77.8093 7.46583C78.1198 7.80579 78.2759 8.24484 78.2759 8.78146ZM77.4327 8.80738C77.4327 8.47581 77.3598 8.19149 77.2146 7.95443C77.043 7.66783 76.8008 7.52452 76.484 7.52452C76.158 7.52452 75.9095 7.66783 75.7379 7.95443C75.592 8.19149 75.5198 8.48038 75.5198 8.82186C75.5198 9.15344 75.5928 9.43776 75.7379 9.67482C75.9142 9.96142 76.1595 10.1047 76.4763 10.1047C76.7868 10.1047 77.0314 9.95913 77.2068 9.66719C77.3567 9.42556 77.4327 9.13896 77.4327 8.80738Z" fill="#333333"/>
<path d="M82.6486 10.6101H81.8357V8.55203C81.8357 7.91784 81.5904 7.60075 81.0974 7.60075C80.8559 7.60075 80.6611 7.68764 80.5105 7.8622C80.3598 8.03675 80.2845 8.24256 80.2845 8.47809V10.6093H79.4701V8.04361C79.4701 7.72804 79.4608 7.3858 79.4414 7.01534H80.1557L80.1937 7.57712H80.2162C80.3117 7.40256 80.453 7.2585 80.6378 7.1434C80.859 7.00925 81.1052 6.94141 81.3761 6.94141C81.7169 6.94141 82.0011 7.04965 82.227 7.26688C82.5088 7.53291 82.6486 7.93004 82.6486 8.45751V10.6101Z" fill="#333333"/>
<path d="M88.1235 7.61433H87.2275V9.35987C87.2275 9.8035 87.3867 10.0253 87.7019 10.0253C87.8479 10.0253 87.969 10.0131 88.0645 9.98796L88.0854 10.5939C87.9247 10.6534 87.7135 10.6831 87.4535 10.6831C87.132 10.6831 86.8821 10.5871 86.7012 10.395C86.5195 10.2029 86.4294 9.87972 86.4294 9.42619V7.61433H85.8945V7.01597H86.4294V6.35739L87.2268 6.12109V7.01521H88.1227V7.61433H88.1235Z" fill="#333333"/>
<path d="M92.4323 10.6091H91.6179V8.56633C91.6179 7.92223 91.3726 7.5998 90.8812 7.5998C90.5038 7.5998 90.2461 7.78655 90.1048 8.16005C90.0807 8.23856 90.0667 8.33461 90.0667 8.44742V10.6084H89.2539V5.36719H90.0667V7.53273H90.0823C90.3385 7.13865 90.7057 6.94199 91.1816 6.94199C91.5185 6.94199 91.7972 7.05022 92.0185 7.26746C92.2941 7.53806 92.4323 7.94053 92.4323 8.47257V10.6091Z" fill="#333333"/>
<path d="M96.8748 8.64417C96.8748 8.78747 96.864 8.9079 96.8446 9.00623H94.4044C94.4153 9.36144 94.5318 9.63204 94.7577 9.81955C94.9642 9.98724 95.2305 10.0711 95.5566 10.0711C95.9176 10.0711 96.2468 10.0147 96.5433 9.90111L96.6706 10.456C96.3236 10.6039 95.9152 10.6778 95.4424 10.6778C94.8757 10.6778 94.4293 10.514 94.1063 10.1862C93.7818 9.85842 93.6211 9.41861 93.6211 8.86674C93.6211 8.32479 93.7709 7.87354 94.0729 7.51376C94.3881 7.12959 94.8144 6.9375 95.3524 6.9375C95.8788 6.9375 96.2786 7.12959 96.5488 7.51376C96.7669 7.81865 96.8748 8.19597 96.8748 8.64417ZM96.0985 8.4376C96.1047 8.20054 96.0511 7.99626 95.9409 7.82399C95.7996 7.60218 95.5845 7.49089 95.2934 7.49089C95.0279 7.49089 94.8113 7.59913 94.6459 7.81637C94.5108 7.9894 94.4308 8.19597 94.4044 8.4376H96.0985Z" fill="#333333"/>
</svg>
