<svg width="106" height="32" viewBox="0 0 106 32" fill="none" xmlns="http://www.w3.org/2000/svg">
<path d="M102.074 0H3.92593C1.7577 0 0 1.79086 0 4V28C0 30.2091 1.7577 32 3.92593 32H102.074C104.242 32 106 30.2091 106 28V4C106 1.79086 104.242 0 102.074 0Z" fill="black"/>
<path d="M102.074 0.64C102.949 0.64 103.787 0.993999 104.406 1.62412C105.024 2.25424 105.372 3.10887 105.372 4V28C105.372 28.8911 105.024 29.7458 104.406 30.3759C103.787 31.006 102.949 31.36 102.074 31.36H3.92593C3.0513 31.36 2.2125 31.006 1.59404 30.3759C0.975591 29.7458 0.628148 28.8911 0.628148 28V4C0.628148 3.10887 0.975591 2.25424 1.59404 1.62412C2.2125 0.993999 3.0513 0.64 3.92593 0.64H102.074ZM102.074 0H3.92593C2.88471 0 1.88613 0.421427 1.14988 1.17157C0.413623 1.92172 0 2.93913 0 4V28C0 29.0609 0.413623 30.0783 1.14988 30.8284C1.88613 31.5786 2.88471 32 3.92593 32H102.074C103.115 32 104.114 31.5786 104.85 30.8284C105.586 30.0783 106 29.0609 106 28V4C106 2.93913 105.586 1.92172 104.85 1.17157C104.114 0.421427 103.115 0 102.074 0Z" fill="#A6A6A6"/>
<path d="M25.2157 15.4514C25.194 12.9947 27.1901 11.7995 27.2813 11.7438C26.1509 10.0646 24.3988 9.83516 23.7831 9.81687C22.3115 9.65908 20.8841 10.714 20.1344 10.714C19.3699 10.714 18.2155 9.83211 16.9714 9.85803C15.3704 9.88318 13.8726 10.8276 13.0512 12.2942C11.3559 15.2845 12.6202 19.6788 14.2444 22.0959C15.0569 23.2796 16.0063 24.6014 17.2489 24.5549C18.4646 24.5038 18.9187 23.7652 20.3858 23.7652C21.8394 23.7652 22.2659 24.5549 23.5332 24.5251C24.8379 24.5038 25.6594 23.336 26.4434 22.1416C27.3823 20.7848 27.7594 19.4486 27.7743 19.38C27.7437 19.3693 25.2404 18.3959 25.2157 15.4514Z" fill="white"/>
<path d="M22.8239 8.22619C23.4778 7.39306 23.9251 6.2596 23.801 5.10938C22.8546 5.15206 21.671 5.77634 20.9895 6.59118C20.3865 7.30921 19.8478 8.48612 19.987 9.5929C21.0501 9.6737 22.1416 9.04637 22.8239 8.22619Z" fill="white"/>
<path d="M42.8076 24.3822H41.1086L40.1779 21.4026H36.943L36.0565 24.3822H34.4023L37.6073 14.2383H39.5869L42.8076 24.3822ZM39.8974 20.1525L39.0557 17.5037C38.9667 17.2331 38.7999 16.5959 38.5537 15.5928H38.5238C38.4258 16.0242 38.2679 16.6615 38.051 17.5037L37.2243 20.1525H39.8974Z" fill="white"/>
<path d="M51.0502 20.6354C51.0502 21.8794 50.7203 22.8627 50.0604 23.5846C49.4694 24.2271 48.7355 24.548 47.8594 24.548C46.9138 24.548 46.2345 24.202 45.8208 23.5099H45.7908V27.363H44.1958V19.4761C44.1958 18.694 44.1756 17.8914 44.1367 17.0681H45.5395L45.6285 18.2275H45.6584C46.1903 17.354 46.9976 16.918 48.0809 16.918C48.9277 16.918 49.6347 17.2587 50.2003 17.9409C50.7674 18.6239 51.0502 19.5218 51.0502 20.6354ZM49.4252 20.6949C49.4252 19.983 49.2681 19.396 48.9524 18.9341C48.6075 18.4524 48.1444 18.2115 47.5639 18.2115C47.1704 18.2115 46.8128 18.3457 46.4933 18.6102C46.1731 18.8769 45.9636 19.2253 45.8656 19.6567C45.8163 19.8579 45.7916 20.0226 45.7916 20.1522V21.3718C45.7916 21.9038 45.9517 22.3528 46.2719 22.7194C46.5921 23.0861 47.008 23.269 47.5198 23.269C48.1205 23.269 48.5881 23.0327 48.9225 22.5616C49.2577 22.0898 49.4252 21.4678 49.4252 20.6949Z" fill="white"/>
<path d="M59.3072 20.6354C59.3072 21.8794 58.9773 22.8627 58.3167 23.5846C57.7265 24.2271 56.9925 24.548 56.1165 24.548C55.1708 24.548 54.4915 24.202 54.0786 23.5099H54.0486V27.363H52.4536V19.4761C52.4536 18.694 52.4334 17.8914 52.3945 17.0681H53.7973L53.8863 18.2275H53.9162C54.4474 17.354 55.2546 16.918 56.3387 16.918C57.1848 16.918 57.8918 17.2587 58.4589 17.9409C59.0237 18.6239 59.3072 19.5218 59.3072 20.6354ZM57.6823 20.6949C57.6823 19.983 57.5245 19.396 57.2087 18.9341C56.8639 18.4524 56.4023 18.2115 55.821 18.2115C55.4267 18.2115 55.0698 18.3457 54.7496 18.6102C54.4294 18.8769 54.2207 19.2253 54.1227 19.6567C54.0741 19.8579 54.0486 20.0226 54.0486 20.1522V21.3718C54.0486 21.9038 54.2087 22.3528 54.5274 22.7194C54.8476 23.0853 55.2636 23.269 55.7768 23.269C56.3776 23.269 56.8452 23.0327 57.1796 22.5616C57.5147 22.0898 57.6823 21.4678 57.6823 20.6949Z" fill="white"/>
<path d="M68.5398 21.5377C68.5398 22.4006 68.2458 23.1026 67.6556 23.6446C67.0069 24.2368 66.1039 24.5326 64.9436 24.5326C63.8723 24.5326 63.0134 24.3222 62.3633 23.9007L62.7329 22.5462C63.4331 22.9776 64.2014 23.1941 65.0386 23.1941C65.6393 23.1941 66.1069 23.0554 66.4428 22.7794C66.7773 22.5035 66.9441 22.1331 66.9441 21.6711C66.9441 21.2595 66.8064 20.9127 66.5304 20.6314C66.2558 20.3502 65.7972 20.0887 65.1568 19.8471C63.4137 19.1847 62.5428 18.2144 62.5428 16.9384C62.5428 16.1045 62.8481 15.4207 63.4593 14.8887C64.0683 14.3559 64.8807 14.0898 65.8967 14.0898C66.8027 14.0898 67.5553 14.2507 68.1561 14.5716L67.7573 15.8964C67.1962 15.5854 66.5618 15.4299 65.8518 15.4299C65.2907 15.4299 64.8523 15.5709 64.5381 15.8514C64.2725 16.1022 64.1393 16.4078 64.1393 16.7699C64.1393 17.1708 64.2912 17.5024 64.5965 17.7631C64.862 18.004 65.3446 18.2647 66.0448 18.5459C66.9014 18.8973 67.5306 19.3082 67.9354 19.7792C68.3386 20.2488 68.5398 20.8365 68.5398 21.5377Z" fill="white"/>
<path d="M73.8135 18.2882H72.0554V21.8395C72.0554 22.7428 72.3651 23.194 72.986 23.194C73.2711 23.194 73.5075 23.1689 73.6945 23.1186L73.7387 24.3526C73.4244 24.4723 73.0107 24.5325 72.4983 24.5325C71.8683 24.5325 71.3761 24.3366 71.0207 23.9456C70.6668 23.5538 70.4888 22.8967 70.4888 21.9737V18.2867H69.4414V17.0671H70.4888V15.7278L72.0554 15.2461V17.0671H73.8135V18.2882Z" fill="white"/>
<path d="M81.7465 20.6644C81.7465 21.7887 81.4308 22.7118 80.8009 23.4336C80.1403 24.1768 79.2635 24.5473 78.1705 24.5473C77.1171 24.5473 76.2784 24.1913 75.653 23.4794C75.0276 22.7674 74.7148 21.8687 74.7148 20.7856C74.7148 19.6521 75.0365 18.7237 75.6822 18.0019C76.3263 17.2793 77.1956 16.918 78.2887 16.918C79.342 16.918 80.1896 17.2739 80.8293 17.9866C81.4413 18.678 81.7465 19.5706 81.7465 20.6644ZM80.0916 20.717C80.0916 20.0424 79.9502 19.4639 79.6637 18.9814C79.3293 18.3975 78.8512 18.1063 78.2318 18.1063C77.5906 18.1063 77.1036 18.3982 76.7692 18.9814C76.4827 19.4646 76.3413 20.0523 76.3413 20.7475C76.3413 21.4221 76.4827 22.0006 76.7692 22.4824C77.1141 23.0662 77.5959 23.3574 78.2176 23.3574C78.8266 23.3574 79.3046 23.0601 79.6495 22.4671C79.9435 21.9755 80.0916 21.3908 80.0916 20.717Z" fill="white"/>
<path d="M86.9307 18.4973C86.7729 18.4676 86.6045 18.4524 86.428 18.4524C85.8669 18.4524 85.433 18.6681 85.1277 19.1003C84.8622 19.4814 84.729 19.9631 84.729 20.5447V24.3826H83.1347L83.1497 19.3716C83.1497 18.5286 83.1295 17.761 83.0898 17.0689H84.4791L84.5375 18.4684H84.5816C84.7499 17.9874 85.0155 17.6002 85.3791 17.3098C85.7345 17.0483 86.1183 16.918 86.532 16.918C86.6794 16.918 86.8125 16.9286 86.9307 16.9477V18.4973Z" fill="white"/>
<path d="M94.0636 20.3774C94.0636 20.6686 94.0449 20.914 94.0053 21.1145H89.2203C89.239 21.8371 89.4701 22.3897 89.9145 22.7709C90.3178 23.1116 90.8392 23.2823 91.4796 23.2823C92.1881 23.2823 92.8345 23.1672 93.4158 22.9363L93.6656 24.0644C92.9863 24.3662 92.1843 24.5164 91.2589 24.5164C90.1457 24.5164 89.2719 24.1825 88.636 23.5156C88.0016 22.8486 87.6836 21.953 87.6836 20.8294C87.6836 19.7265 87.9791 18.808 88.5709 18.0754C89.1903 17.2934 90.0275 16.9023 91.0808 16.9023C92.1155 16.9023 92.8988 17.2934 93.4307 18.0754C93.8519 18.6967 94.0636 19.465 94.0636 20.3774ZM92.5427 19.9559C92.5532 19.4742 92.4492 19.058 92.233 18.7066C91.9569 18.2546 91.5327 18.0289 90.9619 18.0289C90.4405 18.0289 90.0163 18.2492 89.6923 18.6913C89.4267 19.0427 89.2689 19.4642 89.2203 19.9551H92.5427V19.9559Z" fill="white"/>
<path d="M39.372 8.00082C39.372 8.89799 39.1079 9.57334 38.5805 10.0269C38.092 10.4453 37.3977 10.655 36.4984 10.655C36.0526 10.655 35.671 10.6351 35.3516 10.5955V5.69351C35.7683 5.62491 36.2171 5.58984 36.7019 5.58984C37.5585 5.58984 38.2042 5.77964 38.6396 6.15924C39.1274 6.58838 39.372 7.20199 39.372 8.00082ZM38.5453 8.02293C38.5453 7.44134 38.3942 6.99542 38.092 6.68443C37.7897 6.37419 37.3483 6.2187 36.767 6.2187C36.5201 6.2187 36.3099 6.23546 36.1356 6.27053V9.99714C36.2321 10.0124 36.4087 10.0192 36.6653 10.0192C37.2653 10.0192 37.7284 9.84927 38.0546 9.50931C38.3807 9.16935 38.5453 8.67389 38.5453 8.02293Z" fill="white"/>
<path d="M43.7549 8.78147C43.7549 9.33409 43.6 9.78687 43.2903 10.1421C42.9656 10.5072 42.5354 10.6894 41.9983 10.6894C41.4806 10.6894 41.0684 10.5148 40.7609 10.1642C40.4541 9.81431 40.3008 9.37297 40.3008 8.84092C40.3008 8.28448 40.4586 7.8279 40.7758 7.47345C41.093 7.11901 41.5195 6.94141 42.0566 6.94141C42.5743 6.94141 42.9903 7.11596 43.3053 7.46583C43.6045 7.80579 43.7549 8.24484 43.7549 8.78147ZM42.9417 8.80738C42.9417 8.47581 42.8714 8.19149 42.7315 7.95443C42.5669 7.66783 42.3327 7.52452 42.0282 7.52452C41.7133 7.52452 41.4738 7.66783 41.3093 7.95443C41.1686 8.19149 41.099 8.48038 41.099 8.82186C41.099 9.15344 41.1694 9.43776 41.3093 9.67482C41.4791 9.96142 41.7155 10.1047 42.0207 10.1047C42.32 10.1047 42.5549 9.95913 42.724 9.66719C42.8691 9.42556 42.9417 9.13896 42.9417 8.80738Z" fill="white"/>
<path d="M49.6332 7.01562L48.5297 10.6088H47.8115L47.3544 9.04853C47.2384 8.65903 47.1441 8.27181 47.0708 7.88763H47.0566C46.9885 8.28248 46.8943 8.66893 46.7731 9.04853L46.2875 10.6088H45.5611L44.5234 7.01562H45.3292L45.7279 8.72382C45.8244 9.12781 45.9037 9.51274 45.9673 9.87709H45.9815C46.0399 9.57677 46.1364 9.19412 46.2726 8.73144L46.7731 7.01639H47.412L47.8915 8.69485C48.0075 9.10418 48.1017 9.49826 48.1743 9.87786H48.196C48.2491 9.50817 48.3292 9.11409 48.4354 8.69485L48.8633 7.01639H49.6332V7.01562Z" fill="white"/>
<path d="M53.6967 10.6101H52.9127V8.55203C52.9127 7.91784 52.6763 7.60075 52.202 7.60075C51.9693 7.60075 51.7815 7.68764 51.6356 7.8622C51.4913 8.03675 51.4179 8.24256 51.4179 8.47809V10.6093H50.6339V8.04361C50.6339 7.72804 50.6242 7.3858 50.6055 7.01534H51.2945L51.3312 7.57712H51.3529C51.4441 7.40256 51.5803 7.2585 51.7591 7.1434C51.9716 7.00925 52.2095 6.94141 52.4698 6.94141C52.799 6.94141 53.0728 7.04965 53.2905 7.26688C53.5613 7.53291 53.6967 7.93004 53.6967 8.45751V10.6101Z" fill="white"/>
<path d="M55.8614 10.6091H55.0781V5.36719H55.8614V10.6091Z" fill="white"/>
<path d="M60.4775 8.78147C60.4775 9.33409 60.3227 9.78687 60.013 10.1421C59.6883 10.5072 59.2574 10.6894 58.7209 10.6894C58.2025 10.6894 57.7903 10.5148 57.4835 10.1642C57.1768 9.81431 57.0234 9.37297 57.0234 8.84092C57.0234 8.28448 57.1813 7.8279 57.4985 7.47345C57.8157 7.11901 58.2421 6.94141 58.7785 6.94141C59.297 6.94141 59.7122 7.11596 60.0279 7.46583C60.3272 7.80579 60.4775 8.24484 60.4775 8.78147ZM59.6636 8.80738C59.6636 8.47581 59.5933 8.19149 59.4534 7.95443C59.2895 7.66783 59.0546 7.52452 58.7509 7.52452C58.4352 7.52452 58.1958 7.66783 58.0319 7.95443C57.8913 8.19149 57.8217 8.48038 57.8217 8.82186C57.8217 9.15344 57.892 9.43776 58.0319 9.67482C58.2017 9.96142 58.4381 10.1047 58.7434 10.1047C59.0426 10.1047 59.2768 9.95913 59.4459 9.66719C59.5918 9.42556 59.6636 9.13896 59.6636 8.80738Z" fill="white"/>
<path d="M64.2703 10.6078H63.5663L63.5079 10.1939H63.4862C63.2453 10.524 62.9019 10.6894 62.456 10.6894C62.1231 10.6894 61.8538 10.5804 61.6511 10.3639C61.467 10.1672 61.375 9.92255 61.375 9.63213C61.375 9.19308 61.5546 8.85845 61.9159 8.62673C62.2765 8.39501 62.7837 8.28143 63.4368 8.28677V8.21969C63.4368 7.74634 63.193 7.51004 62.7044 7.51004C62.3565 7.51004 62.0498 7.59922 61.785 7.77606L61.6256 7.25164C61.9533 7.04507 62.358 6.94141 62.8354 6.94141C63.757 6.94141 64.2194 7.43687 64.2194 8.42778V9.75104C64.2194 10.1101 64.2366 10.3959 64.2703 10.6078ZM63.4563 9.37297V8.81882C62.5915 8.80357 62.159 9.0452 62.159 9.54295C62.159 9.73046 62.2084 9.87071 62.3094 9.96447C62.4104 10.0582 62.5391 10.1047 62.6925 10.1047C62.8645 10.1047 63.0254 10.0491 63.172 9.93855C63.3194 9.82727 63.4099 9.68625 63.4436 9.51322C63.4518 9.47435 63.4563 9.42709 63.4563 9.37297Z" fill="white"/>
<path d="M68.726 10.6091H68.0302L67.9935 10.0321H67.9718C67.7496 10.4712 67.3711 10.6907 66.8392 10.6907C66.4142 10.6907 66.0604 10.5207 65.7798 10.1808C65.4993 9.8408 65.3594 9.39946 65.3594 8.85751C65.3594 8.27591 65.5112 7.80485 65.8165 7.44507C66.112 7.10968 66.4741 6.94199 66.905 6.94199C67.3786 6.94199 67.71 7.10434 67.8985 7.42982H67.9135V5.36719H68.6983V9.6411C68.6983 9.99097 68.7073 10.3134 68.726 10.6091ZM67.9135 9.0938V8.49468C67.9135 8.39101 67.906 8.30717 67.8918 8.24314C67.8477 8.05105 67.7526 7.88946 67.6083 7.75911C67.4624 7.62877 67.2866 7.56322 67.0838 7.56322C66.7913 7.56322 66.5624 7.68136 66.394 7.91842C66.2272 8.15548 66.1427 8.45809 66.1427 8.82778C66.1427 9.18299 66.2227 9.47112 66.3836 9.69293C66.5534 9.92922 66.7823 10.0474 67.0688 10.0474C67.3262 10.0474 67.5319 9.94904 67.6883 9.75162C67.8394 9.56944 67.9135 9.34992 67.9135 9.0938Z" fill="white"/>
<path d="M75.4307 8.78147C75.4307 9.33409 75.2758 9.78687 74.9661 10.1421C74.6414 10.5072 74.212 10.6894 73.6741 10.6894C73.1571 10.6894 72.7449 10.5148 72.4367 10.1642C72.1299 9.81431 71.9766 9.37297 71.9766 8.84092C71.9766 8.28448 72.1344 7.8279 72.4516 7.47345C72.7688 7.11901 73.1953 6.94141 73.7332 6.94141C74.2501 6.94141 74.6668 7.11596 74.9811 7.46583C75.2803 7.80579 75.4307 8.24484 75.4307 8.78147ZM74.6182 8.80738C74.6182 8.47581 74.5479 8.19149 74.408 7.95443C74.2426 7.66783 74.0092 7.52452 73.704 7.52452C73.3898 7.52452 73.1504 7.66783 72.985 7.95443C72.8444 8.19149 72.7748 8.48038 72.7748 8.82186C72.7748 9.15344 72.8451 9.43776 72.985 9.67482C73.1549 9.96142 73.3913 10.1047 73.6965 10.1047C73.9958 10.1047 74.2314 9.95913 74.4005 9.66719C74.5449 9.42556 74.6182 9.13896 74.6182 8.80738Z" fill="white"/>
<path d="M79.6452 10.6101H78.8619V8.55203C78.8619 7.91784 78.6255 7.60075 78.1504 7.60075C77.9178 7.60075 77.73 7.68764 77.5849 7.8622C77.4397 8.03675 77.3672 8.24256 77.3672 8.47809V10.6093H76.5824V8.04361C76.5824 7.72804 76.5734 7.3858 76.5547 7.01534H77.243L77.2796 7.57712H77.3013C77.3933 7.40256 77.5295 7.2585 77.7076 7.1434C77.9208 7.00925 78.1579 6.94141 78.419 6.94141C78.7475 6.94141 79.0213 7.04965 79.239 7.26688C79.5105 7.53291 79.6452 7.93004 79.6452 8.45751V10.6101Z" fill="white"/>
<path d="M84.9213 7.61433H84.058V9.35987C84.058 9.8035 84.2113 10.0253 84.5151 10.0253C84.6557 10.0253 84.7724 10.0131 84.8645 9.98796L84.8847 10.5939C84.7298 10.6534 84.5263 10.6831 84.2757 10.6831C83.966 10.6831 83.7251 10.5871 83.5507 10.395C83.3757 10.2029 83.2889 9.87972 83.2889 9.42619V7.61433H82.7734V7.01597H83.2889V6.35739L84.0572 6.12109V7.01521H84.9206V7.61433H84.9213Z" fill="white"/>
<path d="M89.0745 10.6091H88.2898V8.56633C88.2898 7.92223 88.0534 7.5998 87.5798 7.5998C87.2162 7.5998 86.9678 7.78655 86.8317 8.16005C86.8085 8.23857 86.795 8.33461 86.795 8.44742V10.6084H86.0117V5.36719H86.795V7.53273H86.81C87.0569 7.13865 87.4107 6.94199 87.8693 6.94199C88.194 6.94199 88.4626 7.05022 88.6758 7.26746C88.9414 7.53806 89.0745 7.94053 89.0745 8.47257V10.6091Z" fill="white"/>
<path d="M93.3542 8.64417C93.3542 8.78747 93.3437 8.9079 93.325 9.00623H90.9736C90.9841 9.36144 91.0963 9.63204 91.314 9.81955C91.513 9.98724 91.7696 10.0711 92.0838 10.0711C92.4317 10.0711 92.7489 10.0147 93.0347 9.90111L93.1574 10.456C92.823 10.6039 92.4295 10.6778 91.9739 10.6778C91.4277 10.6778 90.9976 10.514 90.6863 10.1862C90.3736 9.85842 90.2188 9.41861 90.2188 8.86674C90.2188 8.32479 90.3631 7.87354 90.6542 7.51376C90.9579 7.12959 91.3686 6.9375 91.8871 6.9375C92.3943 6.9375 92.7796 7.12959 93.0399 7.51376C93.2502 7.81865 93.3542 8.19597 93.3542 8.64417ZM92.606 8.4376C92.612 8.20054 92.5604 7.99626 92.4542 7.82399C92.318 7.60218 92.1108 7.49089 91.8302 7.49089C91.5744 7.49089 91.3656 7.59913 91.2063 7.81637C91.0761 7.9894 90.999 8.19597 90.9736 8.4376H92.606Z" fill="white"/>
</svg>
