<svg width="106" height="32" viewBox="0 0 106 32" fill="none" xmlns="http://www.w3.org/2000/svg">
<path d="M102.074 0H3.92593C1.7577 0 0 1.79086 0 4V28C0 30.2091 1.7577 32 3.92593 32H102.074C104.242 32 106 30.2091 106 28V4C106 1.79086 104.242 0 102.074 0Z" fill="black"/>
<path d="M102.074 0.64C102.949 0.64 103.787 0.993999 104.406 1.62412C105.024 2.25424 105.372 3.10887 105.372 4V28C105.372 28.8911 105.024 29.7458 104.406 30.3759C103.787 31.006 102.949 31.36 102.074 31.36H3.92593C3.0513 31.36 2.2125 31.006 1.59404 30.3759C0.975591 29.7458 0.628148 28.8911 0.628148 28V4C0.628148 3.10887 0.975591 2.25424 1.59404 1.62412C2.2125 0.993999 3.0513 0.64 3.92593 0.64H102.074ZM102.074 0H3.92593C2.88471 0 1.88613 0.421427 1.14988 1.17157C0.413623 1.92172 0 2.93913 0 4V28C0 29.0609 0.413623 30.0783 1.14988 30.8284C1.88613 31.5786 2.88471 32 3.92593 32H102.074C103.115 32 104.114 31.5786 104.85 30.8284C105.586 30.0783 106 29.0609 106 28V4C106 2.93913 105.586 1.92172 104.85 1.17157C104.114 0.421427 103.115 0 102.074 0Z" fill="#A6A6A6"/>
<path d="M53.5034 17.4017C52.8441 17.4048 52.2005 17.6069 51.6538 17.9824C51.1071 18.3579 50.6818 18.89 50.4316 19.5116C50.1815 20.1331 50.1176 20.8162 50.2482 21.4747C50.3787 22.1332 50.6977 22.7375 51.165 23.2114C51.6324 23.6853 52.227 24.0076 52.8739 24.1375C53.5208 24.2674 54.1909 24.1991 54.7998 23.9413C55.4086 23.6835 55.9289 23.2477 56.2949 22.6889C56.6609 22.1301 56.8562 21.4734 56.8562 20.8017C56.8626 20.352 56.7801 19.9056 56.6137 19.4891C56.4473 19.0726 56.2003 18.6945 55.8875 18.3773C55.5746 18.06 55.2024 17.8102 54.7928 17.6426C54.3832 17.475 53.9447 17.393 53.5034 17.4017ZM53.5034 22.8657C53.098 22.8946 52.6933 22.7985 52.3421 22.59C51.9909 22.3814 51.7094 22.0701 51.5342 21.6964C51.359 21.3227 51.2982 20.904 51.3596 20.4946C51.4211 20.0852 51.602 19.7041 51.8789 19.4009C52.1557 19.0977 52.5157 18.8863 52.912 18.7943C53.3083 18.7023 53.7226 18.7338 54.1011 18.8849C54.4796 19.036 54.8047 19.2996 55.0342 19.6414C55.2636 19.9833 55.3869 20.3875 55.3879 20.8017C55.4005 21.0641 55.3615 21.3264 55.273 21.5732C55.1846 21.82 55.0485 22.0462 54.8729 22.2386C54.6973 22.431 54.4856 22.5856 54.2504 22.6933C54.0152 22.8009 53.7612 22.8596 53.5034 22.8657ZM46.1934 17.4017C45.5337 17.4032 44.8893 17.604 44.3415 17.9785C43.7938 18.3531 43.3673 18.8847 43.1159 19.5061C42.8646 20.1275 42.7996 20.8108 42.9293 21.4699C43.0589 22.1289 43.3773 22.7339 43.8443 23.2086C44.3114 23.6833 44.906 24.0064 45.5531 24.1369C46.2002 24.2674 46.8707 24.1996 47.48 23.9421C48.0894 23.6845 48.6101 23.2487 48.9764 22.6898C49.3427 22.1308 49.5382 21.4738 49.5382 20.8017C49.5447 20.352 49.4622 19.9056 49.2958 19.4891C49.1293 19.0726 48.8824 18.6945 48.5695 18.3773C48.2567 18.06 47.8844 17.8102 47.4749 17.6426C47.0653 17.475 46.6268 17.393 46.1855 17.4017H46.1934ZM46.1934 22.8657C45.7877 22.8962 45.3824 22.8016 45.0302 22.5941C44.6781 22.3866 44.3953 22.076 44.2189 21.7025C44.0425 21.3291 43.9804 20.9102 44.0409 20.5003C44.1014 20.0905 44.2816 19.7087 44.5581 19.4046C44.8345 19.1006 45.1944 18.8883 45.5909 18.7956C45.9873 18.7029 46.402 18.7339 46.781 18.8846C47.1599 19.0354 47.4855 19.2988 47.7154 19.6408C47.9453 19.9827 48.0689 20.3872 48.07 20.8017C48.0826 21.0641 48.0436 21.3264 47.9551 21.5732C47.8667 21.82 47.7306 22.0462 47.555 22.2386C47.3794 22.431 47.1677 22.5856 46.9325 22.6933C46.6973 22.8009 46.4433 22.8596 46.1855 22.8657H46.1934ZM37.4857 18.4497V19.8897H40.8777C40.8245 20.5679 40.5478 21.2079 40.0925 21.7057C39.7531 22.0578 39.3452 22.3338 38.8948 22.5156C38.4445 22.6975 37.9618 22.7813 37.4778 22.7617C36.4782 22.7617 35.5196 22.3571 34.8128 21.6369C34.106 20.9168 33.7089 19.9401 33.7089 18.9217C33.7089 17.9032 34.106 16.9265 34.8128 16.2064C35.5196 15.4862 36.4782 15.0817 37.4778 15.0817C38.434 15.0658 39.3574 15.4369 40.0454 16.1137L41.0425 15.0977C40.5781 14.6185 40.024 14.2392 39.413 13.9822C38.802 13.7252 38.1466 13.5958 37.4857 13.6017C36.7876 13.574 36.0913 13.6902 35.4384 13.9432C34.7855 14.1963 34.1894 14.5811 33.686 15.0745C33.1825 15.5679 32.782 16.1597 32.5084 16.8146C32.2348 17.4695 32.0938 18.1739 32.0938 18.8857C32.0938 19.5974 32.2348 20.3018 32.5084 20.9567C32.782 21.6116 33.1825 22.2035 33.686 22.6969C34.1894 23.1902 34.7855 23.575 35.4384 23.8281C36.0913 24.0812 36.7876 24.1973 37.4857 24.1697C38.1577 24.2006 38.8285 24.0845 39.4529 23.8292C40.0773 23.574 40.6407 23.1854 41.1054 22.6897C41.928 21.7688 42.3672 20.5583 42.3303 19.3137C42.3328 19.0104 42.3065 18.7077 42.2517 18.4097L37.4857 18.4497ZM73.0624 19.5697C72.8576 18.9558 72.4747 18.4199 71.9643 18.0327C71.4539 17.6456 70.8402 17.4255 70.2043 17.4017C69.7748 17.4008 69.3497 17.4897 68.9553 17.6629C68.5608 17.8361 68.2055 18.0898 67.9111 18.4085C67.6167 18.7271 67.3896 19.1039 67.2439 19.5156C67.0981 19.9272 67.0367 20.3649 67.0636 20.8017C67.054 21.2488 67.133 21.6933 67.2959 22.1086C67.4587 22.5239 67.7021 22.9016 68.0113 23.2189C68.3206 23.5363 68.6895 23.7869 69.096 23.9557C69.5025 24.1246 69.9382 24.2082 70.3771 24.2017C70.9263 24.2047 71.4677 24.0689 71.9528 23.8064C72.4379 23.5439 72.8515 23.163 73.1566 22.6977L72.0181 21.8977C71.8482 22.1863 71.6076 22.425 71.32 22.5905C71.0323 22.756 70.7074 22.8425 70.3771 22.8417C70.037 22.8549 69.7008 22.7635 69.4123 22.5795C69.1239 22.3954 68.8964 22.1272 68.7596 21.8097L73.2273 19.9297L73.0624 19.5697ZM68.5083 20.7057C68.4924 20.4582 68.5251 20.21 68.6045 19.9756C68.6839 19.7412 68.8084 19.5253 68.9708 19.3405C69.1331 19.1558 69.33 19.0059 69.5499 18.8996C69.7698 18.7933 70.0083 18.7328 70.2514 18.7217C70.5047 18.7047 70.7573 18.7638 70.9779 18.8918C71.1984 19.0198 71.3772 19.211 71.492 19.4417L68.5083 20.7057ZM64.8808 24.0017H66.3491V14.0017H64.8808V24.0017ZM62.4781 18.1617H62.4231C62.2018 17.9096 61.9308 17.708 61.6277 17.5701C61.3246 17.4323 60.9963 17.3612 60.6643 17.3617C59.8063 17.4041 58.9971 17.7812 58.4045 18.4149C57.812 19.0487 57.4815 19.8904 57.4815 20.7657C57.4815 21.6409 57.812 22.4827 58.4045 23.1164C58.9971 23.7501 59.8063 24.1273 60.6643 24.1697C60.9971 24.1754 61.327 24.1067 61.6308 23.9685C61.9347 23.8303 62.2052 23.6258 62.4231 23.3697H62.4703V23.8577C62.4703 25.1617 61.7871 25.8577 60.6879 25.8577C60.3218 25.8489 59.9665 25.7294 59.6672 25.5143C59.368 25.2992 59.1384 24.9982 59.0076 24.6497L57.7277 25.1937C57.9687 25.7907 58.3791 26.3009 58.9066 26.6587C59.434 27.0164 60.0543 27.2055 60.6879 27.2017C62.4074 27.2017 63.8286 26.1697 63.8286 23.6577V17.6017H62.4781V18.1617ZM60.7978 22.8657C60.2913 22.8202 59.8199 22.583 59.4766 22.201C59.1332 21.8189 58.9427 21.3197 58.9427 20.8017C58.9427 20.2836 59.1332 19.7844 59.4766 19.4023C59.8199 19.0203 60.2913 18.7831 60.7978 18.7377C61.0489 18.7508 61.2949 18.815 61.5213 18.9265C61.7477 19.038 61.9499 19.1945 62.116 19.3869C62.2821 19.5792 62.4088 19.8035 62.4885 20.0464C62.5682 20.2894 62.5994 20.5462 62.5802 20.8017C62.6016 21.0582 62.5717 21.3165 62.4924 21.561C62.413 21.8054 62.2858 22.0309 62.1185 22.2239C61.9511 22.4168 61.7471 22.5732 61.5188 22.6835C61.2904 22.7938 61.0425 22.8558 60.79 22.8657H60.7978ZM79.9406 14.0017H76.4308V24.0017H77.8991V20.2097H79.9485C80.3669 20.2403 80.7871 20.1828 81.1828 20.0406C81.5785 19.8985 81.9412 19.6749 82.2483 19.3837C82.5554 19.0924 82.8003 18.7399 82.9678 18.3479C83.1353 17.956 83.2217 17.5331 83.2217 17.1057C83.2217 16.6782 83.1353 16.2553 82.9678 15.8634C82.8003 15.4715 82.5554 15.1189 82.2483 14.8277C81.9412 14.5364 81.5785 14.3128 81.1828 14.1707C80.7871 14.0286 80.3669 13.971 79.9485 14.0017H79.9406ZM79.9406 18.8017H77.8913V15.3937H79.972C80.4187 15.3937 80.8471 15.5744 81.163 15.8963C81.4788 16.2181 81.6563 16.6545 81.6563 17.1097C81.6563 17.5648 81.4788 18.0012 81.163 18.3231C80.8471 18.6449 80.4187 18.8257 79.972 18.8257L79.9406 18.8017ZM88.9938 17.3617C88.4593 17.3291 87.927 17.4564 87.4625 17.7278C86.998 17.9993 86.6215 18.4031 86.3791 18.8897L87.6826 19.4417C87.8111 19.2003 88.0057 19.0023 88.2426 18.8716C88.4796 18.7409 88.7488 18.6833 89.0174 18.7057C89.2038 18.6835 89.3926 18.6993 89.5729 18.7523C89.7532 18.8053 89.9214 18.8943 90.0676 19.0142C90.2138 19.1341 90.335 19.2825 90.4243 19.4506C90.5137 19.6188 90.5692 19.8034 90.5877 19.9937V20.0977C90.1162 19.8433 89.5902 19.7114 89.0566 19.7137C87.6511 19.7137 86.23 20.5137 86.23 21.9617C86.2438 22.2704 86.3183 22.5732 86.449 22.8521C86.5797 23.131 86.764 23.3804 86.9909 23.5855C87.2178 23.7906 87.4828 23.9473 87.7702 24.0462C88.0576 24.1452 88.3615 24.1844 88.664 24.1617C89.0338 24.1887 89.4039 24.1139 89.7355 23.9449C90.067 23.776 90.3479 23.5193 90.5485 23.2017H90.5956V24.0017H92.0089V20.1537C92.0089 18.4017 90.7055 17.3857 89.0331 17.3857L88.9938 17.3617ZM88.8132 22.8417C88.3343 22.8417 87.6669 22.5937 87.6669 21.9937C87.6669 21.1937 88.4991 20.9297 89.2372 20.9297C89.7037 20.9179 90.1646 21.034 90.572 21.2657C90.5229 21.6988 90.3219 22.0992 90.0059 22.3932C89.6899 22.6873 89.2803 22.855 88.8525 22.8657L88.8132 22.8417ZM97.1597 17.6017L95.4794 21.9377H95.4323L93.6892 17.6017H92.1189L94.7335 23.6657L93.2417 27.0337H94.7728L98.7929 17.6017H97.1597ZM83.9608 24.0017H85.4291V14.0017H83.9608V24.0017Z" fill="white"/>
<path d="M37.1847 8.2419C37.1981 8.53533 37.1528 8.82846 37.0515 9.10351C36.9503 9.37855 36.7953 9.62976 36.5958 9.8419C36.3732 10.0776 36.1042 10.2628 35.8066 10.3855C35.509 10.5081 35.1893 10.5655 34.8684 10.5539C34.3816 10.55 33.9067 10.3998 33.5033 10.1222C33.0999 9.84452 32.7859 9.45173 32.6006 8.99303C32.4153 8.53433 32.367 8.03012 32.4617 7.54357C32.5565 7.05703 32.79 6.60979 33.1332 6.2579C33.3587 6.02333 33.629 5.8384 33.9275 5.71455C34.226 5.59071 34.5462 5.53058 34.8684 5.5379C35.2004 5.53677 35.529 5.60483 35.8342 5.7379C36.1183 5.85466 36.3713 6.03834 36.5723 6.2739L36.1561 6.6979C35.9994 6.50797 35.8015 6.35779 35.578 6.25921C35.3545 6.16063 35.1116 6.11636 34.8684 6.1299C34.6232 6.12867 34.3802 6.17792 34.1541 6.27469C33.9279 6.37146 33.7233 6.51376 33.5525 6.69305C33.3817 6.87234 33.2481 7.08494 33.1599 7.3181C33.0716 7.55125 33.0305 7.80016 33.039 8.0499C33.0338 8.42281 33.1372 8.78891 33.336 9.10203C33.5349 9.41515 33.8203 9.66126 34.1562 9.80931C34.4922 9.95735 34.8636 10.0007 35.2238 9.93389C35.5839 9.86708 35.9165 9.6931 36.1797 9.4339C36.4213 9.16713 36.5606 8.8207 36.5723 8.4579H34.8684V7.8819H37.1533C37.1743 8.00071 37.1848 8.12119 37.1847 8.2419ZM40.7809 6.2419H38.6609V7.7619H40.5924V8.3379H38.6609V9.8579H40.7809V10.4499H38.0327V5.6499H40.7809V6.2419ZM43.3563 10.4499H42.7517V6.2419H41.4326V5.6499H44.7068V6.2419H43.3563V10.4499ZM47.0152 10.4499V5.6499H47.6198V10.4499H47.0152ZM50.3052 10.4499H49.7006V6.2419H48.3815V5.6499H51.6164V6.2419H50.3052V10.4499ZM57.7487 9.8259C57.2897 10.291 56.6687 10.552 56.0213 10.552C55.374 10.552 54.7529 10.291 54.2939 9.8259C53.8477 9.34472 53.5992 8.70785 53.5992 8.0459C53.5992 7.38395 53.8477 6.74708 54.2939 6.2659C54.5202 6.03369 54.7893 5.8494 55.0857 5.72364C55.3822 5.59787 55.7002 5.53313 56.0213 5.53313C56.3425 5.53313 56.6604 5.59787 56.9569 5.72364C57.2534 5.8494 57.5225 6.03369 57.7487 6.2659C58.1967 6.74616 58.4464 7.38338 58.4464 8.0459C58.4464 8.70842 58.1967 9.34564 57.7487 9.8259ZM54.7415 9.4259C55.0814 9.7708 55.5416 9.96444 56.0213 9.96444C56.5011 9.96444 56.9612 9.7708 57.3012 9.4259C57.6366 9.04911 57.8224 8.55861 57.8224 8.0499C57.8224 7.54119 57.6366 7.05068 57.3012 6.6739C56.9612 6.329 56.5011 6.13536 56.0213 6.13536C55.5416 6.13536 55.0814 6.329 54.7415 6.6739C54.406 7.05068 54.2202 7.54119 54.2202 8.0499C54.2202 8.55861 54.406 9.04911 54.7415 9.4259ZM59.2955 10.4499V5.6499H60.0336L62.3264 9.3859V5.6499H62.9309V10.4499H62.3028L59.908 6.5379V10.4499H59.2955Z" fill="white"/>
<path fill-rule="evenodd" clip-rule="evenodd" d="M56.0213 5.61313C55.7105 5.61313 55.4028 5.67578 55.1159 5.79749C54.8293 5.91907 54.5691 6.09717 54.3503 6.32156C53.9183 6.7878 53.6777 7.40471 53.6777 8.0459C53.6777 8.68701 53.9183 9.30384 54.3502 9.77006C54.7944 10.2197 55.3951 10.472 56.0213 10.472C56.6476 10.472 57.2483 10.2196 57.6926 9.76996C58.1262 9.30466 58.3679 8.68753 58.3679 8.0459C58.3679 7.40419 58.1261 6.78698 57.6924 6.32166C57.4736 6.09723 57.2134 5.91909 56.9267 5.79749C56.6398 5.67578 56.3321 5.61313 56.0213 5.61313ZM55.0556 5.64978C55.3616 5.51996 55.6898 5.45312 56.0213 5.45312C56.3528 5.45312 56.681 5.51996 56.9871 5.64978C57.2931 5.7796 57.5709 5.96984 57.8044 6.20954L57.8057 6.21078C58.2675 6.70591 58.5249 7.36287 58.5249 8.0459C58.5249 8.72894 58.2674 9.38588 57.8056 9.88101L57.8041 9.88265C57.3304 10.3626 56.6894 10.632 56.0213 10.632C55.3532 10.632 54.7123 10.3626 54.2385 9.88263L54.2368 9.88086C53.7769 9.38483 53.5207 8.72828 53.5207 8.0459C53.5207 7.36352 53.7769 6.70699 54.2368 6.21096L54.2382 6.20952C54.4717 5.96982 54.7495 5.7796 55.0556 5.64978ZM34.8667 5.61788C34.5552 5.61081 34.2457 5.66893 33.9571 5.78864C33.6686 5.90836 33.4073 6.08713 33.1893 6.31388L33.1889 6.31428C32.8566 6.655 32.6305 7.08804 32.5388 7.55914C32.447 8.03024 32.4938 8.51844 32.6732 8.96258C32.8526 9.40672 33.1566 9.78704 33.5473 10.0559C33.9379 10.3247 34.3977 10.4701 34.869 10.4739L34.8712 10.4739C35.1811 10.4852 35.4898 10.4298 35.7772 10.3113C36.0645 10.1929 36.3242 10.014 36.5392 9.7865C36.7312 9.5822 36.8805 9.34028 36.978 9.07542C37.0755 8.81052 37.1191 8.52821 37.1063 8.2456L37.1847 8.2419L37.1062 8.24187C37.1062 8.14815 37.0997 8.05459 37.0865 7.9619H34.947V8.3779H36.6534L36.6508 8.46051C36.6385 8.84251 36.4918 9.20727 36.2374 9.48815L36.2344 9.49151C35.96 9.7617 35.6132 9.94296 35.2378 10.0126C34.8625 10.0822 34.4752 10.0371 34.125 9.88273C33.7749 9.72842 33.4774 9.47188 33.2701 9.14549C33.0632 8.81965 32.9554 8.43876 32.9604 8.05072C32.9519 7.79086 32.9948 7.53191 33.0866 7.28931C33.1786 7.04611 33.318 6.82435 33.4962 6.63733C33.6744 6.4503 33.8878 6.30187 34.1237 6.20093C34.3588 6.1003 34.6114 6.04893 34.8665 6.04989C35.121 6.03609 35.3753 6.0826 35.6092 6.18579C35.8177 6.27775 36.005 6.41249 36.1596 6.58126L36.464 6.27113C36.2796 6.07155 36.0548 5.91482 35.8048 5.81209L35.8033 5.81146C35.508 5.68269 35.1899 5.61681 34.8687 5.6179L34.8667 5.61788ZM37.2632 8.24006C37.2768 8.5437 37.2298 8.84699 37.125 9.1316C37.0201 9.41679 36.8593 9.67727 36.6525 9.89724C36.4222 10.141 36.1439 10.3327 35.8361 10.4596C35.5285 10.5864 35.1983 10.6458 34.8667 10.6339C34.3648 10.6297 33.8753 10.4747 33.4594 10.1885C33.0431 9.902 32.7191 9.49674 32.528 9.02348C32.3368 8.55021 32.287 8.02999 32.3847 7.528C32.4825 7.0261 32.7234 6.56474 33.0773 6.20171C33.3103 5.95942 33.5896 5.7684 33.8979 5.64046C34.206 5.51262 34.5366 5.45048 34.8692 5.4579C35.2112 5.45688 35.5499 5.52702 35.8643 5.66402C36.1597 5.78553 36.4226 5.97653 36.6315 6.22141L36.6796 6.27771L36.1511 6.81614L36.096 6.74938C35.9472 6.56895 35.7591 6.42627 35.5468 6.33262C35.3345 6.23897 35.1037 6.19692 34.8727 6.20978L34.868 6.21004C34.6334 6.20887 34.4009 6.25585 34.1845 6.34845C33.9681 6.44105 33.7723 6.57721 33.6088 6.74878C33.4454 6.92034 33.3176 7.12378 33.2331 7.34688C33.1487 7.56998 33.1093 7.80816 33.1174 8.04714L33.1176 8.05103C33.1126 8.40813 33.2115 8.75872 33.4019 9.05858C33.5924 9.35843 33.8657 9.59411 34.1874 9.73588C34.5091 9.87765 34.8648 9.91917 35.2097 9.85519C35.5538 9.79134 35.8717 9.62531 36.1235 9.37797C36.333 9.1459 36.461 8.85045 36.4888 8.5379H34.7899V7.8019H37.219L37.2306 7.86776C37.2523 7.99064 37.2632 8.11522 37.2632 8.24006ZM37.9542 5.5699H40.8594V6.3219H38.7394V7.6819H40.6709V8.4179H38.7394V9.7779H40.8594V10.5299H37.9542V5.5699ZM38.1112 5.7299V10.3699H40.7024V9.9379H38.5824V8.2579H40.5139V7.8419H38.5824V6.1619H40.7024V5.7299H38.1112ZM41.3541 5.5699H44.7853V6.3219H43.4348V10.5299H42.6732V6.3219H41.3541V5.5699ZM41.5111 5.7299V6.1619H42.8302V10.3699H43.2778V6.1619H44.6283V5.7299H41.5111ZM46.9367 5.5699H47.6984V10.5299H46.9367V5.5699ZM47.0938 5.7299V10.3699H47.5413V5.7299H47.0938ZM48.3029 5.5699H51.695V6.3219H50.3837V10.5299H49.6221V6.3219H48.3029V5.5699ZM48.46 5.7299V6.1619H49.7791V10.3699H50.2266V6.1619H51.5379V5.7299H48.46ZM59.217 5.5699H60.0771L62.2478 9.10706V5.5699H63.0095V10.5299H62.2592L59.9865 6.81733V10.5299H59.217V5.5699ZM59.3741 5.7299V10.3699H59.8295V6.25847L62.3464 10.3699H62.8524V5.7299H62.4049V9.66474L59.9901 5.7299H59.3741ZM54.6861 6.61721C55.0407 6.25738 55.5208 6.05536 56.0213 6.05536C56.5218 6.05536 57.0019 6.25738 57.3566 6.61721L57.3594 6.62008C57.708 7.01158 57.901 7.52132 57.901 8.0499C57.901 8.57848 57.7079 9.08815 57.3593 9.47965L57.3566 9.48266C57.002 9.84249 56.5218 10.0444 56.0213 10.0444C55.5208 10.0444 55.0407 9.84241 54.6861 9.48259L54.7415 9.4259L54.6833 9.47965C54.3347 9.08815 54.1417 8.57848 54.1417 8.0499C54.1417 7.52132 54.3347 7.01165 54.6833 6.62015L54.6861 6.61721ZM54.7983 9.37065C55.1234 9.69972 55.563 9.88444 56.0213 9.88444C56.4796 9.88444 56.9193 9.69972 57.2443 9.37065C57.5659 9.00878 57.7439 8.53807 57.7439 8.0499C57.7439 7.56173 57.5659 7.09102 57.2443 6.72915C56.9193 6.40008 56.4796 6.21536 56.0213 6.21536C55.563 6.21536 55.1234 6.40008 54.7983 6.72915C54.4768 7.09102 54.2987 7.56173 54.2987 8.0499C54.2987 8.53807 54.4768 9.00878 54.7983 9.37065Z" fill="white"/>
<path d="M8.19603 6.03256C7.94011 6.34545 7.81094 6.746 7.83484 7.15256V24.8486C7.81094 25.2551 7.94011 25.6557 8.19603 25.9686L8.25099 26.0246L17.9794 16.1206V15.8886L8.25099 5.97656L8.19603 6.03256Z" fill="url(#paint0_linear)"/>
<path d="M21.1997 19.4222L17.9805 16.1182V15.8862L21.1997 12.5742L21.2704 12.6142L25.1257 14.8462C26.2249 15.4782 26.2249 16.5182 25.1257 17.1582L21.2861 19.3822L21.1997 19.4222Z" fill="url(#paint1_linear)"/>
<path d="M21.2922 19.376L17.9787 16L8.19531 25.968C8.41937 26.1687 8.7052 26.2833 9.00341 26.2921C9.30161 26.3008 9.59345 26.2032 9.8285 26.016L21.3001 19.376" fill="url(#paint2_linear)"/>
<path d="M21.2961 12.6236L9.82459 5.98365C9.58955 5.79646 9.29771 5.69881 8.9995 5.70757C8.7013 5.71634 8.41547 5.83097 8.19141 6.03165L17.9827 15.9996L21.2961 12.6236Z" fill="url(#paint3_linear)"/>
<path opacity="0.2" d="M21.198 19.3047L9.82065 25.9047C9.59395 26.0774 9.31851 26.1707 9.03546 26.1707C8.75241 26.1707 8.47697 26.0774 8.25028 25.9047L8.19531 25.9607L8.25028 26.0167C8.47645 26.1906 8.7521 26.2847 9.03546 26.2847C9.31882 26.2847 9.59447 26.1906 9.82065 26.0167L21.2922 19.3767L21.198 19.3047Z" fill="black"/>
<path opacity="0.12" d="M8.19603 25.856C7.94011 25.5431 7.81094 25.1426 7.83484 24.736V24.856C7.81094 25.2626 7.94011 25.6631 8.19603 25.976L8.25099 25.92L8.19603 25.856ZM25.1246 17.04L21.1987 19.304L21.2694 19.376L25.1246 17.152C25.3434 17.0473 25.5312 16.8857 25.669 16.6834C25.8069 16.4811 25.8899 16.2454 25.9098 16C25.8657 16.223 25.7719 16.4326 25.6358 16.6129C25.4997 16.7932 25.3248 16.9393 25.1246 17.04Z" fill="black"/>
<path opacity="0.25" d="M9.8225 6.094L25.1258 14.958C25.3259 15.0587 25.5008 15.2048 25.6369 15.3851C25.773 15.5653 25.8668 15.775 25.9109 15.998C25.8911 15.7526 25.808 15.5169 25.6701 15.3146C25.5323 15.1123 25.3445 14.9507 25.1258 14.846L9.8225 5.982C8.72324 5.35 7.82812 5.878 7.82812 7.158V7.278C7.85168 5.99 8.73109 5.462 9.8225 6.094Z" fill="white"/>
<defs>
<linearGradient id="paint0_linear" x1="17.1157" y1="6.96856" x2="3.69408" y2="20.1417" gradientUnits="userSpaceOnUse">
<stop stop-color="#00A0FF"/>
<stop offset="0.01" stop-color="#00A1FF"/>
<stop offset="0.26" stop-color="#00BEFF"/>
<stop offset="0.51" stop-color="#00D2FF"/>
<stop offset="0.76" stop-color="#00DFFF"/>
<stop offset="1" stop-color="#00E3FF"/>
</linearGradient>
<linearGradient id="paint1_linear" x1="26.5625" y1="15.9982" x2="7.56891" y2="15.9982" gradientUnits="userSpaceOnUse">
<stop stop-color="#FFE000"/>
<stop offset="0.41" stop-color="#FFBD00"/>
<stop offset="0.78" stop-color="#FFA500"/>
<stop offset="1" stop-color="#FF9C00"/>
</linearGradient>
<linearGradient id="paint2_linear" x1="19.4941" y1="17.84" x2="1.28946" y2="35.6997" gradientUnits="userSpaceOnUse">
<stop stop-color="#FF3A44"/>
<stop offset="1" stop-color="#C31162"/>
</linearGradient>
<linearGradient id="paint3_linear" x1="5.73378" y1="0.143649" x2="13.8604" y2="8.11974" gradientUnits="userSpaceOnUse">
<stop stop-color="#32A071"/>
<stop offset="0.07" stop-color="#2DA771"/>
<stop offset="0.48" stop-color="#15CF74"/>
<stop offset="0.8" stop-color="#06E775"/>
<stop offset="1" stop-color="#00F076"/>
</linearGradient>
</defs>
</svg>
