<svg width="18" height="18" viewBox="0 0 18 18" fill="none" xmlns="http://www.w3.org/2000/svg">
<path d="M13.525 9.17221C13.506 6.99273 15.2417 5.93268 15.3211 5.8832C14.3384 4.39319 12.8153 4.18976 12.28 4.17437C11.0002 4.03471 9.75944 4.9705 9.10787 4.9705C8.4436 4.9705 7.4398 4.18866 6.35773 4.21065C4.96574 4.23265 3.66365 5.07057 2.94968 6.37144C1.47624 9.02376 2.57524 12.922 3.98732 15.0663C4.6939 16.1175 5.51894 17.2886 6.5989 17.2479C7.65558 17.2029 8.05012 16.5486 9.32576 16.5486C10.5898 16.5486 10.96 17.2479 12.0621 17.2216C13.1961 17.2029 13.9111 16.167 14.5923 15.107C15.4089 13.9039 15.7368 12.7185 15.7494 12.657C15.723 12.6482 13.5472 11.7838 13.525 9.17221Z" fill="white"/>
<path d="M11.4429 2.76449C12.0119 2.02553 12.4012 1.02046 12.2922 0C11.4693 0.0373876 10.4401 0.591605 9.84777 1.31407C9.32313 1.95076 8.85561 2.99541 8.97619 3.97739C9.90066 4.04886 10.8505 3.49245 11.4429 2.76449Z" fill="white"/>
</svg>
