<svg width="20" height="20" viewBox="0 0 20 20" fill="none" xmlns="http://www.w3.org/2000/svg">
<rect width="20" height="20" rx="10" transform="matrix(-1 0 0 1 20 0)" fill="white"/>
<path d="M13.5 5.5H6.5C5.95 5.5 5.5 5.95 5.5 6.5V13.5C5.5 14.05 5.95 14.5 6.5 14.5H13.5C14.05 14.5 14.5 14.05 14.5 13.5V6.5C14.5 5.95 14.05 5.5 13.5 5.5ZM10.5 12.5H8C7.725 12.5 7.5 12.275 7.5 12C7.5 11.725 7.725 11.5 8 11.5H10.5C10.775 11.5 11 11.725 11 12C11 12.275 10.775 12.5 10.5 12.5ZM12 10.5H8C7.725 10.5 7.5 10.275 7.5 10C7.5 9.725 7.725 9.5 8 9.5H12C12.275 9.5 12.5 9.725 12.5 10C12.5 10.275 12.275 10.5 12 10.5ZM12 8.5H8C7.725 8.5 7.5 8.275 7.5 8C7.5 7.725 7.725 7.5 8 7.5H12C12.275 7.5 12.5 7.725 12.5 8C12.5 8.275 12.275 8.5 12 8.5Z" fill="#666666"/>
</svg>
