<svg width="32" height="32" viewBox="0 0 32 32" fill="none" xmlns="http://www.w3.org/2000/svg">
<path d="M13.3333 15.9987C16.2789 15.9987 18.6667 13.6109 18.6667 10.6654C18.6667 7.71985 16.2789 5.33203 13.3333 5.33203C10.3878 5.33203 8 7.71985 8 10.6654C8 13.6109 10.3878 15.9987 13.3333 15.9987Z" fill="white"/>
<path d="M13.8013 18.6787C10.1613 18.5454 2.66797 20.3587 2.66797 23.9987V26.6654H15.388C12.0946 22.9854 13.748 18.8121 13.8013 18.6787Z" fill="white"/>
<path d="M25.9067 24.0267C26.3867 23.24 26.6667 22.32 26.6667 21.3333C26.6667 18.3867 24.28 16 21.3333 16C18.3867 16 16 18.3867 16 21.3333C16 24.28 18.3867 26.6667 21.3333 26.6667C22.32 26.6667 23.24 26.3733 24.0267 25.9067L27.4533 29.3333L29.3333 27.4533L25.9067 24.0267ZM21.3333 24C19.8667 24 18.6667 22.8 18.6667 21.3333C18.6667 19.8667 19.8667 18.6667 21.3333 18.6667C22.8 18.6667 24 19.8667 24 21.3333C24 22.8 22.8 24 21.3333 24Z" fill="white"/>
</svg>
