<svg width="28" height="28" viewBox="0 0 28 28" fill="none" xmlns="http://www.w3.org/2000/svg">
<rect width="28" height="28" rx="6" fill="url(#paint0_linear_17015_32527)"/>
<rect width="28" height="28" rx="6" fill="url(#paint1_linear_17015_32527)"/>
<rect width="28" height="28" rx="6" fill="url(#paint2_radial_17015_32527)"/>
<rect width="28" height="28" rx="6" fill="url(#paint3_radial_17015_32527)"/>
<path fill-rule="evenodd" clip-rule="evenodd" d="M8.88867 3.88867C6.12725 3.88867 3.88867 6.12725 3.88867 8.88867V18.8887C3.88867 21.6501 6.12725 23.8887 8.88867 23.8887H18.8887C21.6501 23.8887 23.8887 21.6501 23.8887 18.8887V8.88867C23.8887 6.12725 21.6501 3.88867 18.8887 3.88867H8.88867ZM8.99976 5.99976C7.3429 5.99976 5.99976 7.3429 5.99976 8.99976V18.9998C5.99976 20.6566 7.3429 21.9998 8.99976 21.9998H18.9998C20.6566 21.9998 21.9998 20.6566 21.9998 18.9998V8.99976C21.9998 7.3429 20.6566 5.99976 18.9998 5.99976H8.99976Z" fill="white"/>
<path fill-rule="evenodd" clip-rule="evenodd" d="M14 19C16.7614 19 19 16.7614 19 14C19 11.2386 16.7614 9 14 9C11.2386 9 9 11.2386 9 14C9 16.7614 11.2386 19 14 19ZM14 17.0001C15.6568 17.0001 17 15.6569 17 14C17 12.3432 15.6568 11 14 11C12.3431 11 10.9999 12.3432 10.9999 14C10.9999 15.6569 12.3431 17.0001 14 17.0001Z" fill="white"/>
<circle cx="19.5" cy="8.5" r="1.25" fill="white"/>
<defs>
<linearGradient id="paint0_linear_17015_32527" x1="1.75" y1="26.25" x2="26.5" y2="1.5" gradientUnits="userSpaceOnUse">
<stop stop-color="#F75152"/>
<stop offset="1" stop-color="#CC39A4"/>
</linearGradient>
<linearGradient id="paint1_linear_17015_32527" x1="3" y1="28" x2="13" y2="12" gradientUnits="userSpaceOnUse">
<stop stop-color="#FF550C"/>
<stop offset="1" stop-color="#FF550C" stop-opacity="0"/>
</linearGradient>
<radialGradient id="paint2_radial_17015_32527" cx="0" cy="0" r="1" gradientUnits="userSpaceOnUse" gradientTransform="translate(6 -0.750001) rotate(50.7106) scale(24.8722)">
<stop stop-color="#4A65C7"/>
<stop offset="1" stop-color="#4A65C7" stop-opacity="0"/>
</radialGradient>
<radialGradient id="paint3_radial_17015_32527" cx="0" cy="0" r="1" gradientUnits="userSpaceOnUse" gradientTransform="translate(10.5 30) rotate(-67.249) scale(16.8077)">
<stop offset="0.126106" stop-color="#FFE146"/>
<stop offset="0.840044" stop-color="#FFE146" stop-opacity="0"/>
</radialGradient>
</defs>
</svg>
