<svg width="16" height="17" viewBox="0 0 16 17" fill="none" xmlns="http://www.w3.org/2000/svg">
<path d="M5.17594 11.3271C4.44927 10.6071 4.0026 9.60711 4.0026 8.50044C4.0026 7.39378 4.44927 6.39378 5.17594 5.67378L6.1226 6.62044C5.63594 7.10044 5.33594 7.76711 5.33594 8.50044C5.33594 9.23378 5.63594 9.90044 6.11594 10.3871L5.17594 11.3271ZM10.8293 11.3271C11.5559 10.6071 12.0026 9.60711 12.0026 8.50044C12.0026 7.39378 11.5559 6.39378 10.8293 5.67378L9.8826 6.62044C10.3693 7.10044 10.6693 7.76711 10.6693 8.50044C10.6693 9.23378 10.3693 9.90044 9.88927 10.3871L10.8293 11.3271ZM8.0026 7.16711C7.26927 7.16711 6.66927 7.76711 6.66927 8.50044C6.66927 9.23378 7.26927 9.83378 8.0026 9.83378C8.73594 9.83378 9.33594 9.23378 9.33594 8.50044C9.33594 7.76711 8.73594 7.16711 8.0026 7.16711ZM13.3359 8.50044C13.3359 9.97378 12.7359 11.3071 11.7693 12.2671L12.7159 13.2138C13.9226 12.0071 14.6693 10.3404 14.6693 8.50044C14.6693 6.66044 13.9226 4.99378 12.7159 3.78711L11.7693 4.73378C12.7359 5.69378 13.3359 7.02711 13.3359 8.50044ZM4.23594 4.73378L3.28927 3.78711C2.0826 4.99378 1.33594 6.66044 1.33594 8.50044C1.33594 10.3404 2.0826 12.0071 3.28927 13.2138L4.23594 12.2671C3.26927 11.3071 2.66927 9.97378 2.66927 8.50044C2.66927 7.02711 3.26927 5.69378 4.23594 4.73378Z" fill="white"/>
</svg>
