<svg width="127" height="36" viewBox="0 0 127 36" fill="none" xmlns="http://www.w3.org/2000/svg">
<path fill-rule="evenodd" clip-rule="evenodd" d="M26.8008 1.5H34.4991V34.4991H26.8008V31.9552C24.2531 33.5665 21.2336 34.4991 17.9964 34.4991C8.8857 34.4991 1.5 27.112 1.5 17.9996C1.5 8.88712 8.8857 1.50002 17.9964 1.50002C21.2336 1.50002 24.2531 2.43266 26.8008 4.04395V1.5ZM17.9877 27.8932C23.4541 27.8932 27.8856 23.461 27.8856 17.9935C27.8856 12.526 23.4541 8.09375 17.9877 8.09375C12.5213 8.09375 8.08984 12.526 8.08984 17.9935C8.08984 23.461 12.5213 27.8932 17.9877 27.8932Z" fill="#E21E22"/>
<ellipse cx="17.9958" cy="18.0007" rx="4.94893" ry="4.94987" fill="#2B2B2B"/>
<path fill-rule="evenodd" clip-rule="evenodd" d="M52.8536 18.1882C52.8536 17.8153 52.8536 17.4741 52.8536 17.083C51.1728 18.1987 49.375 18.5964 47.431 18.1739C45.4808 17.7501 43.9749 16.6685 42.9655 14.9521C41.4284 12.3392 41.7534 9.09794 43.7494 6.88582C44.9096 5.60006 46.3574 4.83693 48.0834 4.63836C49.7969 4.44134 51.371 4.84464 52.8515 5.84335C52.8515 5.54536 52.8612 5.29688 52.8482 5.04937C52.8393 4.8825 52.9008 4.84057 53.0601 4.84197C53.8553 4.84955 54.6507 4.84408 55.4462 4.84716C55.7511 4.84828 55.7501 4.77915 55.7505 5.16142C55.7511 5.86761 55.7506 6.57381 55.7506 7.28014C55.7506 10.8317 55.7485 14.3833 55.7561 17.9349C55.7565 18.1495 55.6979 18.1971 55.493 18.1939C54.6911 18.1817 53.8887 18.1886 53.0864 18.188C53.0188 18.1882 52.9514 18.1882 52.8536 18.1882ZM44.9073 11.4632C44.9363 13.7213 46.7134 15.4569 48.9679 15.4297C51.1306 15.4034 52.8863 13.5773 52.8545 11.3875C52.8226 9.20928 51.0064 7.4616 48.8009 7.4874C46.6647 7.5125 44.8798 9.33521 44.9073 11.4632Z" fill="#E01F28"/>
<path fill-rule="evenodd" clip-rule="evenodd" d="M78.0945 7.8168C77.2816 8.28558 76.4803 8.74568 75.682 9.21068C75.5837 9.26789 75.5381 9.23423 75.4823 9.15571C74.9215 8.36734 74.1699 7.85985 73.2361 7.60421C71.6101 7.15912 69.7651 7.87878 68.8768 9.31487C68.3439 10.1762 68.1201 11.115 68.3129 12.1047C68.6237 13.7012 69.5622 14.7825 71.1363 15.2597C72.9354 15.8054 74.8172 14.9615 75.693 13.4058C75.7291 13.3418 75.7587 13.2744 75.8044 13.1818C74.417 13.1818 73.057 13.1818 71.6839 13.1818C71.6839 12.2121 71.6839 11.262 71.6839 10.2983C74.1546 10.2983 76.6246 10.2983 79.1151 10.2983C79.1151 12.7802 79.1151 15.2453 79.1151 17.7265C78.2863 17.7265 77.4604 17.7265 76.6129 17.7265C76.6129 17.4337 76.6129 17.143 76.6129 16.8156C74.374 18.4629 71.9824 18.8348 69.4415 17.7582C67.7615 17.0463 66.5612 15.7951 65.8614 14.1103C64.4759 10.7751 65.8386 6.92648 69.1633 5.2635C72.2531 3.71804 76.1593 4.69936 78.0945 7.8168Z" fill="#2B2A29"/>
<path fill-rule="evenodd" clip-rule="evenodd" d="M94.75 14.0036C95.1599 13.7097 95.6191 13.7557 96.0418 13.6688C96.5569 13.5626 97.081 13.4999 97.6225 13.4152C97.6666 13.643 97.7039 13.8692 97.7551 14.0921C98.0061 15.1856 98.783 15.8946 99.8975 16.0489C100.694 16.1592 101.485 16.1574 102.248 15.8621C102.692 15.6903 103.033 15.3866 103.235 14.9496C103.499 14.3764 103.316 13.8337 102.737 13.5845C102.286 13.3906 101.811 13.2495 101.34 13.1091C100.174 12.7614 98.995 12.4516 97.8363 12.0805C96.8663 11.7701 96.0805 11.1965 95.5991 10.264C94.8009 8.71741 95.2219 6.75546 96.5831 5.6527C97.3602 5.02321 98.2724 4.72578 99.2386 4.58737C100.512 4.40507 101.77 4.50268 102.989 4.9308C103.896 5.24912 104.686 5.73109 105.177 6.59981C105.557 7.27179 105.737 8.00322 105.839 8.79019C104.899 8.92159 103.973 9.05102 103.026 9.18326C102.984 8.96001 102.956 8.7456 102.901 8.53764C102.679 7.69234 102.113 7.2084 101.268 7.05976C100.467 6.91883 99.6691 6.95333 98.8928 7.21457C98.5934 7.3154 98.354 7.51018 98.1788 7.77619C97.905 8.19113 97.9467 8.65796 98.3302 8.97473C98.5359 9.14469 98.7854 9.29165 99.0396 9.36864C100.165 9.70883 101.302 10.0122 102.43 10.3444C103.15 10.5565 103.879 10.7597 104.531 11.1479C105.903 11.9653 106.459 13.251 106.258 14.7736C106.039 16.4466 105.052 17.5543 103.531 18.2018C102.196 18.771 100.798 18.8469 99.3742 18.6563C98.7118 18.5677 98.0697 18.4105 97.4648 18.1216C96.2247 17.5292 95.475 16.5212 95.0626 15.2414C94.933 14.8403 94.8542 14.4221 94.75 14.0036Z" fill="#2B2A28"/>
<path fill-rule="evenodd" clip-rule="evenodd" d="M80.4708 4.84832C80.5548 4.84832 80.6278 4.84832 80.7013 4.84832C81.5104 4.84832 82.3196 4.85379 83.1287 4.84383C83.3138 4.84159 83.371 4.88296 83.3703 5.07956C83.3627 7.41774 83.3646 9.75621 83.3662 12.0944C83.3675 13.6195 84.2965 14.8412 85.7618 15.2511C87.4733 15.73 89.3515 14.5777 89.693 12.8328C89.7387 12.5992 89.7625 12.3573 89.7629 12.1192C89.768 9.76027 89.7659 7.40133 89.7664 5.0424C89.7664 4.98855 89.7711 4.9347 89.7744 4.86417C89.8401 4.85842 89.8988 4.84874 89.9572 4.84874C90.7939 4.84762 91.6305 4.85225 92.467 4.84411C92.6322 4.84229 92.6731 4.89081 92.673 5.0532C92.6686 9.36637 92.6696 13.6797 92.6693 17.9929C92.6693 18.0529 92.6643 18.1128 92.6609 18.1837C91.6963 18.1837 90.7465 18.1837 89.769 18.1837C89.769 17.9162 89.769 17.6546 89.769 17.3771C89.4206 17.5399 89.1081 17.7064 88.7811 17.8359C85.5855 19.1019 81.8994 17.3924 80.7985 14.1447C80.5694 13.4691 80.4597 12.7767 80.4589 12.0666C80.4559 9.72129 80.4573 7.37623 80.4577 5.03104C80.4579 4.97817 80.465 4.92517 80.4708 4.84832Z" fill="#2C2B29"/>
<path fill-rule="evenodd" clip-rule="evenodd" d="M57.5508 18.2023C57.5508 13.7466 57.5508 9.30039 57.5508 4.84053C57.5986 4.83633 57.6439 4.82862 57.6892 4.82862C58.5394 4.82805 59.3896 4.83268 60.2397 4.82427C60.4028 4.82258 60.4548 4.86409 60.449 5.02956C60.4371 5.37691 60.4455 5.72468 60.4455 6.09334C62.647 4.7491 64.8961 4.38759 67.2641 5.57225C66.8049 6.0078 66.3629 6.40451 65.9493 6.82828C65.6922 7.09191 65.4697 7.39102 65.2487 7.68663C65.1662 7.79741 65.0899 7.82868 64.959 7.81087C63.0328 7.54962 61.2422 8.65197 60.6449 10.4939C60.5225 10.8714 60.457 11.2839 60.4535 11.6811C60.4353 13.7858 60.4434 15.8909 60.4488 17.9956C60.4492 18.1639 60.4074 18.2169 60.232 18.2148C59.3888 18.2054 58.5454 18.2107 57.7019 18.2103C57.6558 18.2103 57.6094 18.2055 57.5508 18.2023Z" fill="#2B2A28"/>
<path fill-rule="evenodd" clip-rule="evenodd" d="M46.8165 11.4778C46.8067 10.3277 47.7071 9.41232 48.8616 9.39858C49.982 9.38526 50.9197 10.3018 50.927 11.4172C50.9347 12.5843 50.0326 13.5115 48.8811 13.5196C47.7492 13.5278 46.8263 12.6152 46.8165 11.4778Z" fill="#2C2B29"/>
<path fill-rule="evenodd" clip-rule="evenodd" d="M82.8935 25.7866C83.3469 26.3209 83.7797 26.8309 84.2128 27.3406C84.5768 27.7689 84.9441 28.1944 85.3029 28.6274C85.3628 28.7001 85.42 28.8034 85.4208 28.8928C85.429 29.8635 85.4257 30.8344 85.4257 31.8251C85.0812 31.8251 84.7465 31.8251 84.3903 31.8251C84.3821 31.6748 84.3738 31.5248 84.3637 31.3401C83.7184 31.6243 83.0843 31.6783 82.4758 31.2953C81.8815 30.9214 81.5934 30.372 81.5995 29.6658C81.5788 29.653 81.5577 29.6403 81.5368 29.6279C81.3521 29.8423 81.1676 30.0569 80.9635 30.2939C81.2294 30.4283 81.3781 30.586 81.3242 30.8428C81.2732 31.0859 81.0968 31.2136 80.8665 31.2713C80.6145 31.3344 80.3939 31.2852 80.2219 31.077C79.9876 30.7935 79.9565 30.4774 80.0757 30.1408C80.2164 29.7443 80.454 29.4732 81.0561 29.0047C79.9053 27.9098 80.032 26.3686 81.3495 25.4362C82.6278 24.5319 84.5625 24.5496 85.7847 25.477C86.7368 26.1994 87.1028 27.3191 86.7491 28.4575C86.6951 28.6312 86.596 28.7908 86.5132 28.9674C86.1884 28.8337 85.8997 28.7151 85.5865 28.5859C85.8889 27.868 85.9194 27.1757 85.3936 26.5458C84.7426 25.7662 83.8637 25.7044 82.8935 25.7866ZM83.6065 28.7144C83.5334 28.7506 83.4701 28.7734 83.4164 28.81C83.2349 28.9332 83.0354 29.0402 82.8818 29.1925C82.6018 29.4694 82.5604 29.8932 82.7468 30.2026C82.9386 30.5206 83.3382 30.6522 83.7592 30.5365C84.1871 30.4185 84.3762 30.1807 84.38 29.7531C84.3816 29.549 84.3955 29.3429 84.3743 29.1413C84.3619 29.0252 84.3159 28.8928 84.2408 28.8064C83.7554 28.2486 83.2577 27.7009 82.7634 27.1505C82.4988 26.856 82.2329 26.5626 81.9709 26.2723C81.4793 26.542 81.3002 26.9442 81.3357 27.4558C81.3709 27.9606 81.6382 28.3026 82.0751 28.5112C82.2295 28.3995 82.364 28.2787 82.5191 28.1953C82.9348 27.9712 82.9747 27.9843 83.2807 28.3362C83.3863 28.4572 83.4903 28.5793 83.6065 28.7144Z" fill="#2C2B2A"/>
<path fill-rule="evenodd" clip-rule="evenodd" d="M79.2199 31.4272C79.0563 31.725 78.9173 31.9779 78.7677 32.2502C78.1251 32.0479 77.4867 31.847 76.8486 31.6456C75.7853 31.3101 74.722 30.9752 73.6595 30.6388C73.4031 30.5576 73.3591 30.356 73.5588 30.1784C73.7607 29.9988 73.9658 29.8229 74.1949 29.6232C73.7119 29.4866 73.3206 29.2608 73.0107 28.9067C72.2993 28.0932 72.3082 26.8408 73.0428 25.9496C73.7565 25.0835 74.6928 24.7199 75.7992 24.7749C76.5381 24.8114 77.2317 24.9781 77.7934 25.57C77.7934 25.3416 77.7934 25.1443 77.7934 24.925C78.1497 24.925 78.4842 24.925 78.8483 24.925C78.8483 25.0137 78.8483 25.1051 78.8483 25.1966C78.8484 27.0968 78.8519 28.9975 78.8451 30.8977C78.8446 31.1606 78.8294 31.403 79.2199 31.4272ZM77.8071 30.9296C77.8071 29.847 77.7751 28.7984 77.8207 27.753C77.8437 27.2273 77.6484 26.8565 77.298 26.5211C77.2239 26.4505 77.1511 26.3787 77.0737 26.3123C76.1629 25.5319 74.8545 25.5847 74.0503 26.4336C73.6652 26.84 73.4958 27.3242 73.649 27.8646C73.8024 28.4054 74.2465 28.6508 74.7646 28.7565C74.8773 28.7795 75.035 28.7417 75.1289 28.6732C75.629 28.3085 76.1153 27.9252 76.5703 27.5762C76.8209 27.8062 77.0511 28.0174 77.2917 28.2381C76.6039 28.8529 75.9268 29.4577 75.2204 30.0888C76.0934 30.3725 76.9299 30.6445 77.8071 30.9296Z" fill="#2B2A29"/>
<path fill-rule="evenodd" clip-rule="evenodd" d="M68.8319 31.5731C68.5378 31.7147 68.2785 31.8397 67.9926 31.9773C67.8455 31.771 67.6984 31.5664 67.5533 31.3598C67.3428 31.0603 67.1433 30.7525 66.9204 30.4622C66.8077 30.3155 66.8366 30.212 66.9044 30.0548C67.102 29.596 67.321 29.1353 67.4313 28.6527C67.6542 27.6781 67.2018 26.7032 66.3415 26.1447C65.5119 25.6063 64.4788 25.6338 63.6534 26.2139C63.1061 26.599 62.6961 27.0626 62.7332 27.7882C62.7555 28.2231 62.9177 28.5363 63.2258 28.7401C63.9732 28.075 64.7872 27.9018 65.5386 28.294C66.3422 28.7133 66.665 29.4152 66.619 30.3031C66.5831 30.9911 66.0931 31.6309 65.4159 31.8749C64.3356 32.2638 62.9792 31.5975 62.759 30.5504C62.7057 30.2977 62.7477 30.0256 62.7341 29.7631C62.7304 29.6927 62.7031 29.5887 62.6525 29.5601C61.6659 29.0001 61.4199 27.4812 62.0027 26.4407C62.6651 25.2585 64.1249 24.5921 65.5942 24.7991C66.9678 24.9924 68.1497 26.0658 68.4339 27.3914C68.6355 28.3315 68.4592 29.2204 68.0206 30.0609C67.9361 30.2226 67.9497 30.3298 68.0525 30.4688C68.3142 30.8243 68.5625 31.1897 68.8319 31.5731ZM64.6564 30.9858C65.1626 30.9911 65.5696 30.6119 65.5757 30.1298C65.582 29.6262 65.1985 29.2233 64.7095 29.2193C64.195 29.2157 63.7621 29.6368 63.756 30.1474C63.7506 30.6175 64.1404 30.9806 64.6564 30.9858Z" fill="#2C2B29"/>
<path fill-rule="evenodd" clip-rule="evenodd" d="M47.3317 25.5594C47.3317 25.3317 47.3317 25.1318 47.3317 24.9187C47.6785 24.9187 48.0068 24.9187 48.3657 24.9187C48.3657 25.0196 48.3657 25.11 48.3657 25.2003C48.3659 27.075 48.3666 28.9498 48.3659 30.8245C48.3659 31.0998 48.281 31.4166 48.7372 31.4313C48.5769 31.7207 48.4375 31.9721 48.2847 32.2476C47.7924 32.0958 47.2998 31.9465 46.8092 31.7918C45.6002 31.4105 44.3921 31.0267 43.1841 30.6433C42.9046 30.5546 42.8668 30.369 43.0888 30.169C43.2825 29.9944 43.4805 29.8242 43.6523 29.6734C43.329 29.4743 42.9786 29.323 42.7091 29.0813C41.8237 28.2869 41.7666 26.9323 42.5427 25.9651C43.523 24.7434 45.4537 24.3789 46.8135 25.1663C46.9874 25.267 47.1371 25.4101 47.3317 25.5594ZM47.3268 30.9331C47.3268 29.6916 47.3284 28.4915 47.3232 27.2918C47.3228 27.2132 47.2913 27.1162 47.2395 27.0599C46.9536 26.749 46.6924 26.3993 46.3568 26.1529C45.4899 25.5166 44.2831 25.6669 43.5476 26.4516C42.9346 27.1052 42.7938 28.3589 44.2003 28.7475C44.386 28.7989 44.5321 28.7869 44.692 28.6574C45.1606 28.2777 45.6441 27.917 46.0855 27.577C46.3335 27.8001 46.5652 28.009 46.8142 28.2334C46.1158 28.8581 45.4359 29.4663 44.7377 30.0906C45.6136 30.3757 46.4523 30.6484 47.3268 30.9331Z" fill="#2B2B29"/>
<path fill-rule="evenodd" clip-rule="evenodd" d="M50.9097 28.5519C51.2333 28.0593 51.6538 27.8024 52.1638 27.6381C52.3307 27.9021 52.497 28.1652 52.6569 28.4186C52.4137 28.6094 52.1553 28.7669 51.9578 28.9805C51.7838 29.1685 51.6374 29.4048 51.5515 29.6456C51.4196 30.0171 51.5185 30.3665 51.8014 30.6545C52.1427 31.0025 52.5578 31.0628 53.0044 30.9441C53.6498 30.7725 53.904 30.3299 53.7282 29.7193C53.2666 29.853 52.911 29.6756 52.8012 29.257C52.6907 28.8362 52.9195 28.4799 53.3762 28.3609C53.7873 28.2537 54.1837 28.3938 54.4473 28.7728C55.2027 29.8582 54.9654 31.5709 53.1396 31.9433C52.1037 32.1544 51.1 31.6915 50.6443 30.8528C50.4434 30.4831 50.4164 30.0901 50.4772 29.6864C50.498 29.5489 50.4663 29.4823 50.3366 29.4114C49.8466 29.1427 49.6492 28.6688 49.5473 28.1579C49.3105 26.9707 49.7508 26.058 50.7266 25.3812C52.0896 24.4356 54.5346 24.4352 55.7179 26.3518C56.2891 27.2769 56.2877 28.2499 55.7911 29.2461C55.4642 29.1196 55.1513 28.9985 54.824 28.8721C54.8425 28.8136 54.8512 28.7641 54.8727 28.7214C55.4919 27.4785 54.7287 26.3811 53.8111 25.9643C52.8643 25.5339 51.606 25.7855 50.9259 26.56C50.4952 27.0504 50.4459 27.6146 50.6738 28.2089C50.7167 28.321 50.8118 28.4126 50.9097 28.5519Z" fill="#2C2B2A"/>
<path fill-rule="evenodd" clip-rule="evenodd" d="M95.1783 28.2365C95.1783 29.4347 95.1783 30.6253 95.1783 31.8363C94.8355 31.8363 94.4938 31.8363 94.1272 31.8363C94.1272 30.9764 94.1272 30.1196 94.1272 29.2341C93.3591 29.338 92.7588 29.6668 92.3601 30.305C92.1678 30.6133 92.2556 30.7745 92.5949 30.867C92.8383 30.9334 92.9951 31.0925 93.0413 31.3413C93.0854 31.5797 92.9681 31.7513 92.7792 31.882C92.4271 32.1251 92.0251 32.0962 91.7004 31.8062C91.1005 31.2706 91.0148 30.319 91.502 29.5898C91.549 29.5197 91.6002 29.4528 91.6482 29.3868C91.4067 29.2728 91.1557 29.1871 90.9405 29.0463C89.9133 28.3752 89.7058 27.0323 90.4993 26.0833C91.3622 25.0513 92.5224 24.7251 93.8197 24.784C94.6353 24.8211 95.3694 25.0826 95.9931 25.6238C96.9708 26.4723 97.111 27.9258 96.3048 28.9802C96.0068 28.8335 95.7059 28.6856 95.4552 28.5624C95.5625 28.2175 95.7232 27.9039 95.7484 27.5796C95.8028 26.8786 95.2898 26.2057 94.486 25.937C93.418 25.5799 92.4163 25.7401 91.5445 26.4841C91.4002 26.6073 91.2836 26.7793 91.1967 26.9504C90.9463 27.4425 91.046 27.8811 91.4776 28.2202C91.6234 28.3345 91.79 28.4268 91.9573 28.5082C92.215 28.6338 92.4511 28.6736 92.7475 28.5148C93.0449 28.3554 93.407 28.2792 93.7484 28.2473C94.2121 28.2038 94.6829 28.2365 95.1783 28.2365Z" fill="#2C2C2A"/>
<path fill-rule="evenodd" clip-rule="evenodd" d="M58.2746 24.93C58.2746 25.856 58.2713 26.7501 58.276 27.6443C58.2785 28.0958 58.6385 28.4033 59.0424 28.3126C59.3201 28.25 59.5339 27.9402 59.5351 27.5852C59.5379 26.7929 59.5364 26.0003 59.5367 25.2074C59.5367 25.1236 59.5367 25.0393 59.5367 24.9351C59.8852 24.9351 60.2198 24.9351 60.5658 24.9351C60.5658 27.2336 60.5658 29.5224 60.5658 31.8258C60.2288 31.8258 59.9 31.8258 59.5437 31.8258C59.5437 30.9479 59.5437 30.066 59.5437 29.1958C59.2804 29.2382 59.0427 29.3084 58.805 29.3084C57.9387 29.3089 57.252 28.6123 57.2481 27.7475C57.2443 26.8781 57.2469 26.0088 57.2478 25.1395C57.2478 25.0733 57.2547 25.0072 57.2589 24.9297C57.5996 24.93 57.9287 24.93 58.2746 24.93Z" fill="#2B2B29"/>
<path fill-rule="evenodd" clip-rule="evenodd" d="M88.9133 31.8419C88.6071 31.8419 88.3266 31.8425 88.046 31.8409C88.0229 31.8407 87.9997 31.8275 87.9648 31.8165C87.9648 29.5295 87.9648 27.2433 87.9648 24.9375C88.2764 24.9375 88.5857 24.9375 88.9131 24.9375C88.9133 27.2315 88.9133 29.5239 88.9133 31.8419Z" fill="#2E2E2D"/>
<path fill-rule="evenodd" clip-rule="evenodd" d="M102.848 30.9273C102.849 31.435 102.45 31.841 101.951 31.8389C101.447 31.8367 101.044 31.4338 101.047 30.9334C101.05 30.4096 101.424 30.0342 101.945 30.0313C102.464 30.0283 102.846 30.4068 102.848 30.9273Z" fill="#2C2C2A"/>
<path fill-rule="evenodd" clip-rule="evenodd" d="M99.9595 30.9184C99.9626 31.4397 99.585 31.8291 99.0678 31.8379C98.567 31.8466 98.1595 31.439 98.1602 30.9302C98.1609 30.4102 98.5442 30.0307 99.0689 30.0313C99.5777 30.0318 99.9563 30.4088 99.9595 30.9184Z" fill="#2C2C2A"/>
<path fill-rule="evenodd" clip-rule="evenodd" d="M105.73 30.9482C105.726 31.4522 105.322 31.8481 104.816 31.8454C104.324 31.843 103.918 31.4206 103.926 30.9202C103.934 30.4058 104.321 30.0327 104.844 30.0352C105.358 30.0376 105.734 30.4253 105.73 30.9482Z" fill="#2C2B2A"/>
<path d="M127 15H117L122 21L127 15Z" fill="#4A434E"/>
</svg>
