<svg width="65" height="65" viewBox="0 0 65 65" fill="none" xmlns="http://www.w3.org/2000/svg">
<rect x="0.145089" y="0.145089" width="64.7098" height="64.7098" rx="5.85491" fill="white"/>
<path fill-rule="evenodd" clip-rule="evenodd" d="M32.788 34.8231C35.3497 34.8231 37.7391 34.0852 39.7552 32.8102V34.8234H45.8478V8.70731H39.7552V10.7199C37.7391 9.44498 35.3497 8.70703 32.788 8.70703C25.5776 8.70703 19.7324 14.5533 19.7324 21.7651C19.7324 28.9768 25.5776 34.8231 32.788 34.8231ZM32.7821 29.5993C37.1083 29.5993 40.6155 26.0916 40.6155 21.7645C40.6155 17.4375 37.1083 13.9297 32.7821 13.9297C28.4559 13.9297 24.9488 17.4375 24.9488 21.7645C24.9488 26.0916 28.4559 29.5993 32.7821 29.5993Z" fill="#E21E22"/>
<ellipse cx="32.7907" cy="21.7612" rx="3.91667" ry="3.91742" fill="#2B2B2B"/>
<path fill-rule="evenodd" clip-rule="evenodd" d="M16.3544 49.2323C16.3544 48.9496 16.3544 48.6909 16.3544 48.3944C15.08 49.2403 13.7168 49.5418 12.2428 49.2215C10.7642 48.9002 9.62237 48.0801 8.85705 46.7787C7.69164 44.7976 7.93799 42.34 9.4514 40.6627C10.3311 39.6878 11.4288 39.1092 12.7376 38.9587C14.0367 38.8093 15.2302 39.1151 16.3528 39.8723C16.3528 39.6464 16.3601 39.458 16.3502 39.2703C16.3435 39.1438 16.3901 39.112 16.5109 39.113C17.1138 39.1188 17.7169 39.1146 18.3201 39.117C18.5512 39.1178 18.5505 39.0654 18.5508 39.3553C18.5512 39.8907 18.5509 40.4261 18.5509 40.9617C18.5509 43.6546 18.5493 46.3474 18.5551 49.0403C18.5554 49.203 18.5109 49.2391 18.3556 49.2367C17.7475 49.2274 17.1391 49.2326 16.5309 49.2322C16.4796 49.2323 16.4285 49.2323 16.3544 49.2323ZM10.3293 44.1333C10.3513 45.8455 11.6988 47.1614 13.4081 47.1408C15.048 47.1208 16.3791 45.7363 16.355 44.0759C16.3309 42.4244 14.9538 41.0993 13.2815 41.1188C11.6619 41.1379 10.3085 42.5199 10.3293 44.1333Z" fill="#E01F28"/>
<path fill-rule="evenodd" clip-rule="evenodd" d="M35.4921 41.408C34.8758 41.7635 34.2683 42.1123 33.6629 42.4649C33.5884 42.5083 33.5539 42.4828 33.5115 42.4232C33.0864 41.8255 32.5165 41.4407 31.8084 41.2469C30.5756 40.9094 29.1767 41.455 28.5032 42.5439C28.0991 43.1969 27.9294 43.9088 28.0756 44.6592C28.3112 45.8697 29.0229 46.6896 30.2164 47.0514C31.5805 47.4651 33.0072 46.8252 33.6713 45.6457C33.6987 45.5972 33.7211 45.5461 33.7558 45.4759C32.7038 45.4759 31.6727 45.4759 30.6316 45.4759C30.6316 44.7407 30.6316 44.0202 30.6316 43.2895C32.5049 43.2895 34.3777 43.2895 36.266 43.2895C36.266 45.1714 36.266 47.0404 36.266 48.9217C35.6376 48.9217 35.0113 48.9217 34.3688 48.9217C34.3688 48.6997 34.3688 48.4793 34.3688 48.2311C32.6713 49.48 30.8579 49.762 28.9313 48.9458C27.6576 48.406 26.7474 47.4573 26.2169 46.1799C25.1664 43.651 26.1995 40.733 28.7204 39.4721C31.0631 38.3003 34.0249 39.0444 35.4921 41.408Z" fill="#2B2A29"/>
<path fill-rule="evenodd" clip-rule="evenodd" d="M48.1191 46.0925C48.4299 45.8697 48.7781 45.9045 49.0986 45.8386C49.4891 45.7581 49.8866 45.7106 50.2971 45.6464C50.3306 45.819 50.3589 45.9905 50.3977 46.1596C50.588 46.9887 51.177 47.5263 52.0221 47.6432C52.6263 47.7269 53.2261 47.7255 53.8041 47.5016C54.1406 47.3714 54.3998 47.1411 54.5525 46.8098C54.7527 46.3751 54.6138 45.9636 54.1747 45.7747C53.8332 45.6277 53.473 45.5207 53.1157 45.4143C52.2313 45.1506 51.3378 44.9157 50.4592 44.6344C49.7238 44.399 49.1279 43.9641 48.7629 43.2571C48.1577 42.0844 48.4769 40.5968 49.509 39.7607C50.0983 39.2834 50.7899 39.0579 51.5225 38.953C52.4879 38.8147 53.4417 38.8887 54.3661 39.2134C55.0535 39.4547 55.653 39.8201 56.0252 40.4788C56.3129 40.9883 56.4494 41.5429 56.5267 42.1396C55.814 42.2392 55.1121 42.3374 54.3943 42.4376C54.3619 42.2684 54.3407 42.1058 54.2992 41.9481C54.1307 41.3072 53.7018 40.9403 53.0609 40.8276C52.454 40.7207 51.8489 40.7469 51.2603 40.9449C51.0333 41.0214 50.8518 41.1691 50.7189 41.3708C50.5113 41.6854 50.5429 42.0393 50.8337 42.2795C50.9897 42.4084 51.1788 42.5198 51.3716 42.5782C52.2249 42.8361 53.0867 43.0661 53.942 43.318C54.4884 43.4789 55.0407 43.6329 55.535 43.9272C56.5753 44.547 56.9968 45.5219 56.8449 46.6763C56.6783 47.9448 55.9299 48.7846 54.7773 49.2756C53.765 49.7072 52.705 49.7647 51.6253 49.6202C51.123 49.553 50.6361 49.4338 50.1776 49.2148C49.2372 48.7656 48.6688 48.0013 48.3561 47.031C48.2579 46.7268 48.1981 46.4098 48.1191 46.0925Z" fill="#2B2A28"/>
<path fill-rule="evenodd" clip-rule="evenodd" d="M37.2936 39.1402C37.3573 39.1402 37.4127 39.1402 37.4684 39.1402C38.0819 39.1402 38.6954 39.1443 39.3089 39.1368C39.4492 39.1351 39.4926 39.1664 39.4921 39.3155C39.4863 41.0884 39.4877 42.8614 39.489 44.6343C39.49 45.7906 40.1944 46.7169 41.3053 47.0277C42.603 47.3908 44.0271 46.5171 44.286 45.1942C44.3207 45.017 44.3388 44.8336 44.3391 44.6531C44.3429 42.8645 44.3413 41.0759 44.3417 39.2873C44.3417 39.2465 44.3452 39.2057 44.3478 39.1522C44.3975 39.1478 44.4421 39.1405 44.4863 39.1405C45.1208 39.1397 45.7551 39.1432 46.3893 39.137C46.5146 39.1356 46.5456 39.1724 46.5455 39.2955C46.5422 42.5658 46.543 45.8362 46.5427 49.1065C46.5427 49.1521 46.5389 49.1975 46.5364 49.2513C45.805 49.2513 45.0848 49.2513 44.3436 49.2513C44.3436 49.0484 44.3436 48.8501 44.3436 48.6397C44.0795 48.7631 43.8425 48.8893 43.5946 48.9876C41.1717 49.9475 38.3769 48.6513 37.5421 46.1888C37.3684 45.6765 37.2852 45.1516 37.2846 44.6132C37.2824 42.8349 37.2834 41.0569 37.2837 39.2787C37.2838 39.2386 37.2893 39.1985 37.2936 39.1402Z" fill="#2C2B29"/>
<path fill-rule="evenodd" clip-rule="evenodd" d="M19.9121 49.2723C19.9121 45.894 19.9121 42.5228 19.9121 39.1413C19.9484 39.1381 19.9827 39.1322 20.0171 39.1322C20.6617 39.1318 21.3063 39.1353 21.9509 39.1289C22.0745 39.1277 22.114 39.1591 22.1096 39.2846C22.1006 39.548 22.107 39.8116 22.107 40.0912C23.7761 39.072 25.4815 38.7978 27.2768 39.6961C26.9287 40.0263 26.5936 40.3271 26.28 40.6484C26.0851 40.8483 25.9163 41.0751 25.7488 41.2992C25.6862 41.3832 25.6284 41.4069 25.5291 41.3934C24.0686 41.1953 22.711 42.0312 22.2581 43.4277C22.1653 43.7139 22.1157 44.0267 22.113 44.3279C22.0992 45.9237 22.1054 47.5198 22.1094 49.1156C22.1097 49.2432 22.078 49.2834 21.945 49.2818C21.3057 49.2747 20.6663 49.2787 20.0267 49.2784C19.9917 49.2784 19.9566 49.2748 19.9121 49.2723Z" fill="#2B2A28"/>
<path fill-rule="evenodd" clip-rule="evenodd" d="M11.7715 44.1781C11.7641 43.3062 12.4468 42.6121 13.3222 42.6017C14.1717 42.5916 14.8827 43.2865 14.8882 44.1322C14.8941 45.0171 14.2101 45.7202 13.3369 45.7263C12.4787 45.7325 11.779 45.0405 11.7715 44.1781Z" fill="#2C2B29"/>
<path fill-rule="evenodd" clip-rule="evenodd" d="M37.0215 53.3297C37.2486 53.5973 37.4654 53.8528 37.6823 54.1081C37.8646 54.3226 38.0486 54.5357 38.2283 54.7526C38.2583 54.789 38.2869 54.8407 38.2874 54.8855C38.2915 55.3717 38.2898 55.858 38.2898 56.3542C38.1173 56.3542 37.9496 56.3542 37.7712 56.3542C37.7671 56.2789 37.7629 56.2038 37.7579 56.1113C37.4347 56.2536 37.1171 56.2807 36.8123 56.0889C36.5146 55.9016 36.3704 55.6264 36.3734 55.2727C36.363 55.2663 36.3525 55.2599 36.342 55.2537C36.2495 55.3611 36.1571 55.4686 36.0549 55.5873C36.188 55.6546 36.2625 55.7336 36.2355 55.8622C36.2099 55.984 36.1216 56.0479 36.0062 56.0768C35.88 56.1084 35.7696 56.0838 35.6834 55.9795C35.566 55.8375 35.5505 55.6792 35.6102 55.5106C35.6806 55.312 35.7997 55.1762 36.1012 54.9415C35.5248 54.3932 35.5883 53.6212 36.2482 53.1542C36.8884 52.7013 37.8574 52.7102 38.4696 53.1747C38.9465 53.5365 39.1298 54.0973 38.9527 54.6675C38.9256 54.7545 38.8759 54.8344 38.8345 54.9229C38.6718 54.8559 38.5272 54.7965 38.3704 54.7318C38.5218 54.3722 38.5371 54.0255 38.2737 53.71C37.9477 53.3195 37.5075 53.2885 37.0215 53.3297ZM37.3786 54.7961C37.342 54.8143 37.3103 54.8257 37.2834 54.8441C37.1925 54.9058 37.0926 54.9593 37.0157 55.0356C36.8754 55.1743 36.8546 55.3866 36.948 55.5416C37.0441 55.7008 37.2442 55.7667 37.4551 55.7088C37.6694 55.6497 37.7641 55.5306 37.7661 55.3164C37.7668 55.2142 37.7738 55.1109 37.7632 55.01C37.757 54.9518 37.7339 54.8855 37.6963 54.8422C37.4532 54.5628 37.2039 54.2885 36.9563 54.0128C36.8238 53.8653 36.6907 53.7184 36.5594 53.573C36.3132 53.7081 36.2235 53.9095 36.2413 54.1657C36.2589 54.4186 36.3928 54.5899 36.6116 54.6944C36.6889 54.6384 36.7563 54.5779 36.834 54.5361C37.0422 54.4239 37.0622 54.4305 37.2154 54.6067C37.2683 54.6673 37.3204 54.7285 37.3786 54.7961Z" fill="#2C2B2A"/>
<path fill-rule="evenodd" clip-rule="evenodd" d="M35.1812 56.1549C35.0993 56.3041 35.0296 56.4307 34.9547 56.5671C34.6329 56.4658 34.3131 56.3652 33.9935 56.2643C33.4609 56.0963 32.9284 55.9285 32.3962 55.76C32.2678 55.7193 32.2457 55.6184 32.3457 55.5294C32.4469 55.4394 32.5496 55.3514 32.6644 55.2514C32.4224 55.1829 32.2264 55.0698 32.0713 54.8925C31.7149 54.485 31.7194 53.8578 32.0873 53.4113C32.4448 52.9776 32.9137 52.7954 33.4679 52.823C33.838 52.8413 34.1854 52.9248 34.4667 53.2213C34.4667 53.1068 34.4667 53.008 34.4667 52.8982C34.6452 52.8982 34.8127 52.8982 34.9951 52.8982C34.9951 52.9426 34.9951 52.9884 34.9951 53.0342C34.9951 53.986 34.9969 54.938 34.9935 55.8897C34.9932 56.0214 34.9856 56.1428 35.1812 56.1549ZM34.4736 55.9057C34.4736 55.3634 34.4575 54.8382 34.4804 54.3146C34.4919 54.0513 34.3941 53.8656 34.2186 53.6976C34.1815 53.6623 34.145 53.6263 34.1062 53.593C33.6501 53.2021 32.9947 53.2286 32.5919 53.6538C32.3991 53.8573 32.3142 54.0999 32.3909 54.3705C32.4677 54.6414 32.6902 54.7643 32.9497 54.8173C33.0061 54.8288 33.0851 54.8098 33.1322 54.7755C33.3827 54.5929 33.6262 54.4009 33.8541 54.2261C33.9796 54.3413 34.0949 54.447 34.2154 54.5576C33.871 54.8655 33.5318 55.1685 33.178 55.4846C33.6152 55.6267 34.0342 55.7629 34.4736 55.9057Z" fill="#2B2A29"/>
<path fill-rule="evenodd" clip-rule="evenodd" d="M29.9788 56.2319C29.8315 56.3028 29.7016 56.3654 29.5584 56.4344C29.4847 56.331 29.411 56.2286 29.3383 56.1251C29.2329 55.975 29.133 55.8209 29.0214 55.6755C28.9649 55.602 28.9794 55.5502 29.0133 55.4714C29.1123 55.2417 29.222 55.0109 29.2773 54.7691C29.3889 54.281 29.1623 53.7927 28.7314 53.513C28.3159 53.2433 27.7985 53.2571 27.385 53.5476C27.1109 53.7405 26.9056 53.9728 26.9241 54.3362C26.9353 54.554 27.0166 54.7108 27.1709 54.813C27.5452 54.4798 27.9529 54.3931 28.3293 54.5895C28.7318 54.7995 28.8934 55.1511 28.8704 55.5958C28.8524 55.9404 28.607 56.2609 28.2678 56.383C27.7267 56.5778 27.0474 56.2441 26.9371 55.7197C26.9104 55.5931 26.9314 55.4568 26.9246 55.3253C26.9227 55.2901 26.909 55.238 26.8837 55.2237C26.3896 54.9432 26.2663 54.1824 26.5583 53.6613C26.89 53.0691 27.6212 52.7354 28.3571 52.8391C29.0451 52.9358 29.6371 53.4735 29.7794 54.1374C29.8804 54.6083 29.7921 55.0535 29.5724 55.4745C29.5301 55.5555 29.5369 55.6092 29.5884 55.6788C29.7195 55.8569 29.8438 56.0399 29.9788 56.2319ZM27.8874 55.9378C28.1409 55.9404 28.3448 55.7505 28.3479 55.509C28.351 55.2567 28.1589 55.055 27.914 55.053C27.6563 55.0511 27.4395 55.2621 27.4364 55.5178C27.4337 55.7533 27.629 55.9351 27.8874 55.9378Z" fill="#2C2B29"/>
<path fill-rule="evenodd" clip-rule="evenodd" d="M19.2105 53.2179C19.2105 53.1038 19.2105 53.0037 19.2105 52.897C19.3842 52.897 19.5486 52.897 19.7284 52.897C19.7284 52.9475 19.7284 52.9928 19.7284 53.038C19.7285 53.977 19.7288 54.916 19.7285 55.855C19.7285 55.9929 19.686 56.1516 19.9145 56.1589C19.8342 56.3039 19.7644 56.4298 19.6878 56.5678C19.4413 56.4918 19.1945 56.417 18.9488 56.3395C18.3433 56.1485 17.7382 55.9563 17.1331 55.7642C16.9931 55.7198 16.9742 55.6269 17.0854 55.5267C17.1824 55.4392 17.2816 55.354 17.3676 55.2785C17.2057 55.1787 17.0302 55.103 16.8952 54.9819C16.4517 54.584 16.4231 53.9056 16.8118 53.4211C17.3029 52.8092 18.2699 52.6266 18.951 53.021C19.0381 53.0715 19.113 53.1431 19.2105 53.2179ZM19.2081 55.9094C19.2081 55.2876 19.2089 54.6865 19.2062 54.0856C19.2061 54.0462 19.1903 53.9976 19.1643 53.9694C19.0211 53.8137 18.8903 53.6386 18.7222 53.5152C18.288 53.1964 17.6835 53.2718 17.3152 53.6648C17.0081 53.9921 16.9376 54.6201 17.6421 54.8147C17.7351 54.8404 17.8083 54.8344 17.8884 54.7696C18.1231 54.5794 18.3653 54.3987 18.5863 54.2285C18.7105 54.3402 18.8266 54.4448 18.9513 54.5572C18.6015 54.8701 18.261 55.1747 17.9112 55.4874C18.35 55.6302 18.77 55.7668 19.2081 55.9094Z" fill="#2B2B29"/>
<path fill-rule="evenodd" clip-rule="evenodd" d="M21.002 54.7187C21.1641 54.4719 21.3747 54.3433 21.6301 54.261C21.7137 54.3932 21.797 54.525 21.8771 54.6519C21.7553 54.7475 21.6258 54.8264 21.527 54.9334C21.4398 55.0275 21.3665 55.1459 21.3234 55.2665C21.2574 55.4526 21.3069 55.6275 21.4486 55.7718C21.6196 55.9461 21.8274 55.9763 22.0511 55.9169C22.3744 55.8309 22.5017 55.6092 22.4137 55.3034C22.1825 55.3703 22.0043 55.2815 21.9494 55.0719C21.894 54.8611 22.0086 54.6826 22.2374 54.623C22.4433 54.5693 22.6418 54.6395 22.7739 54.8293C23.1522 55.373 23.0333 56.2308 22.1189 56.4173C21.6 56.5231 21.0973 56.2912 20.8691 55.8711C20.7684 55.6859 20.7549 55.4891 20.7854 55.2869C20.7958 55.218 20.7799 55.1847 20.7149 55.1492C20.4695 55.0146 20.3706 54.7772 20.3196 54.5213C20.201 53.9267 20.4215 53.4696 20.9103 53.1306C21.5929 52.657 22.8176 52.6568 23.4103 53.6167C23.6964 54.0801 23.6957 54.5674 23.4469 55.0664C23.2832 55.003 23.1264 54.9423 22.9625 54.8791C22.9718 54.8497 22.9762 54.825 22.9869 54.8036C23.2971 54.181 22.9148 53.6314 22.4552 53.4226C21.981 53.2071 21.3507 53.3331 21.0101 53.721C20.7944 53.9666 20.7697 54.2492 20.8838 54.5469C20.9053 54.603 20.9529 54.6489 21.002 54.7187Z" fill="#2C2B2A"/>
<path fill-rule="evenodd" clip-rule="evenodd" d="M43.1766 54.5568C43.1766 55.1569 43.1766 55.7533 43.1766 56.3598C43.0049 56.3598 42.8338 56.3598 42.6502 56.3598C42.6502 55.9291 42.6502 55.5 42.6502 55.0565C42.2655 55.1085 41.9648 55.2732 41.7651 55.5928C41.6688 55.7472 41.7127 55.828 41.8827 55.8743C42.0046 55.9076 42.0831 55.9872 42.1063 56.1119C42.1283 56.2313 42.0696 56.3172 41.975 56.3827C41.7986 56.5044 41.5973 56.49 41.4347 56.3447C41.1342 56.0764 41.0913 55.5998 41.3353 55.2346C41.3588 55.1995 41.3845 55.166 41.4085 55.1329C41.2875 55.0758 41.1619 55.0329 41.0541 54.9624C40.5396 54.6263 40.4356 53.9536 40.8331 53.4783C41.2653 52.9614 41.8464 52.798 42.4961 52.8275C42.9047 52.8461 43.2724 52.9771 43.5847 53.2482C44.0744 53.6731 44.1447 54.4012 43.7408 54.9293C43.5916 54.8558 43.4409 54.7817 43.3153 54.72C43.3691 54.5473 43.4495 54.3902 43.4622 54.2278C43.4894 53.8767 43.2325 53.5396 42.8299 53.405C42.295 53.2262 41.7932 53.3064 41.3566 53.6791C41.2843 53.7408 41.2259 53.8269 41.1824 53.9126C41.057 54.1591 41.1069 54.3788 41.3231 54.5486C41.3961 54.6059 41.4795 54.6521 41.5633 54.6929C41.6924 54.7558 41.8107 54.7757 41.9591 54.6962C42.1081 54.6163 42.2895 54.5782 42.4604 54.5622C42.6927 54.5404 42.9285 54.5568 43.1766 54.5568Z" fill="#2C2C2A"/>
<path fill-rule="evenodd" clip-rule="evenodd" d="M24.6919 52.9025C24.6919 53.3663 24.6903 53.8141 24.6926 54.262C24.6938 54.4881 24.8741 54.6422 25.0764 54.5967C25.2156 54.5654 25.3227 54.4102 25.3233 54.2324C25.3247 53.8356 25.3239 53.4386 25.324 53.0415C25.324 52.9995 25.324 52.9572 25.324 52.905C25.4986 52.905 25.6662 52.905 25.8395 52.905C25.8395 54.0563 25.8395 55.2027 25.8395 56.3563C25.6707 56.3563 25.506 56.3563 25.3275 56.3563C25.3275 55.9167 25.3275 55.475 25.3275 55.0391C25.1957 55.0603 25.0766 55.0955 24.9576 55.0955C24.5236 55.0957 24.1797 54.7468 24.1778 54.3137C24.1759 53.8783 24.1772 53.4428 24.1776 53.0074C24.1776 52.9743 24.1811 52.9412 24.1832 52.9023C24.3538 52.9025 24.5187 52.9025 24.6919 52.9025Z" fill="#2B2B29"/>
<path fill-rule="evenodd" clip-rule="evenodd" d="M40.0375 56.3644C39.8842 56.3644 39.7437 56.3647 39.6032 56.3639C39.5916 56.3638 39.58 56.3572 39.5625 56.3517C39.5625 55.2062 39.5625 54.0612 39.5625 52.9062C39.7185 52.9062 39.8735 52.9062 40.0375 52.9062C40.0375 54.0552 40.0375 55.2034 40.0375 56.3644Z" fill="#2E2E2D"/>
<path fill-rule="evenodd" clip-rule="evenodd" d="M47.0162 55.9058C47.0171 56.1601 46.8172 56.3635 46.5672 56.3624C46.3145 56.3613 46.1129 56.1595 46.1143 55.9089C46.1157 55.6465 46.303 55.4585 46.5641 55.457C46.8242 55.4556 47.0152 55.6451 47.0162 55.9058Z" fill="#2C2C2A"/>
<path fill-rule="evenodd" clip-rule="evenodd" d="M45.5711 55.9013C45.5727 56.1625 45.3836 56.3575 45.1245 56.3619C44.8737 56.3663 44.6696 56.1621 44.6699 55.9073C44.6703 55.6469 44.8623 55.4568 45.1251 55.457C45.3799 55.4573 45.5696 55.6462 45.5711 55.9013Z" fill="#2C2C2A"/>
<path fill-rule="evenodd" clip-rule="evenodd" d="M48.4593 55.9144C48.4572 56.1668 48.2552 56.365 48.0014 56.3637C47.7552 56.3625 47.5516 56.151 47.5557 55.9003C47.56 55.6427 47.7538 55.4558 48.0154 55.457C48.273 55.4583 48.4616 55.6524 48.4593 55.9144Z" fill="#2C2B2A"/>
<rect x="0.145089" y="0.145089" width="64.7098" height="64.7098" rx="5.85491" stroke="#B1B1B1" stroke-width="0.290179"/>
</svg>
