<svg width="24" height="24" viewBox="0 0 24 24" fill="none" xmlns="http://www.w3.org/2000/svg">
<path fill-rule="evenodd" clip-rule="evenodd" d="M12.6438 2.747C12.305 2.35362 11.6956 2.35362 11.3567 2.747L10.7171 3.48958C10.4679 3.77884 10.0564 3.86632 9.71108 3.70341L8.82468 3.2852C8.35512 3.06366 7.79842 3.31151 7.64886 3.80871L7.36654 4.74727C7.25657 5.11286 6.91619 5.36016 6.5345 5.35178L5.55464 5.33026C5.03556 5.31885 4.62781 5.77171 4.6934 6.28675L4.81723 7.259C4.86547 7.63772 4.6551 8.00208 4.30301 8.14967L3.3991 8.52855C2.92026 8.72926 2.73195 9.30882 3.00137 9.75265L3.50994 10.5905C3.70804 10.9168 3.66406 11.3353 3.40244 11.6133L2.73078 12.3271C2.37498 12.7052 2.43868 13.3112 2.86532 13.6071L3.6707 14.1657C3.98442 14.3832 4.11443 14.7834 3.98851 15.1438L3.66524 16.069C3.494 16.5592 3.79869 17.0869 4.30879 17.1837L5.27172 17.3664C5.64681 17.4375 5.92833 17.7502 5.95989 18.1307L6.04091 19.1074C6.08383 19.6248 6.57682 19.983 7.08219 19.8639L8.03617 19.6392C8.40777 19.5516 8.79213 19.7227 8.97571 20.0575L9.447 20.9168C9.69666 21.3721 10.2927 21.4987 10.706 21.1844L11.486 20.5911C11.7899 20.3599 12.2106 20.3599 12.5145 20.5911L13.2946 21.1844C13.7078 21.4987 14.3039 21.3721 14.5535 20.9168L15.0248 20.0575C15.2084 19.7227 15.5928 19.5516 15.9644 19.6392L16.9184 19.8639C17.4237 19.983 17.9167 19.6248 17.9596 19.1074L18.0407 18.1307C18.0722 17.7502 18.3537 17.4375 18.7288 17.3664L19.6917 17.1837C20.2019 17.0869 20.5065 16.5592 20.3353 16.069L20.012 15.1438C19.8861 14.7834 20.0161 14.3832 20.3298 14.1657L21.1352 13.6071C21.5619 13.3112 21.6256 12.7052 21.2698 12.3271L20.5981 11.6133C20.3365 11.3353 20.2925 10.9168 20.4906 10.5905L20.9992 9.75265C21.2686 9.30882 21.0803 8.72926 20.6014 8.52855L19.6975 8.14967C19.3454 8.00208 19.1351 7.63772 19.1833 7.259L19.3071 6.28675C19.3727 5.77171 18.965 5.31885 18.4459 5.33026L17.466 5.35178C17.0844 5.36016 16.744 5.11286 16.634 4.74727L16.3517 3.80871C16.2021 3.31151 15.6454 3.06366 15.1759 3.2852L14.2895 3.70341C13.9442 3.86632 13.5326 3.77884 13.2835 3.48958L12.6438 2.747ZM6.70341 11.6797C7.17234 12.1625 7.77726 12.4039 8.51818 12.4039C9.26847 12.4039 9.87808 12.1625 10.347 11.6797C10.816 11.1968 11.0504 10.5376 11.0504 9.70195C11.0504 8.87558 10.816 8.22098 10.347 7.73816C9.87808 7.24605 9.26847 7 8.51818 7C8.03049 7 7.59438 7.11142 7.20985 7.33426C6.83471 7.54782 6.53928 7.85886 6.32357 8.26741C6.10786 8.67595 6.00001 9.15413 6.00001 9.70195C6.00001 10.5376 6.23447 11.1968 6.70341 11.6797ZM16.3681 7.12535H14.3423L7.61783 16.8747H9.64362L16.3681 7.12535ZM9.1231 10.7465C8.97304 10.9694 8.7714 11.0808 8.51818 11.0808C8.27433 11.0808 8.07269 10.9694 7.91325 10.7465C7.7632 10.5144 7.68817 10.1662 7.68817 9.70195C7.68817 9.2377 7.7632 8.89415 7.91325 8.67131C8.07269 8.43918 8.27433 8.32312 8.51818 8.32312C8.7714 8.32312 8.97304 8.43454 9.1231 8.65738C9.27316 8.88022 9.34819 9.22841 9.34819 9.70195C9.34819 10.1755 9.27316 10.5237 9.1231 10.7465ZM13.6389 16.2758C14.1079 16.7586 14.7175 17 15.4678 17C16.2181 17 16.8277 16.7586 17.2966 16.2758C17.7655 15.7929 18 15.1337 18 14.298C18 13.4717 17.7655 12.8171 17.2966 12.3343C16.8277 11.8422 16.2181 11.5961 15.4678 11.5961C14.7269 11.5961 14.1219 11.8422 13.653 12.3343C13.1841 12.8171 12.9496 13.4717 12.9496 14.298C12.9496 15.1337 13.1794 15.7929 13.6389 16.2758ZM16.0727 15.3426C15.9226 15.5655 15.721 15.6769 15.4678 15.6769C15.2145 15.6769 15.0129 15.5655 14.8628 15.3426C14.7128 15.1198 14.6378 14.7716 14.6378 14.298C14.6378 13.8245 14.7128 13.4763 14.8628 13.2535C15.0129 13.0306 15.2145 12.9192 15.4678 12.9192C15.721 12.9192 15.9226 13.0306 16.0727 13.2535C16.2227 13.4763 16.2978 13.8245 16.2978 14.298C16.2978 14.7716 16.2227 15.1198 16.0727 15.3426Z" fill="#4F3CCD"/>
</svg>
