<svg width="16" height="16" viewBox="0 0 16 16" fill="none" xmlns="http://www.w3.org/2000/svg">
<g id="location_icon_16dp">
<path id="icon/communication/location_on_24px" fill-rule="evenodd" clip-rule="evenodd" d="M3.79999 6.20001C3.79999 3.878 5.67799 2 8 2C10.322 2 12.2 3.878 12.2 6.20001C12.2 9.35001 8 14 8 14C8 14 3.79999 9.35001 3.79999 6.20001ZM6.49999 6.20001C6.49999 5.37158 7.17157 4.7 7.99999 4.7C8.53589 4.7 9.03109 4.9859 9.29904 5.45001C9.56699 5.91411 9.56699 6.48591 9.29904 6.95001C9.03109 7.41411 8.53589 7.70001 7.99999 7.70001C7.17157 7.70001 6.49999 7.02844 6.49999 6.20001Z" fill="#888888"/>
</g>
</svg>
