<svg width="24" height="24" viewBox="0 0 24 24" fill="none" xmlns="http://www.w3.org/2000/svg">
<path opacity="0.5" fill-rule="evenodd" clip-rule="evenodd" d="M24 12.0003C24 18.6276 18.6276 24.0003 12 24.0003C5.37273 24.0003 0 18.6276 0 12.0003C0 5.37273 5.37273 0 12 0C18.6276 0 24 5.37273 24 12.0003Z" fill="#131313"/>
<mask id="mask0" mask-type="alpha" maskUnits="userSpaceOnUse" x="5" y="5" width="12" height="14">
<path d="M15 14.72C14.4933 14.72 14.04 14.92 13.6933 15.2334L8.94 12.4667C8.97333 12.3134 9 12.16 9 12C9 11.84 8.97333 11.6867 8.94 11.5334L13.64 8.79337C14 9.12671 14.4733 9.33337 15 9.33337C16.1067 9.33337 17 8.44004 17 7.33337C17 6.22671 16.1067 5.33337 15 5.33337C13.8933 5.33337 13 6.22671 13 7.33337C13 7.49337 13.0267 7.64671 13.06 7.80004L8.36 10.54C8 10.2067 7.52667 10 7 10C5.89333 10 5 10.8934 5 12C5 13.1067 5.89333 14 7 14C7.52667 14 8 13.7934 8.36 13.46L13.1067 16.2334C13.0733 16.3734 13.0533 16.52 13.0533 16.6667C13.0533 17.74 13.9267 18.6134 15 18.6134C16.0733 18.6134 16.9467 17.74 16.9467 16.6667C16.9467 15.5934 16.0733 14.72 15 14.72Z" fill="white"/>
</mask>
<g mask="url(#mask0)">
<rect x="3" y="4" width="16" height="16" fill="white"/>
</g>
</svg>
