<svg width="18" height="14" viewBox="0 0 18 14" fill="none" xmlns="http://www.w3.org/2000/svg">
<path fill-rule="evenodd" clip-rule="evenodd" d="M0 12.4119C1.63422 13.4147 3.57559 14 5.66069 14C12.5173 14 16.3906 8.45736 16.1575 3.48643C16.8785 2.98859 17.505 2.366 18 1.65672C17.3373 1.93787 16.6257 2.12781 15.8791 2.21299C16.641 1.77657 17.227 1.08388 17.5023 0.25778C16.7887 0.662916 15.9984 0.957252 15.158 1.11591C14.4839 0.429256 13.5242 0 12.4618 0C10.0786 0 8.32662 2.12894 8.86493 4.33967C5.79536 4.19231 3.07429 2.78545 1.25342 0.646334C0.285889 2.2356 0.751345 4.31404 2.39619 5.36551C1.79055 5.34742 1.22074 5.188 0.722993 4.92306C0.68322 6.56095 1.90908 8.09217 3.68506 8.43362C3.16526 8.56929 2.59584 8.59982 2.01816 8.49392C2.48676 9.89851 3.85084 10.9195 5.46734 10.9485C3.91464 12.1134 1.95909 12.6335 0 12.4119Z" fill="#00ACEE"/>
</svg>
