<svg width="60" height="60" viewBox="0 0 60 60" fill="none" xmlns="http://www.w3.org/2000/svg">
<path d="M48 22C48 26.4183 44.4183 30 40 30C35.5817 30 32 26.4183 32 22C32 17.5817 35.5817 14 40 14C44.4183 14 48 17.5817 48 22Z" fill="#FFB900"/>
<path fill-rule="evenodd" clip-rule="evenodd" d="M28.3596 20.798C28.3596 20.798 28.4978 21.5 28.5449 21.5067C31.0902 21.8697 33 23.3544 33 26C33 28.8995 30.6495 31.25 27.75 31.25H14.25C11.3505 31.25 9 28.8995 9 26C9 23.3544 10.9569 21.1658 13.5022 20.8028C13.5494 20.7961 13.5956 20.7947 13.6404 20.798C14.3167 17.3508 17.3546 14.75 21 14.75C24.6454 14.75 27.6833 17.3508 28.3596 20.798Z" fill="url(#paint0_linear)"/>
<path fill-rule="evenodd" clip-rule="evenodd" d="M39.8127 27.0641C39.8127 27.0641 39.997 28 40.0599 28.009C43.4537 28.4929 46 30.4725 46 34C46 37.866 42.866 41 39 41H21C17.134 41 14 37.866 14 34C14 30.4725 16.6092 27.5544 20.003 27.0705C20.0659 27.0615 20.1275 27.0596 20.1873 27.0641C21.0889 22.4677 25.1395 19 30 19C34.8605 19 38.9111 22.4677 39.8127 27.0641Z" fill="url(#paint1_linear)"/>
<path d="M22.8008 47.236L25.8008 42.0398M28.8008 46.036L31.8008 40.8398M33.6008 48.436L36.6008 43.2398" stroke="url(#paint2_linear)" stroke-width="2" stroke-linecap="round" stroke-linejoin="round"/>
<defs>
<linearGradient id="paint0_linear" x1="10.125" y1="23" x2="31.875" y2="23" gradientUnits="userSpaceOnUse">
<stop stop-color="#E0E0E0"/>
<stop offset="0.478646" stop-color="#E0E0E0" stop-opacity="0.97"/>
<stop offset="1" stop-color="#FFFDFD" stop-opacity="0.81"/>
</linearGradient>
<linearGradient id="paint1_linear" x1="15.5" y1="30" x2="44.5" y2="30" gradientUnits="userSpaceOnUse">
<stop stop-color="#E0E0E0"/>
<stop offset="0.478646" stop-color="#E0E0E0" stop-opacity="0.97"/>
<stop offset="1" stop-color="#FFFDFD" stop-opacity="0.81"/>
</linearGradient>
<linearGradient id="paint2_linear" x1="4.85719" y1="37.3308" x2="4.85719" y2="48.4354" gradientUnits="userSpaceOnUse">
<stop stop-color="#1772B4"/>
<stop offset="1" stop-color="#1A8DCD"/>
</linearGradient>
</defs>
</svg>
