<svg width="60" height="60" viewBox="0 0 60 60" fill="none" xmlns="http://www.w3.org/2000/svg">
<path fill-rule="evenodd" clip-rule="evenodd" d="M41.7761 26.4777C41.7761 26.4777 41.9972 27.6008 42.0727 27.6115C46.1452 28.1923 49.2008 30.5678 49.2008 34.8008C49.2008 39.44 45.44 43.2008 40.8008 43.2008H19.2008C14.5616 43.2008 10.8008 39.44 10.8008 34.8008C10.8008 30.5678 13.9319 27.0661 18.0043 26.4853C18.0798 26.4746 18.1537 26.4723 18.2255 26.4777C19.3074 20.962 24.1682 16.8008 30.0008 16.8008C35.8334 16.8008 40.6941 20.962 41.7761 26.4777Z" fill="url(#paint0_linear)"/>
<path d="M25.2735 37.875C25.2735 37.3918 25.6652 37 26.1485 37C26.6317 37 27.0235 37.3918 27.0235 37.875V38.9845L27.9843 38.4297C28.4028 38.1881 28.9379 38.3315 29.1796 38.75C29.4212 39.1685 29.2778 39.7036 28.8593 39.9453L27.8985 40.5L28.8593 41.0547C29.2778 41.2964 29.4212 41.8315 29.1796 42.25C28.9379 42.6685 28.4028 42.8119 27.9843 42.5703L27.0235 42.0156V43.125C27.0235 43.6082 26.6317 44 26.1485 44C25.6652 44 25.2735 43.6082 25.2735 43.125V42.0155L24.3126 42.5703C23.8941 42.8119 23.359 42.6685 23.1174 42.25C22.8758 41.8315 23.0191 41.2964 23.4376 41.0547L24.3985 40.5L23.4376 39.9453C23.0191 39.7036 22.8757 39.1685 23.1174 38.75C23.359 38.3315 23.8941 38.1881 24.3126 38.4297L25.2735 38.9845V37.875Z" fill="url(#paint1_linear)"/>
<path d="M33.2735 39.875C33.2735 39.3918 33.6652 39 34.1485 39C34.6317 39 35.0235 39.3918 35.0235 39.875V40.9845L35.9843 40.4297C36.4028 40.1881 36.9379 40.3315 37.1796 40.75C37.4212 41.1685 37.2778 41.7036 36.8593 41.9453L35.8985 42.5L36.8593 43.0547C37.2778 43.2964 37.4212 43.8315 37.1796 44.25C36.9379 44.6685 36.4028 44.8119 35.9843 44.5703L35.0235 44.0156V45.125C35.0235 45.6082 34.6317 46 34.1485 46C33.6652 46 33.2735 45.6082 33.2735 45.125V44.0155L32.3126 44.5703C31.8941 44.8119 31.359 44.6685 31.1174 44.25C30.8758 43.8315 31.0191 43.2964 31.4376 43.0547L32.3985 42.5L31.4376 41.9453C31.0191 41.7036 30.8757 41.1685 31.1174 40.75C31.359 40.3315 31.8941 40.1881 32.3126 40.4297L33.2735 40.9845V39.875Z" fill="url(#paint2_linear)"/>
<path d="M27.2735 45.375C27.2735 44.8918 27.6652 44.5 28.1485 44.5C28.6317 44.5 29.0235 44.8918 29.0235 45.375V46.4845L29.9843 45.9297C30.4028 45.6881 30.9379 45.8315 31.1796 46.25C31.4212 46.6685 31.2778 47.2036 30.8593 47.4453L29.8985 48L30.8593 48.5547C31.2778 48.7964 31.4212 49.3315 31.1796 49.75C30.9379 50.1685 30.4028 50.3119 29.9843 50.0703L29.0235 49.5156V50.625C29.0235 51.1082 28.6317 51.5 28.1485 51.5C27.6652 51.5 27.2735 51.1082 27.2735 50.625V49.5155L26.3126 50.0703C25.8941 50.3119 25.359 50.1685 25.1174 49.75C24.8758 49.3315 25.0191 48.7964 25.4376 48.5547L26.3985 48L25.4376 47.4453C25.0191 47.2036 24.8757 46.6685 25.1174 46.25C25.359 45.8315 25.8941 45.6881 26.3126 45.9297L27.2735 46.4845V45.375Z" fill="url(#paint3_linear)"/>
<defs>
<linearGradient id="paint0_linear" x1="12.6008" y1="30.0008" x2="47.4008" y2="30.0008" gradientUnits="userSpaceOnUse">
<stop stop-color="#E0E0E0"/>
<stop offset="0.478646" stop-color="#E0E0E0" stop-opacity="0.909057"/>
<stop offset="1" stop-color="#FFFDFD" stop-opacity="0.81"/>
</linearGradient>
<linearGradient id="paint1_linear" x1="7.66875" y1="33.2091" x2="7.66875" y2="49.9879" gradientUnits="userSpaceOnUse">
<stop stop-color="#1772B4"/>
<stop offset="1" stop-color="#1A8DCD"/>
</linearGradient>
<linearGradient id="paint2_linear" x1="7.66875" y1="33.2091" x2="7.66875" y2="49.9879" gradientUnits="userSpaceOnUse">
<stop stop-color="#1772B4"/>
<stop offset="1" stop-color="#1A8DCD"/>
</linearGradient>
<linearGradient id="paint3_linear" x1="7.66875" y1="33.2091" x2="7.66875" y2="49.9879" gradientUnits="userSpaceOnUse">
<stop stop-color="#1772B4"/>
<stop offset="1" stop-color="#1A8DCD"/>
</linearGradient>
</defs>
</svg>
