<svg width="24" height="24" viewBox="0 0 24 24" fill="none" xmlns="http://www.w3.org/2000/svg">
<mask id="mask0" mask-type="alpha" maskUnits="userSpaceOnUse" x="1" y="4" width="22" height="16">
<path fill-rule="evenodd" clip-rule="evenodd" d="M1 6C1 4.89543 1.89543 4 3 4H11V20H3C1.89543 20 1 19.1046 1 18V6ZM6 8.5L7.02862 10.5842L9.3287 10.9184L7.66435 12.5408L8.05725 14.8316L6 13.75L3.94275 14.8316L4.33565 12.5408L2.6713 10.9184L4.97138 10.5842L6 8.5ZM13 4H21C22.1046 4 23 4.89543 23 6V18C23 19.1046 22.1046 20 21 20H13V4ZM15 7H21V9H15V7ZM15 11H21V13H15V11ZM21 15H15V17H21V15Z" fill="#C4C4C4"/>
</mask>
<g mask="url(#mask0)">
<rect width="24" height="24" fill="#4A4A4A"/>
</g>
</svg>
