<svg width="24" height="24" viewBox="0 0 24 24" fill="none" xmlns="http://www.w3.org/2000/svg">
<mask id="mask0" mask-type="alpha" maskUnits="userSpaceOnUse" x="4" y="0" width="16" height="22">
<path fill-rule="evenodd" clip-rule="evenodd" d="M14.24 5.46992C14.24 3.31992 13.5 0.669922 13.5 0.669922C17.41 3.79992 20 8.60992 20 13.9999C20 18.4199 16.42 21.9999 12 21.9999C7.58 21.9999 4 18.4199 4 13.9999C4 10.6199 5.21 7.50992 7.23 5.10992L7.2 5.46992C7.2 7.52992 8.76 9.19992 10.83 9.19992C12.89 9.19992 14.24 7.52992 14.24 5.46992ZM8.49 15.8599C8.49 17.5999 9.93 18.9999 11.71 18.9999C14.36 18.9999 16.51 16.8499 16.51 14.1999C16.51 12.8099 16.31 11.4499 15.92 10.1599C14.9 11.5299 13.07 12.3799 11.3 12.7399C9.54 13.0999 8.49 14.2399 8.49 15.8599Z" fill="white"/>
</mask>
<g mask="url(#mask0)">
<rect width="24" height="24" fill="#4A4A4A"/>
</g>
</svg>
