<svg width="22" height="22" viewBox="0 0 22 22" fill="none" xmlns="http://www.w3.org/2000/svg">
<path d="M0.336312 21.667L1.77843 16.3679C0.828186 14.739 0.328948 12.8863 0.332046 11.0005C0.332046 5.10939 5.10745 0.333984 10.9986 0.333984C16.8897 0.333984 21.6651 5.10939 21.6651 11.0005C21.6651 16.8916 16.8897 21.667 10.9986 21.667C9.11356 21.6701 7.26172 21.1712 5.63331 20.2217L0.336312 21.667ZM7.14902 5.99578C7.01128 6.00433 6.87668 6.04061 6.7533 6.10244C6.63759 6.16797 6.53196 6.24988 6.4397 6.34564C6.3117 6.46617 6.23917 6.5707 6.1613 6.67204C5.76708 7.18509 5.55503 7.81487 5.55864 8.46188C5.56078 8.98454 5.69731 9.49333 5.91064 9.96906C6.3469 10.9312 7.06476 11.9498 8.01301 12.8938C8.24128 13.121 8.46421 13.3493 8.7042 13.5615C9.88114 14.5978 11.2836 15.345 12.8002 15.7439L13.4071 15.8367C13.6044 15.8474 13.8017 15.8325 14.0001 15.8229C14.3108 15.8068 14.6141 15.7227 14.8887 15.5765C15.0657 15.4826 15.1489 15.4357 15.2972 15.3418C15.2972 15.3418 15.3431 15.3119 15.4305 15.2458C15.5745 15.1391 15.663 15.0634 15.7825 14.9386C15.871 14.8469 15.9478 14.7391 16.0065 14.6165C16.0897 14.4426 16.1729 14.1109 16.207 13.8346C16.2326 13.6234 16.2252 13.5082 16.222 13.4367C16.2177 13.3226 16.1228 13.2042 16.0193 13.1541L15.3985 12.8757C15.3985 12.8757 14.4705 12.4714 13.9041 12.2133C13.8444 12.1873 13.7804 12.1724 13.7153 12.1696C13.6424 12.1621 13.5686 12.1703 13.4991 12.1936C13.4295 12.217 13.3658 12.255 13.3121 12.305V12.3029C13.3068 12.3029 13.2353 12.3637 12.4642 13.2981C12.4199 13.3576 12.3589 13.4025 12.289 13.4272C12.2191 13.4519 12.1434 13.4552 12.0716 13.4367C12.0021 13.4182 11.934 13.3946 11.8679 13.3664C11.7356 13.3109 11.6898 13.2896 11.5991 13.2501L11.5938 13.248C10.9835 12.9815 10.4186 12.6217 9.91912 12.1813C9.78472 12.064 9.65993 11.936 9.53193 11.8122C9.11228 11.4104 8.74657 10.9557 8.44394 10.4597L8.38101 10.3584C8.33581 10.2903 8.29926 10.2168 8.27221 10.1397C8.23168 9.98293 8.33728 9.85706 8.33728 9.85706C8.33728 9.85706 8.59647 9.57333 8.717 9.41973C8.81736 9.29208 8.911 9.15928 8.99753 9.02187C9.1234 8.81921 9.16286 8.61121 9.09673 8.45015C8.79807 7.72056 8.48874 6.99416 8.17088 6.27311C8.10794 6.13018 7.92128 6.02778 7.75168 6.00751C7.69408 6.00111 7.63648 5.99471 7.57889 5.99044C7.43564 5.98333 7.2921 5.98475 7.14902 5.99471V5.99578Z" fill="white"/>
</svg>
